<svg xmlns="http://www.w3.org/2000/svg" viewBox="0 0 30 16"><path fill="#fff" d="M0 0h30v16H0z"/><path d="M0 14.7h30V16H0zm0-2.6h30v1.3H0zm0-2.5h30v1.2H0zm12-2.4h18v1.2H12zm0-2.4h18V6H12zm0-2.4h18v1.2H12zM12 0h18v1.2H12z" fill="#bf0a30"/><path fill="#002868" d="M0 0v8.4h12V0H0zm7.9 1.5l.1-.3.1.3h.3l-.1.3.1.4L8 2l-.3.2.1-.4-.3-.2.4-.1zm0 1.7l.1-.3.1.3h.3l-.1.3.1.4-.4-.2-.3.2.1-.4-.3-.2.4-.1zm0 1.7l.1-.3.1.3h.3l-.1.3.1.4-.4-.2-.3.2.1-.4-.3-.2.4-.1zM4.9.7L5 .3l.1.3h.3l-.1.3.1.4-.4-.2-.3.2.1-.4-.3-.2h.4zm0 1.6L5 2l.1.3h.3l-.1.3V3L5 2.8l-.3.2.1-.4-.3-.2.4-.1zm0 1.7l.1-.3.2.3h.3l-.2.3.1.4-.4-.2-.3.2.1-.4-.3-.2.4-.1zm0 1.7l.1-.3.1.3h.3l-.1.3.1.4-.4-.2-.3.2.1-.4-.3-.2.4-.1zm-3-4.2l.1-.3.1.3h.3l-.2.3.1.4L2 2l-.3.2.1-.4-.3-.2.4-.1zm0 1.7l.1-.3.1.3h.3l-.2.3.1.4-.3-.2-.3.2.1-.4-.3-.2.4-.1zm0 1.7l.1-.3.1.3h.3l-.2.3.1.4-.3-.2-.3.2.1-.4-.3-.2.4-.1zM1.3 8L1 7.9l-.3.2.1-.4-.3-.3h.3l.2-.3.1.3h.3l-.2.3.1.3zm-.1-2l.1.4-.3-.2-.3.2.1-.4-.3-.2h.3l.2-.4.1.3h.3l-.2.3zm0-1.7l.1.4-.3-.2-.3.2.1-.4-.3-.2h.3l.2-.4.1.3h.3l-.2.3zm0-1.7l.1.4-.3-.2-.3.2.1-.4-.3-.2h.3L1 2l.1.3h.3l-.2.3zm0-1.7l.1.4-.3-.2-.3.2.1-.4L.5.7h.3L1 .3l.1.3h.3l-.2.3zM2 7.1l-.3.1.1-.4-.3-.2h.3l.2-.3.1.3h.3l-.2.3.1.4-.3-.2zm1.3.9L3 7.9l-.3.2.1-.4-.3-.3h.3l.2-.3.1.3h.3l-.2.3.1.3zm-.1-2l.1.4-.3-.2-.3.2V6l-.2-.2h.3l.2-.4.1.3h.3l-.2.3zm0-1.7l.1.4-.3-.2-.3.2.1-.4-.3-.2h.3l.2-.4.1.3h.3l-.2.3zm0-1.7l.1.4-.3-.2-.3.2.1-.4-.3-.2h.3L3 2l.1.3h.3l-.2.3zm0-1.7l.1.4-.3-.2-.3.2.1-.4-.3-.2h.3L3 .3l.1.3h.3l-.2.3zm1.1 6.3L4 7.1l-.3.1.1-.4-.3-.2h.3l.2-.3.1.3h.3l-.2.3.1.3zm-.1-2l.1.4-.3-.2-.3.2.1-.4-.3-.2h.3l.2-.4.1.3h.3l-.2.3zm0-1.7l.1.4-.3-.2-.3.2.1-.4-.3-.2h.3l.2-.4.1.3h.3l-.2.3zm0-1.7l.1.4L4 2l-.3.2.1-.4-.3-.2h.3l.2-.4.1.3h.3l-.2.3zM5.3 8L5 7.9l-.3.2.1-.4-.3-.3h.3l.2-.3.1.3h.3l-.1.3V8zm1-.8L6 7.1l-.3.1.1-.4-.3-.2h.3l.2-.3.1.3h.3l-.2.3.1.3zm-.1-2l.1.4-.3-.2-.3.2.1-.4-.3-.2h.3l.2-.4.1.3h.3l-.2.3zm0-1.7l.1.4-.3-.2-.3.2.1-.4-.3-.2h.3l.2-.4.1.3h.3l-.2.3zm0-1.7l.1.4L6 2l-.3.2.1-.4-.3-.2h.3l.2-.4.1.3h.3l-.2.3zM7.3 8L7 7.9l-.3.2.1-.4-.3-.3h.3l.2-.3.1.3h.3l-.2.3.1.3zm-.1-2l.1.4-.3-.2-.3.2.1-.4-.3-.2h.3l.2-.4.1.3h.3l-.2.3zm0-1.7l.1.4-.3-.2-.3.2.1-.4-.3-.2h.3l.2-.4.1.3h.3l-.2.3zm0-1.7l.1.4-.3-.2-.3.2.1-.4-.3-.2h.3L7 2l.1.3h.3l-.2.3zm0-1.7l.1.4-.3-.2-.3.2.1-.4-.3-.2h.3L7 .3l.1.3h.3l-.2.3zM8 7.1l-.3.1.1-.4-.3-.2h.3l.2-.3.1.3h.3l-.1.3.1.4-.4-.2zm1.3.9L9 7.9l-.3.2.1-.4-.3-.3h.3l.2-.3.1.3h.3l-.2.3.1.3zm-.1-2l.1.4-.3-.2-.3.2.1-.4-.3-.2h.3l.2-.4.1.3h.3l-.2.3zm0-1.7l.1.4-.3-.2-.3.2.1-.4-.3-.2h.3l.2-.4.1.3h.3l-.2.3zm0-1.7l.1.4-.3-.2-.3.2.1-.4-.3-.2h.3L9 2l.1.3h.3l-.2.3zm0-1.7l.1.4-.3-.2-.3.2.1-.4-.3-.2h.3L9 .3l.1.3h.3l-.2.3zm1.1 6.3l-.3-.1-.3.1.1-.4-.3-.2h.3l.2-.3.1.3h.3l-.3.2.2.4zm-.1-2l.1.4-.3-.2-.3.2.1-.4-.3-.2h.3l.2-.4.1.3h.3l-.2.3zm0-1.7l.1.4-.3-.2-.3.2.1-.4-.3-.2h.3l.2-.4.1.3h.3l-.2.3zm0-1.7l.1.4L10 2l-.3.2.1-.4-.3-.2h.3l.2-.4.1.3h.3l-.2.3zM11.4 8l-.4-.1-.3.2.1-.4-.3-.2h.3l.2-.4.1.3h.3l-.3.2.3.4zm-.1-2l.1.4-.4-.2-.3.2.1-.4-.3-.2h.3l.2-.4.1.3h.3l-.1.3zm0-1.7l.1.4-.4-.2-.3.2.1-.4-.3-.2h.3l.2-.4.2.3h.3l-.2.3zm0-1.7l.1.4-.4-.2-.3.2.1-.4-.3-.2h.3L11 2l.1.3h.3l-.1.3zm0-1.7l.1.4-.4-.2-.3.2.1-.4-.3-.2h.3l.2-.4.1.3h.3l-.1.3z"/></svg>