<svg xmlns="http://www.w3.org/2000/svg" viewBox="0 0 30 13"><path d="M-.6-1h31.5v15H-.6z" fill="#de2910"/><path d="M15 6.5c1.9 3.1-1.9 5.8-4.4 3.7.7.1 1.2-.3 1.2-1 0-.8 1-1.3 1.6-1.2 1.1.2 1.9-.6 1.6-1.5h0z" fill="#fff"/><path d="M13.3 9.2l.3-.2-.1.3.2.3h-.3l-.2.3-.1-.3-.3-.1.3-.2v-.4l.2.3zM15 6.5c.2.4.2 1 0 1.5-.2.6-.7 1-1.2 1.3v.1a2.1 2.1 0 0 0 1.3-1.3c.2-.6.2-1.2-.1-1.6h0z" fill="#de2910"/><path d="M15 6.5c-2.4 2.8-6.1 0-4.9-3 .1.7.7 1 1.3.8.7-.2 1.6.6 1.7 1.2.1 1 1.1 1.5 1.9 1h0z" fill="#fff"/><path d="M11.9 5.7l.3.3h-.3l-.2.3-.1-.3-.3-.1.3-.2v-.4l.3.2.3-.1-.3.3zm3.1.8c-.3.3-.8.5-1.4.5s-1.2-.3-1.6-.8l-.1.1c.4.5 1 .8 1.6.8.7 0 1.2-.2 1.5-.6h0z" fill="#de2910"/><path d="M15 6.5c.3-3.5 4.7-3.4 5.5-.4-.5-.5-1.1-.4-1.5.1-.5.6-1.5.5-1.9 0-.7-.7-1.8-.5-2.1.3h0z" fill="#fff"/><path d="M17.8 5.4l-.3-.1.3-.2v-.3l.2.2.3-.1-.1.3.2.3h-.3l-.2.3-.1-.4zM15 6.5c.1-.4.4-.9.8-1.1.5-.3 1.1-.4 1.7-.3V5c-.6-.1-1.2 0-1.7.3S15 6 15 6.5h0z" fill="#de2910"/><path d="M15 6.5c3.4-.8 4.7 3.4 2.1 5.1.3-.6 0-1.2-.6-1.4-.7-.3-.9-1.3-.6-1.8.5-.9 0-1.9-.9-1.9h0z" fill="#fff"/><path d="M16.9 8.8v-.3l.2.2.3-.1-.1.3.2.3h-.3l-.2.2v-.3l-.4-.1.3-.2zM15 6.5c.4-.1.9.1 1.3.4.5.4.8.9.8 1.5h.1c0-.6-.3-1.2-.8-1.6-.4-.3-.9-.4-1.4-.3h0z" fill="#de2910"/><path d="M15 6.5C11.6 5.1 13.1.7 16.3.9c-.6.3-.7 1-.4 1.5.4.6 0 1.7-.6 1.9-.9.5-1 1.6-.3 2.2h0z" fill="#fff"/><path d="M14.8 3.3l-.2.3-.1-.3-.3-.1.3-.2v-.4l.3.2.3-.1-.1.3.2.3h-.4zm.1 3.1c-.4-.2-.7-.6-.8-1.1-.1-.6 0-1.2.3-1.7h-.1c-.3.4-.4 1-.3 1.6.2.6.5 1 .9 1.2h0z" fill="#de2910"/></svg>