<svg width="180" height="61" viewBox="0 0 180 61" fill="none" xmlns="http://www.w3.org/2000/svg">
<path fill-rule="evenodd" clip-rule="evenodd" d="M0 10C0 4.47715 4.47715 0 10 0H170C175.523 0 180 4.47715 180 10L180 20C173.936 20 169.02 24.9161 169.02 30.9804C169.02 37.0447 173.936 41.9608 180 41.9608L180 51C180 56.5229 175.523 61 170 61H10C4.47716 61 0 56.5228 0 51V43.0584C6.06427 43.0584 10.9803 38.1423 10.9803 32.078C10.9803 26.0138 6.06427 21.0977 0 21.0977V10Z" fill="url(#paint0_linear_3321_991)"/>
<path d="M43.224 46.784C42.972 48.086 42.482 49.22 41.754 50.186C41.026 51.138 40.109 51.88 39.003 52.412C37.897 52.93 36.651 53.189 35.265 53.189C34.047 53.189 32.976 52.986 32.052 52.58C31.142 52.174 30.442 51.593 29.952 50.837C29.462 50.081 29.217 49.192 29.217 48.17C29.217 47.694 29.266 47.232 29.364 46.784L31.065 38.279H35.433L33.732 46.784C33.69 47.008 33.669 47.225 33.669 47.435C33.669 48.093 33.858 48.611 34.236 48.989C34.628 49.353 35.146 49.535 35.79 49.535C36.532 49.535 37.183 49.29 37.743 48.8C38.303 48.296 38.667 47.624 38.835 46.784L40.557 38.279H44.925L43.224 46.784ZM53.847 38.279C55.471 38.279 56.717 38.643 57.585 39.371C58.467 40.099 58.908 41.128 58.908 42.458C58.908 43.774 58.614 44.929 58.026 45.923C57.452 46.917 56.619 47.687 55.527 48.233C54.435 48.779 53.154 49.052 51.684 49.052H49.374L48.576 53H44.208L47.148 38.279H53.847ZM52.146 45.671C52.916 45.671 53.525 45.447 53.973 44.999C54.435 44.551 54.666 43.949 54.666 43.193C54.666 42.689 54.519 42.304 54.225 42.038C53.931 41.772 53.504 41.639 52.944 41.639H50.844L50.046 45.671H52.146ZM78.0438 38.279L77.3508 41.765H73.0458L70.7988 53H66.4308L68.6778 41.765H64.4148L65.1078 38.279H78.0438ZM85.5291 38.006C86.9431 38.006 88.2031 38.307 89.3091 38.909C90.4151 39.497 91.2761 40.316 91.8921 41.366C92.5081 42.416 92.8161 43.606 92.8161 44.936C92.8161 46.49 92.4241 47.904 91.6401 49.178C90.8561 50.452 89.7851 51.46 88.4271 52.202C87.0831 52.93 85.5991 53.294 83.9751 53.294C82.5611 53.294 81.3011 52.993 80.1951 52.391C79.0891 51.789 78.2281 50.963 77.6121 49.913C76.9961 48.849 76.6881 47.645 76.6881 46.301C76.6881 44.747 77.0801 43.34 77.8641 42.08C78.6481 40.806 79.7121 39.812 81.0561 39.098C82.4141 38.37 83.9051 38.006 85.5291 38.006ZM85.2141 41.639C84.5281 41.639 83.8701 41.835 83.2401 42.227C82.6241 42.605 82.1271 43.13 81.7491 43.802C81.3711 44.474 81.1821 45.209 81.1821 46.007C81.1821 46.693 81.3221 47.316 81.6021 47.876C81.8961 48.422 82.2881 48.856 82.7781 49.178C83.2681 49.5 83.8071 49.661 84.3951 49.661C85.0951 49.661 85.7461 49.465 86.3481 49.073C86.9501 48.681 87.4261 48.149 87.7761 47.477C88.1401 46.791 88.3221 46.042 88.3221 45.23C88.3221 44.558 88.1891 43.949 87.9231 43.403C87.6571 42.857 87.2861 42.43 86.8101 42.122C86.3341 41.8 85.8021 41.639 85.2141 41.639ZM110.803 41.429C110.803 42.297 110.467 43.172 109.795 44.054C109.123 44.922 108.157 45.888 106.897 46.952L103.747 49.598H109.585L108.913 53H97.5313L98.0563 50.207L104.356 44.789C104.846 44.369 105.245 43.963 105.553 43.571C105.875 43.165 106.043 42.815 106.057 42.521C106.085 42.241 105.994 42.024 105.784 41.87C105.588 41.702 105.294 41.618 104.902 41.618C104.328 41.618 103.649 41.786 102.865 42.122C102.095 42.444 101.311 42.899 100.513 43.487L99.4843 40.337C101.934 38.839 104.188 38.09 106.246 38.09C107.618 38.09 108.717 38.398 109.543 39.014C110.383 39.616 110.803 40.421 110.803 41.429ZM120.867 38.153C122.617 38.153 123.954 38.636 124.878 39.602C125.802 40.568 126.264 41.954 126.264 43.76C126.264 45.636 125.928 47.281 125.256 48.695C124.598 50.109 123.646 51.208 122.4 51.992C121.154 52.762 119.67 53.147 117.948 53.147C116.17 53.147 114.819 52.657 113.895 51.677C112.971 50.697 112.509 49.304 112.509 47.498C112.509 45.622 112.838 43.984 113.496 42.584C114.154 41.17 115.106 40.078 116.352 39.308C117.612 38.538 119.117 38.153 120.867 38.153ZM120.237 41.324C119.243 41.324 118.445 41.807 117.843 42.773C117.241 43.739 116.94 45.335 116.94 47.561C116.94 48.401 117.066 49.01 117.318 49.388C117.584 49.766 117.997 49.955 118.557 49.955C119.537 49.955 120.328 49.472 120.93 48.506C121.532 47.54 121.833 45.944 121.833 43.718C121.833 42.892 121.7 42.29 121.434 41.912C121.182 41.52 120.783 41.324 120.237 41.324ZM132.289 47.267C131.127 47.267 130.203 46.903 129.517 46.175C128.845 45.433 128.509 44.439 128.509 43.193C128.509 42.171 128.705 41.282 129.097 40.526C129.489 39.756 130.042 39.161 130.756 38.741C131.47 38.321 132.289 38.111 133.213 38.111C134.389 38.111 135.313 38.475 135.985 39.203C136.657 39.931 136.993 40.918 136.993 42.164C136.993 43.186 136.797 44.082 136.405 44.852C136.013 45.622 135.46 46.217 134.746 46.637C134.032 47.057 133.213 47.267 132.289 47.267ZM132.52 45.02C133.066 45.02 133.5 44.775 133.822 44.285C134.144 43.781 134.305 43.13 134.305 42.332C134.305 41.716 134.186 41.233 133.948 40.883C133.724 40.519 133.409 40.337 133.003 40.337C132.457 40.337 132.016 40.582 131.68 41.072C131.358 41.562 131.197 42.22 131.197 43.046C131.197 43.648 131.309 44.131 131.533 44.495C131.771 44.845 132.1 45.02 132.52 45.02ZM136.006 53H133.003L143.356 38.279H146.338L136.006 53ZM146.149 53.168C144.987 53.168 144.063 52.804 143.377 52.076C142.705 51.334 142.369 50.34 142.369 49.094C142.369 48.072 142.565 47.183 142.957 46.427C143.349 45.657 143.902 45.062 144.616 44.642C145.33 44.222 146.149 44.012 147.073 44.012C148.249 44.012 149.173 44.376 149.845 45.104C150.517 45.832 150.853 46.819 150.853 48.065C150.853 49.087 150.657 49.983 150.265 50.753C149.873 51.523 149.32 52.118 148.606 52.538C147.892 52.958 147.073 53.168 146.149 53.168ZM146.38 50.921C146.926 50.921 147.36 50.676 147.682 50.186C148.004 49.682 148.165 49.031 148.165 48.233C148.165 47.617 148.046 47.134 147.808 46.784C147.584 46.42 147.269 46.238 146.863 46.238C146.317 46.238 145.876 46.483 145.54 46.973C145.218 47.463 145.057 48.121 145.057 48.947C145.057 49.549 145.169 50.032 145.393 50.396C145.631 50.746 145.96 50.921 146.38 50.921Z" fill="#FFDF01"/>
<path d="M43.4726 15.128H45.0966L44.3686 18.852C43.7992 19.244 43.1832 19.5567 42.5206 19.79C41.8579 20.0233 41.1999 20.14 40.5466 20.14C39.6506 20.14 38.8432 19.9393 38.1246 19.538C37.4059 19.1273 36.8459 18.572 36.4446 17.872C36.0432 17.172 35.8426 16.388 35.8426 15.52C35.8426 14.5213 36.1039 13.6067 36.6266 12.776C37.1492 11.9453 37.8539 11.2873 38.7406 10.802C39.6366 10.3167 40.6119 10.074 41.6666 10.074C42.3666 10.074 43.0432 10.2 43.6966 10.452C44.3592 10.704 44.9146 11.0493 45.3626 11.488L44.1586 12.874C43.8226 12.5287 43.4212 12.258 42.9546 12.062C42.4879 11.8567 42.0072 11.754 41.5126 11.754C40.8406 11.754 40.2152 11.9173 39.6366 12.244C39.0672 12.5707 38.6099 13.014 38.2646 13.574C37.9286 14.1247 37.7606 14.7313 37.7606 15.394C37.7606 15.9633 37.8912 16.4813 38.1526 16.948C38.4232 17.4147 38.7919 17.7833 39.2586 18.054C39.7252 18.3153 40.2526 18.446 40.8406 18.446C41.1672 18.446 41.5126 18.3947 41.8766 18.292C42.2406 18.18 42.5952 18.0307 42.9406 17.844L43.4726 15.128ZM49.2096 13.854C49.5456 13.3967 49.947 13.0513 50.4136 12.818C50.8803 12.5753 51.3983 12.4493 51.9676 12.44L51.7436 14.204L51.5056 14.19C50.8243 14.19 50.2316 14.3907 49.7276 14.792C49.2236 15.184 48.8876 15.6927 48.7196 16.318L47.9776 20H46.1576L47.6416 12.51H49.4756L49.2096 13.854ZM56.2828 12.454C57.0015 12.454 57.6315 12.5987 58.1728 12.888C58.7235 13.168 59.1435 13.5693 59.4328 14.092C59.7315 14.6147 59.8808 15.212 59.8808 15.884C59.8808 16.696 59.6895 17.4193 59.3068 18.054C58.9335 18.6887 58.4155 19.1833 57.7528 19.538C57.0995 19.8927 56.3575 20.07 55.5268 20.07C54.8081 20.07 54.1735 19.9253 53.6228 19.636C53.0815 19.3467 52.6615 18.9453 52.3628 18.432C52.0735 17.9093 51.9288 17.3073 51.9288 16.626C51.9288 15.814 52.1155 15.0953 52.4888 14.47C52.8621 13.8353 53.3801 13.3407 54.0428 12.986C54.7055 12.6313 55.4521 12.454 56.2828 12.454ZM56.1428 14.008C55.6948 14.008 55.2888 14.1153 54.9248 14.33C54.5701 14.5447 54.2901 14.8433 54.0848 15.226C53.8795 15.6087 53.7768 16.0427 53.7768 16.528C53.7768 17.1347 53.9495 17.6247 54.2948 17.998C54.6401 18.362 55.0975 18.544 55.6668 18.544C56.1148 18.544 56.5161 18.4367 56.8708 18.222C57.2255 18.0073 57.5055 17.7087 57.7108 17.326C57.9161 16.9433 58.0188 16.5093 58.0188 16.024C58.0188 15.4267 57.8461 14.9413 57.5008 14.568C57.1648 14.1947 56.7121 14.008 56.1428 14.008ZM63.7418 20.098C62.9018 20.098 62.2392 19.8833 61.7538 19.454C61.2778 19.0153 61.0398 18.4273 61.0398 17.69C61.0398 17.438 61.0678 17.1813 61.1238 16.92L62.0058 12.51H63.8398L63.0138 16.654C62.9858 16.8033 62.9718 16.9527 62.9718 17.102C62.9718 17.522 63.1025 17.8533 63.3638 18.096C63.6252 18.3387 63.9892 18.46 64.4558 18.46C64.9878 18.46 65.4545 18.278 65.8558 17.914C66.2665 17.55 66.5325 17.0693 66.6538 16.472L67.4658 12.51H69.2858L67.8158 20H65.9678L66.1778 18.936C65.5898 19.7107 64.7778 20.098 63.7418 20.098ZM75.7954 12.44C76.3927 12.44 76.9201 12.58 77.3774 12.86C77.8441 13.14 78.2034 13.532 78.4554 14.036C78.7167 14.54 78.8474 15.1187 78.8474 15.772C78.8474 16.5747 78.6701 17.3073 78.3154 17.97C77.9607 18.6233 77.4754 19.1413 76.8594 19.524C76.2527 19.8973 75.5714 20.084 74.8154 20.084C74.1807 20.084 73.6487 19.9533 73.2194 19.692C72.7901 19.4213 72.4727 19.0293 72.2674 18.516L71.4134 22.716H69.6074L71.6374 12.51H73.4574L73.2474 13.532C73.5834 13.1867 73.9661 12.9207 74.3954 12.734C74.8341 12.538 75.3007 12.44 75.7954 12.44ZM75.1514 13.924C74.7034 13.924 74.2927 14.0407 73.9194 14.274C73.5461 14.5073 73.2521 14.8247 73.0374 15.226C72.8227 15.618 72.7154 16.052 72.7154 16.528C72.7154 17.116 72.8834 17.5873 73.2194 17.942C73.5554 18.2967 73.9987 18.474 74.5494 18.474C74.9974 18.474 75.4081 18.3573 75.7814 18.124C76.1641 17.8907 76.4627 17.578 76.6774 17.186C76.9014 16.7847 77.0134 16.3507 77.0134 15.884C77.0134 15.296 76.8407 14.8247 76.4954 14.47C76.1594 14.106 75.7114 13.924 75.1514 13.924ZM88.9787 10.2C89.8654 10.2 90.64 10.3773 91.3027 10.732C91.9747 11.0773 92.4927 11.5673 92.8567 12.202C93.2207 12.8273 93.4027 13.546 93.4027 14.358C93.4027 15.4127 93.1367 16.3693 92.6047 17.228C92.0727 18.0867 91.3494 18.7633 90.4347 19.258C89.5294 19.7527 88.5307 20 87.4387 20H83.1967L85.1427 10.2H88.9787ZM91.4707 14.596C91.4707 14.064 91.354 13.5927 91.1207 13.182C90.8874 12.762 90.5607 12.4353 90.1407 12.202C89.73 11.9687 89.254 11.852 88.7127 11.852H86.6967L85.3947 18.348H87.7887C88.442 18.348 89.0487 18.1847 89.6087 17.858C90.178 17.5313 90.6307 17.0833 90.9667 16.514C91.3027 15.9447 91.4707 15.3053 91.4707 14.596ZM97.2722 12.51L95.7742 20H93.9682L95.4522 12.51H97.2722ZM96.9782 9.29C97.2302 9.29 97.4355 9.374 97.5942 9.542C97.7528 9.71 97.8322 9.92467 97.8322 10.186C97.8322 10.5407 97.7062 10.844 97.4542 11.096C97.2022 11.3387 96.9082 11.46 96.5722 11.46C96.3202 11.46 96.1148 11.376 95.9562 11.208C95.7975 11.04 95.7182 10.8253 95.7182 10.564C95.7182 10.2093 95.8442 9.91067 96.0962 9.668C96.3482 9.416 96.6422 9.29 96.9782 9.29ZM100.884 20.084C100.222 20.084 99.5731 19.9533 98.9384 19.692C98.3037 19.4307 97.8091 19.09 97.4544 18.67L98.2384 17.48C98.5557 17.8253 98.9571 18.11 99.4424 18.334C99.9277 18.558 100.385 18.67 100.814 18.67C101.16 18.67 101.435 18.6 101.64 18.46C101.846 18.3107 101.948 18.1147 101.948 17.872C101.948 17.6573 101.846 17.48 101.64 17.34C101.435 17.2 101.118 17.046 100.688 16.878C100.259 16.7007 99.9044 16.5373 99.6244 16.388C99.3537 16.2387 99.1204 16.0287 98.9244 15.758C98.7284 15.4873 98.6304 15.1513 98.6304 14.75C98.6304 14.2927 98.7471 13.8913 98.9804 13.546C99.2137 13.2007 99.5404 12.93 99.9604 12.734C100.38 12.538 100.866 12.44 101.416 12.44C101.976 12.44 102.536 12.5427 103.096 12.748C103.666 12.944 104.142 13.21 104.524 13.546L103.656 14.75C103.292 14.4793 102.905 14.2647 102.494 14.106C102.084 13.938 101.72 13.854 101.402 13.854C101.113 13.854 100.87 13.924 100.674 14.064C100.488 14.204 100.394 14.3767 100.394 14.582C100.394 14.7873 100.492 14.9553 100.688 15.086C100.884 15.2073 101.202 15.3613 101.64 15.548C102.088 15.7347 102.452 15.9073 102.732 16.066C103.012 16.2153 103.255 16.43 103.46 16.71C103.666 16.9807 103.768 17.3213 103.768 17.732C103.768 18.1893 103.647 18.5953 103.404 18.95C103.162 19.3047 102.821 19.5847 102.382 19.79C101.944 19.986 101.444 20.084 100.884 20.084ZM108.433 20.07C107.752 20.07 107.15 19.93 106.627 19.65C106.114 19.3607 105.712 18.9593 105.423 18.446C105.143 17.9233 105.003 17.326 105.003 16.654C105.003 15.842 105.185 15.1187 105.549 14.484C105.913 13.84 106.412 13.3407 107.047 12.986C107.691 12.6313 108.41 12.454 109.203 12.454C109.884 12.454 110.482 12.5753 110.995 12.818C111.508 13.0513 111.919 13.3873 112.227 13.826L111.009 14.876C110.561 14.3253 109.936 14.05 109.133 14.05C108.704 14.05 108.312 14.1573 107.957 14.372C107.612 14.5773 107.336 14.8667 107.131 15.24C106.935 15.6133 106.837 16.0427 106.837 16.528C106.837 17.116 107.005 17.592 107.341 17.956C107.677 18.32 108.12 18.502 108.671 18.502C109.567 18.502 110.267 18.208 110.771 17.62L111.821 18.558C111.438 19.0433 110.958 19.4167 110.379 19.678C109.81 19.9393 109.161 20.07 108.433 20.07ZM117.259 12.454C117.978 12.454 118.608 12.5987 119.149 12.888C119.7 13.168 120.12 13.5693 120.409 14.092C120.708 14.6147 120.857 15.212 120.857 15.884C120.857 16.696 120.666 17.4193 120.283 18.054C119.91 18.6887 119.392 19.1833 118.729 19.538C118.076 19.8927 117.334 20.07 116.503 20.07C115.785 20.07 115.15 19.9253 114.599 19.636C114.058 19.3467 113.638 18.9453 113.339 18.432C113.05 17.9093 112.905 17.3073 112.905 16.626C112.905 15.814 113.092 15.0953 113.465 14.47C113.839 13.8353 114.357 13.3407 115.019 12.986C115.682 12.6313 116.429 12.454 117.259 12.454ZM117.119 14.008C116.671 14.008 116.265 14.1153 115.901 14.33C115.547 14.5447 115.267 14.8433 115.061 15.226C114.856 15.6087 114.753 16.0427 114.753 16.528C114.753 17.1347 114.926 17.6247 115.271 17.998C115.617 18.362 116.074 18.544 116.643 18.544C117.091 18.544 117.493 18.4367 117.847 18.222C118.202 18.0073 118.482 17.7087 118.687 17.326C118.893 16.9433 118.995 16.5093 118.995 16.024C118.995 15.4267 118.823 14.9413 118.477 14.568C118.141 14.1947 117.689 14.008 117.119 14.008ZM124.718 20.098C123.878 20.098 123.216 19.8833 122.73 19.454C122.254 19.0153 122.016 18.4273 122.016 17.69C122.016 17.438 122.044 17.1813 122.1 16.92L122.982 12.51H124.816L123.99 16.654C123.962 16.8033 123.948 16.9527 123.948 17.102C123.948 17.522 124.079 17.8533 124.34 18.096C124.602 18.3387 124.966 18.46 125.432 18.46C125.964 18.46 126.431 18.278 126.832 17.914C127.243 17.55 127.509 17.0693 127.63 16.472L128.442 12.51H130.262L128.792 20H126.944L127.154 18.936C126.566 19.7107 125.754 20.098 124.718 20.098ZM136.618 12.412C137.458 12.412 138.116 12.6313 138.592 13.07C139.077 13.4993 139.32 14.0827 139.32 14.82C139.32 15.0627 139.292 15.3193 139.236 15.59L138.354 20H136.52L137.346 15.856C137.374 15.6973 137.388 15.548 137.388 15.408C137.388 14.988 137.257 14.6567 136.996 14.414C136.735 14.1713 136.371 14.05 135.904 14.05C135.372 14.05 134.901 14.232 134.49 14.596C134.089 14.96 133.827 15.4407 133.706 16.038L132.894 20H131.074L132.544 12.51H134.392L134.182 13.574C134.77 12.7993 135.582 12.412 136.618 12.412ZM142.988 17.606C142.96 17.7553 142.946 17.8813 142.946 17.984C142.946 18.1707 142.988 18.3013 143.072 18.376C143.165 18.4413 143.305 18.474 143.492 18.474C143.781 18.474 144.173 18.362 144.668 18.138L144.92 19.58C144.304 19.916 143.664 20.084 143.002 20.084C142.432 20.084 141.97 19.9347 141.616 19.636C141.27 19.328 141.098 18.894 141.098 18.334C141.098 18.138 141.116 17.9467 141.154 17.76L141.882 14.148H140.846L141.098 12.818H142.148L142.554 10.76H144.374L143.954 12.818H146.096L145.858 14.148H143.688L142.988 17.606Z" fill="white"/>
<path d="M11 31H169" stroke="#DEE5EC" stroke-opacity="0.5" stroke-dasharray="3 3"/>
<defs>
<linearGradient id="paint0_linear_3321_991" x1="93" y1="2" x2="93" y2="50.5" gradientUnits="userSpaceOnUse">
<stop stop-color="#597CF6"/>
<stop offset="1" stop-color="#4F16A6"/>
</linearGradient>
</defs>
</svg>
