<svg xmlns="http://www.w3.org/2000/svg" viewBox="0 0 75 75" xmlns:v="https://vecta.io/nano"><path d="M7.1 52.4h11.3v18.4H7.1zm17-7.1h11.3v25.5H24.1zm15.5-9.9h11.3v33.9H39.6zm17-4.3h11.3v39.7H56.6z" fill="#ffe8c0"/><path d="M74.3 70v4.3H.7V70z" fill="#407093"/><path d="M65.7 1.4H54.1v4.8h6.1L47.9 18.8h-9.6c-.7 0-1.3.3-1.7.7L22.9 34.8H7.2v4.8h16.6c.7 0 1.3-.3 1.7-.7l13.7-15.3h9.6a2.61 2.61 0 0 0 1.7-.7L63.4 9.6v6.2h4.7v-12c-.2-1.3-1.2-2.4-2.4-2.4z" fill="#e8ae4d"/><path d="M73.9 68.1h-4.5V50.9c0-.6-.4-1.1-1.1-1.1s-1.1.4-1.1 1.1V68h-9.6V30.3h9.6v15.4c0 .6.4 1.1 1.1 1.1s1.1-.4 1.1-1.1V29.2c0-.6-.4-1.1-1.1-1.1H56.4c-.6 0-1.1.4-1.1 1.1v38.9h-2.5v-33c0-.6-.4-1.1-1.1-1.1H39.8c-.6 0-1.1.4-1.1 1.1v33h-2.5V44c0-.6-.4-1.1-1.1-1.1H23.2c-.6 0-1.1.4-1.1 1.1v24.1h-2.5v-17c0-.6-.4-1.1-1.1-1.1H7c-.6 0-1.1.4-1.1 1.1v17H1.5c-.6 0-1.1.4-1.1 1.1v4.7c0 .7.4 1.1 1.1 1.1h11.9c.6 0 1.1-.4 1.1-1.1s-.4-1.1-1.1-1.1H2.6v-2.5h70.6v2.5H18.4c-.6 0-1.1.4-1.1 1.1s.4 1.1 1.1 1.1h55.8c.6 0 1.1-.4 1.1-1.1v-4.7c-.3-.7-.7-1.1-1.4-1.1zm-33-31.9h9.6V68h-9.6V36.2zm-16.6 8.9h9.6V68h-9.6V45.1zM7.8 52.2h9.6V68H7.8V52.2zM6.5 40h16.7c1 0 1.8-.4 2.5-1.1L39.4 24h9.3a3.31 3.31 0 0 0 2.4-1l11.2-11.2v3.5c0 .6.4 1.1 1.1 1.1h4.7c.6 0 1.1-.4 1.1-1.1v-12c0-1.8-1.6-3.4-3.4-3.4H53.9c-.6 0-1.1.4-1.1 1.1v4.7c0 .6.4 1.1 1.1 1.1h3.5L47.2 17h-9.3c-1 0-1.8.4-2.5 1.1L21.8 33h-3c-.6 0-1.1.4-1.1 1.1 0 .6.4 1.1 1.1 1.1h3.5c.3 0 .6-.1.8-.4l13.7-15.1c.3-.3.6-.4 1-.4h9.8c.3 0 .6-.1.7-.3L60.8 6.5c.3-.3.4-.8.3-1.1-.1-.4-.6-.7-1-.7H55V2.2h10.8c.7 0 1.3.6 1.3 1.3v10.6h-2.5v-5c0-.4-.3-.8-.7-1-.4-.1-.8-.1-1.1.3L49.6 21.6c-.3.3-.6.4-.8.4H39c-.3 0-.6.1-.8.4l-14 15.3c-.3.3-.6.4-1 .4H7.6v-2.8h5.9c.6 0 1.1-.4 1.1-1.1 0-.6-.4-1.1-1.1-1.1H6.4c-.6 0-1.1.4-1.1 1.1v4.7c.2.7.6 1.1 1.2 1.1h0z"/></svg>