<svg xmlns="http://www.w3.org/2000/svg" viewBox="0 0 75 75" xmlns:v="https://vecta.io/nano"><path d="M49.5 5.9H5.8c-1.3 0-2.5.6-3.4 1.4S1 9.4 1 10.8v59c0 2.7 2.1 4.9 4.8 4.9h43.7a4.91 4.91 0 0 0 4.9-4.9v-59c0-2.8-2.2-4.9-4.9-4.9zM12 15.4c-1.5 0-2.7-1.3-2.7-2.7S10.6 10 12 10c1.5 0 2.7 1.3 2.7 2.7 0 .7-.3 1.4-.8 2-.5.5-1.2.7-1.9.7h0zm10.1 0c-1.5 0-2.7-1.3-2.7-2.7s1.3-2.7 2.7-2.7c1.5 0 2.7 1.3 2.7 2.7 0 .7-.3 1.4-.8 2-.5.5-1.2.7-1.9.7h0zm10.1 0c-1.5 0-2.7-1.3-2.7-2.7s1.3-2.7 2.7-2.7 2.7 1.3 2.7 2.7c0 .7-.3 1.4-.8 2-.6.6-1.2.7-1.9.7h0zm10.1 0c-1.5 0-2.7-1.3-2.7-2.7s1.3-2.7 2.7-2.7 2.7 1.3 2.7 2.7c0 .7-.3 1.4-.8 2-.5.5-1.2.7-1.9.7h0z" fill="#90d7ef"/><g fill="#407093"><path d="M54.3 59.3l-10.3 7-2.2-3.5 25.8-17.6 2.3 3.5z"/><path d="M67.1 45.9L41.2 63.5 38.9 60l14.8-10 11.1-7.6z"/></g><path d="M38.5 59.3l-.1.1-3.7 6.9 8.5-.3z" fill="#c79a83"/><path d="M24.9 27.1h24.2a.94.94 0 0 0 1-1 .94.94 0 0 0-1-1H24.9a.94.94 0 0 0-1 1c0 .4.4 1 1 1z"/><path d="M15.2 25.8l-2.1 2.1-.8-.8c-.3-.3-.6-.4-1-.3s-.7.3-.8.7c-.1.3 0 .7.3 1l1.5 1.5c.4.4 1 .4 1.4 0l2.8-2.7c.3-.3.4-.6.3-1-.1-.3-.3-.6-.7-.7-.3 0-.8.1-.9.2h0zm-1.6-4.5c-2.7 0-5.1 1.5-6 4.1-1 2.5-.4 5.3 1.4 7.2s4.6 2.4 7.2 1.4 4.1-3.4 4.1-6c-.2-3.7-3-6.7-6.7-6.7h0zm0 11.3C11.1 32.6 9 30.5 9 28s2.1-4.6 4.6-4.6 4.6 2.1 4.6 4.6c.1 2.5-2 4.6-4.6 4.6h0z" fill="#284268"/><path d="M24.9 43.3h24.2a.94.94 0 0 0 1-1 .94.94 0 0 0-1-1H24.9a.94.94 0 0 0-1 1 .94.94 0 0 0 1 1z"/><path d="M15.2 42.1l-2.1 2.1-.8-.8c-.3-.3-.6-.4-1-.3a1.21 1.21 0 0 0-.7.7c-.1.3 0 .7.3 1l1.4 1.4c.4.4 1 .4 1.4 0l2.8-2.7c.3-.3.4-.6.3-1-.1-.3-.3-.6-.7-.7-.3-.1-.8.1-.9.3h0zm-1.6-4.6c-2.7 0-5.1 1.5-6 4.1s-.4 5.3 1.4 7.2 4.6 2.4 7.2 1.4 4.1-3.4 4.1-6c-.2-3.6-3-6.7-6.7-6.7h0zm0 11.4c-1.8 0-3.5-1.1-4.2-2.8s-.3-3.8 1-5.1 3.4-1.7 5.1-1 2.8 2.4 2.8 4.4c0 2.4-2.1 4.5-4.7 4.5h0zm1.6 9.4l-2.1 2.1-.8-.8c-.4-.3-.7-.4-1.1-.3-.3 0-.6.3-.7.7s0 .7.3 1l1.5 1.5c.4.4 1 .4 1.4 0l2.8-2.7c.3-.3.4-.6.3-1-.1-.3-.3-.6-.7-.7a1.1 1.1 0 0 0-.9.2h0zm-1.6-4.5c-2.7 0-5.1 1.5-6 4.1-1 2.5-.4 5.3 1.4 7.2s4.6 2.4 7.2 1.4 4.1-3.4 4.1-6c-.2-3.7-3-6.7-6.7-6.7h0zm0 11.2C11.1 65 9 62.9 9 60.4s2.1-4.6 4.6-4.6 4.6 2.1 4.6 4.6c.1 2.5-2 4.6-4.6 4.6h0z" fill="#284268"/><path d="M24.9 30.3h12.9a.94.94 0 0 0 1-1 .94.94 0 0 0-1-1H24.9a.94.94 0 0 0-1 1 .94.94 0 0 0 1 1h0zm0 16.2h12.9a.94.94 0 0 0 1-1 .94.94 0 0 0-1-1H24.9a.94.94 0 0 0-1 1 .94.94 0 0 0 1 1z"/><path d="M5.6 11.1a.94.94 0 0 0-1 1v1a.94.94 0 0 0 1 1c.6 0 1-.3 1-.8v-1.1c0-.6-.4-1.1-1-1.1h0zm0 4.2a.94.94 0 0 0-1 1v9.4a.94.94 0 0 0 1 1c.6 0 1-.6 1-1v-9.4a.94.94 0 0 0-1-1h0z" fill="#284268"/><path d="M69.9 39.3c-1.3-.3-2.7 0-3.8.7l-9.8 6.6V10.1c0-3.2-2.7-5.8-5.9-5.8h-6V1.2a.94.94 0 0 0-1-1 .94.94 0 0 0-1 1v3.1H34V1.2a.94.94 0 0 0-1-1 .94.94 0 0 0-1 1v3.1h-8V1.2a.94.94 0 0 0-1-1c-.6 0-1 .6-1 1v3.1h-8.1V1.2c0-.4-.4-1-1-1s-1 .6-1 1v3.1H6.7c-1.5 0-3 .6-4.1 1.7a5.66 5.66 0 0 0-1.7 4.1v58.6c0 3.2 2.5 5.9 5.8 5.9h43.6c3.2 0 5.9-2.7 5.9-5.9v-10l15.5-10.3c1.7-1.1 2.5-3.2 2.2-5.2-.4-1.9-1.9-3.5-4-3.9zM43.2 10.4c1 0 1.7.7 1.7 1.7s-.7 1.8-1.7 1.8-1.7-.7-1.7-1.7.8-1.8 1.7-1.8h0zm-10 0c1 0 1.7.7 1.7 1.7s-.7 1.7-1.7 1.7-1.7-.7-1.7-1.7c-.1-.9.7-1.7 1.7-1.7h0zm-10.1 0c1 0 1.7.7 1.7 1.7s-.7 1.7-1.7 1.7-1.7-.7-1.7-1.7c0-.9.7-1.7 1.7-1.7h0zm-10.2 0c1 0 1.7.7 1.7 1.7s-.7 1.7-1.7 1.7-1.7-.7-1.7-1.5c.1-1.1.8-1.9 1.7-1.9h0zm41.4 58.3c0 2.1-1.7 3.9-3.9 3.9H6.8c-2.1 0-3.8-1.8-3.8-3.9V10.1c0-1 .4-2 1.1-2.7s1.7-1.1 2.7-1.1H12v2.4c-1.4.4-2.7 1.8-2.7 3.5a3.76 3.76 0 0 0 3.7 3.7 3.76 3.76 0 0 0 3.7-3.7c0-1.7-1.1-3.1-2.7-3.5V6.3h8.2v2.4c-1.5.4-2.7 1.8-2.7 3.5a3.76 3.76 0 0 0 3.7 3.7 3.76 3.76 0 0 0 3.7-3.7c0-1.7-1.1-3.1-2.7-3.5V6.3h8v2.4c-1.4.4-2.7 1.8-2.7 3.5 0 1.3.7 2.5 1.8 3.2s2.5.7 3.7 0c1.1-.7 1.8-1.8 1.8-3.2 0-1.7-1.1-3.1-2.7-3.5V6.3h8.3v2.4c-1.5.4-2.7 1.8-2.7 3.5a3.76 3.76 0 0 0 3.7 3.7 3.76 3.76 0 0 0 3.7-3.7c0-1.7-1.3-3.1-2.7-3.5V6.3h6c2.1 0 3.9 1.7 3.9 3.8v37.8l-3.7 2.4c-.3.1-.4.4-.4.7s0 .6.1.7c.3.4.8.6 1.3.3l14.5-9.6 1.1 1.8-24.3 16-1.1-1.8 4.6-3.1c.4-.3.6-.8.3-1.4-.3-.4-.8-.6-1.4-.3L40 57.1h0-.1 0-15a.94.94 0 0 0-1 1 .94.94 0 0 0 1 1h13.6l-.7 1.3h-.1-12.8a.94.94 0 0 0-1 1 .94.94 0 0 0 1 1h11.9l-1.1 2.5c-.1.3-.1.7 0 1s.4.4.8.4h0l8.2-.3h0 0 .1 0 .2 0 .1 0l8.9-5.9v8.6h.3zM43 64.2l-4.8.1 2.1-4.1 2.7 4zm2.1-.4h0L44 62l24.5-16.2 1.1 1.8-24.5 16.2zM71 46.5l-3.4-5.1c.8-.4 1.8-.3 2.5.1.3.1.4.3.7.4.7.6 1 1.4 1.1 2.2.1 1-.2 1.8-.9 2.4z"/></svg>