<svg xmlns="http://www.w3.org/2000/svg" viewBox="0 0 75 75" xmlns:v="https://vecta.io/nano"><path d="M0 72.4h75V75H0z" fill="#e0d2c1"/><path d="M21.1 6.6h35.5v67.1H21.1z" fill="#c34d58"/><path d="M26.3 2.6h25v2.6h-25z" fill="#ffe3e6"/><path d="M26.4 11.8h5v5h-5zm9.9 0h5v5h-5zm10 0h5v5h-5zM26.4 22h5v5h-5zm9.9 0h5v5h-5zm10 0h5v5h-5zM26.4 32.1h5v5h-5zm9.9 0h5v5h-5zm10 0h5v5h-5zm-19.9 10h5v5h-5zm9.9 0h5v5h-5zm10 0h5v5h-5zM26.4 52.2h5v5h-5zm9.9 0h5v5h-5zm10 0h5v5h-5zm-15 11.4h14.9v10.1H31.3z" fill="#fff"/><path d="M36.8 63.2h2.6v10.5h-2.6z" fill="#61acc9"/><path d="M14.2 53.8c.3-.9.4-1.8.1-2.8-.5-1.7-2-3.2-3.8-3.6-2.8-.7-5.7.9-6.3 3.7-.1.4-.1.8-.1 1.2s0 .9.1 1.3c.5 1.8.4 3.8-.7 5.5-1.8 3-.8 6.7 2.4 8.4s7.1.7 8.9-2.2c1.2-1.8 1.2-4.1.1-6.1-1-1.6-1.2-3.5-.7-5.4z" fill="#deeec0"/><path d="M7.9 52.6h2.6V75H7.9z" fill="#79a125"/><path d="M72.1 53.8c.3-.9.4-1.8.1-2.8-.5-1.7-2-3.2-3.8-3.6-2.8-.7-5.7.9-6.3 3.7-.1.5-.1.9-.1 1.3s0 .9.1 1.3c.5 1.8.4 3.8-.7 5.5-1.8 2.9-.8 6.7 2.4 8.4s7.1.7 8.9-2.2c1.2-1.8 1.2-4.1.1-6.1-1-1.7-1.2-3.6-.7-5.5z" fill="#deeec0"/><path d="M65.8 52.6h2.6V75h-2.6z" fill="#79a125"/><path d="M72.2 68.3c2.8-2.2 3.6-6.2 1.8-9.3-.8-1.3-1.1-3-.7-4.5.4-1.2.4-2.4.1-3.6-.5-2.2-2.4-3.9-4.6-4.5-3.3-.8-6.7 1.2-7.5 4.6a5.8 5.8 0 0 0 0 3.2c.5 1.6.3 3.2-.5 4.6-2.1 3.6-.8 8.2 2.8 10.3.7.4 1.4.7 2.1.8h.4v2.6h-10V6.2c.1-.7-.4-1.2-1.1-1.2h-3.7V1.2c0-.7-.5-1.2-1.2-1.2h-25c-.7 0-1.2.5-1.2 1.2V5h-3.8c-.7 0-1.2.5-1.2 1.2v66.3h-10v-2.6c4.1-.7 6.8-4.6 6.2-8.7-.1-.8-.4-1.6-.8-2.2-.8-1.3-1.1-3-.7-4.5.4-1.2.4-2.4.1-3.6-.5-2.2-2.4-3.9-4.6-4.5-3.3-.8-6.7 1.2-7.5 4.6a5.8 5.8 0 0 0 0 3.2c.5 1.6.3 3.2-.5 4.6C-1 62.4.3 67 3.9 69.1c.7.4 1.4.7 2.1.8h.4v2.6H0V75h75v-2.5h-6.2v-2.6c1.2-.2 2.4-.8 3.4-1.6zm-65.9-.9C3.7 66.7 2 64 2.7 61.3c.2-.4.3-.9.6-1.3 1.1-2 1.3-4.3.7-6.6-.1-.3-.1-.7-.1-.9 0-1.2.5-2.2 1.4-2.9.7-.5 1.4-.8 2.4-.8.3 0 .7 0 .9.1 2 .5 3.3 2.5 2.8 4.5 0 .1 0 .1-.1.3-.7 2.2-.3 4.5.8 6.4.4.7.5 1.6.5 2.4 0 2.2-1.6 4.2-3.8 4.9V52.5H6.2v14.9h.1zm20-64.9h22.5V5H26.3V2.5zm10 70h-5V65h5v7.5zm7.5 0h-5V65h5v7.5zm10 0h-7.5v-8.7c0-.7-.5-1.2-1.2-1.2h-15c-.7 0-1.2.5-1.2 1.2v8.7h-7.5v-65h32.5v65h-.1zm12.5-20v14.9c-2.6-.7-4.3-3.4-3.6-6.1.1-.4.3-.9.5-1.3 1.1-2 1.3-4.3.7-6.6-.1-.3-.1-.7-.1-.9 0-1.2.5-2.2 1.4-2.9.7-.5 1.4-.8 2.4-.8.3 0 .7 0 .9.1 2 .5 3.3 2.5 2.8 4.5 0 .1 0 .1-.1.3h0c-.7 2.2-.3 4.5.8 6.4.4.7.5 1.6.5 2.4 0 2.2-1.6 4.2-3.8 4.9V52.5h-2.4 0z"/></svg>