<svg xmlns="http://www.w3.org/2000/svg" xmlns:xlink="http://www.w3.org/1999/xlink" viewBox="0 0 75 75" xmlns:v="https://vecta.io/nano"><g fill="#abc290"><path d="M45.516 13.1s7-9.2 4.9-11.7c-.7-.8-1.3.3-2.7.3-1.7 0-1.7-1.1-3.4-1.1s-1.7 1.1-3.4 1.1-1.7-1.1-3.4-1.1-1.7 1.1-3.4 1.1c-1.4 0-2-1.3-2.7-.3-1.8 2.5 5 11.7 5 11.7-30.2 20.1-20.4 47.6-2.5 47.6h14.1c18.1.1 27.8-27.3-2.5-47.6z"/><path d="M45.516 13.1s7-9.2 4.9-11.7c-.7-.8-1.3.3-2.7.3-1.7 0-1.7-1.1-3.4-1.1s-1.7 1.1-3.4 1.1h-.3c-.7 2.9-3.6 7.4-5.3 9.8.7 1 1.1 1.7 1.1 1.7l-1.1.8c28.8 20.1 19.1 46.8 1.5 46.8h11.2c18.1 0 27.8-27.4-2.5-47.7h0z"/></g><path d="M46.716 16.4c-4.1 1-8 1-12 0-1.4-.4-2.2-2-1.7-3.5h0c.4-1.3 1.7-2 2.8-1.7 3.4.8 6.4.8 9.8 0 1.1-.3 2.4.4 2.8 1.7h0c.6 1.5-.3 3-1.7 3.5h0z" fill="#ffe07d"/><g fill="#ffddce"><use xlink:href="#B"/><use xlink:href="#B"/></g><path d="M70.846 52.731c-1.1-1.7-2.8-2-4.8-1l-5.3 2.4c.3.4.4.7.4.7 1 1.5.7 3.5-.6 4.6l-11.6 7.4c-1.5.7-3.2 1.1-4.9 1.1h-15.7c-1.4 0-2.8-.3-4.1-.7l-15.3-5.8v3.9l15.4 5.9c1.3.6 2.7.7 4.1.7h12.9 2.9c2.2 0 4.3-.7 6.3-1.8l19.8-12.7c1.2-1.2 1.4-3.2.5-4.7h0z" fill="#ffcbbe"/><path d="M12.2 68.553c0 1.1-.8 2.1-2 2.1H5.3c-1.1 0-2.1-1-2.1-2.1v-25.2c.1-1.1.9-2.1 2-2.1h5c1.1 0 2 1 2 2.1v25.2z" fill="#407093"/><path d="M72.3 53.4c-1.4-2.1-3.6-2.5-6.1-1.4l-1.4.6c2.1-4.5 2.4-9.6 1.3-14.4-1.3-5.4-4.1-10.8-8.7-15.8a1.09 1.09 0 0 0-1.5 0 1.09 1.09 0 0 0 0 1.5c4.3 4.8 7 9.6 8.1 14.8 1.1 5.4.6 10.9-2.5 15.4l-13.4 6v-1.5-.1c-.3-3.1-2.7-5.6-5.7-6h0l-12-1.5c-4.6-.7-5.7-3.4-11.9-5-.4-3.6.1-7.5 1.7-11.5 2.4-5.9 7-11.6 13.3-16.6 2.4 1.7 13 2 15.4-.3 1.3 1 2.4 2 3.5 2.9.1.1.4.3.7.3s.6-.1.8-.4c.4-.4.4-1.1-.1-1.5-1.1-1.1-2.5-2.1-3.8-3.1.3-1.4-.1-2.9-1.3-3.9C52 6.7 53 3.4 51.6 1.5c-1-1.3-2.1-.7-2.5-.4-.8.4-1.3.4-2.1-.1-1.4-1-3.1-1-4.5 0-.8.6-1.4.6-2.2 0-1.4-1-3.1-1-4.5 0-.8.6-1.3.4-2.1 0-.4 0-1.7-.6-2.5.7-1.4 1.7-.6 4.9 2.7 9.9-.1.1-.4.3-.6.4-1.3-1.4-3.4-2.6-6.3-2.4-2.5.3-4.2-.6-5.3-1.3-.6-.2-1.1-.1-1.5.4-.3.5-.2 1.1.2 1.5 1.4 1 3.6 2 6.7 1.7 2.2-.3 3.8 1 4.8 2.1v.1c-.8 0-2.1.1-3.4.4-3.2.7-5.7 2.2-7 4.5-.2.6-.1 1.1.5 1.5.6.3 1.1.1 1.5-.4 2-3.4 6.7-3.8 8.7-3.8v.1c-6.7 5.4-11.5 11.3-14 17.6-1.5 4.1-2.2 8-2 11.9-1-.1-2.1-.3-3.1-.3v-.7c0-1.7-1.4-3.2-3.1-3.2H5c-1.7 0-3.1 1.4-3.1 3.2v25.3c0 1.7 1.4 3.2 3.1 3.2h5c1.7 0 3.1-1.4 3.1-3.2v-.3L23.9 74c1.4.6 2.9.8 4.5.8h16.1c2.5 0 4.9-.7 6.8-2l20.1-13c1.7-1.8 2.1-4.5.9-6.4h0zm-25.5-37a22.8 22.8 0 0 1-11.6 0c-1.7-.4-1.3-3.5.6-3.1 3.5.8 7 .8 10.5 0 1.7-.4 2.2 2.6.5 3.1zM32.7 3.2h0c1.5.7 2.8.8 4.2-.1 1.8-1.3 2.1.7 4.5.7 1.1 0 1.8-.4 2.2-.7.8-.6 1.4-.6 2.2 0 1.5 1 2.7 1 4.2.1.3.8-.3 3.2-3.5 8-1.5 0-3.9 1.5-10.3.1-3.2-4.9-3.7-7.4-3.5-8.1h0zM70 57.8L50 70.7a10.82 10.82 0 0 1-5.7 1.7H28.4c-1.3 0-2.5-.3-3.8-.7l-11.4-4.4V55.6c0-.6-.4-1.1-1.1-1.1-.6 0-1.1.4-1.1 1.1v14.3a.94.94 0 0 1-1 1H5.1a.94.94 0 0 1-1-1V44.7a.94.94 0 0 1 1-1H10a.94.94 0 0 1 1 1v5.9c0 .6.4 1.1 1.1 1.1s1.1-.4 1.1-1.1v-3.1c8.9 0 10.9 4.8 16.9 5.7h0L42 54.6c2.1.3 3.6 2 3.9 4.1v2.1h-11c-.6 0-1.1.4-1.1 1.1s.4 1.1 1.1 1.1H47c.1 0 .3 0 .4-.1L67 54.2c1.4-.7 2.7-.7 3.5.6.7.8.5 2.2-.5 3zm-28.7-8.2c.6 0 1.1-.4 1.1-1.1v-1.8c3.1-.6 4.8-2.9 5.2-5.3.4-2.9-1-5.3-3.8-6.4-.6-.1-1-.3-1.4-.6v-6.8c1.3.3 2.1.8 2.1 1a1.09 1.09 0 0 0 1.5 0 1.09 1.09 0 0 0 0-1.5c-.1-.1-1.4-1.3-3.5-1.5v-1.5c0-.6-.4-1.1-1.1-1.1-.6 0-1.1.4-1.1 1.1v1.7c-.3 0-.6.1-.8.1-1.8.6-3.2 2.1-3.5 4.1-.3 1.8.3 3.5 1.5 4.5.7.6 1.7 1.1 2.9 1.7v8.5c-1.3 0-2-.3-3.4-1.1-.6-.3-1.1-.1-1.5.3-.3.6-.1 1.1.3 1.5 1.8 1.1 2.9 1.4 4.5 1.5v1.7c-.2.6.4 1 1 1h0zm-2.7-16.9c-.6-.4-.8-1.4-.7-2.4s.8-2.1 2.1-2.4h.1v5.9c-.5-.4-1.1-.7-1.5-1.1h0zm4.3 4.5c2.7 1 2.5 3.2 2.4 3.9-.3 1.4-1.3 2.9-3.1 3.4V37c.3 0 .6 0 .7.2h0z"/><defs ><path id="B" d="M8.946 65.431l15.4 5.9c1.3.6 2.7.7 4.1.7h15.8c2.2 0 4.3-.7 6.3-1.8l19.8-12.9c1.3-1.1 1.5-3.2.6-4.6-1.1-1.7-2.8-2-4.8-1l-19.4 8.7v-3.2c-.3-2.7-2.2-4.8-4.8-5l-11.8-1.5c-2.7-.4-4.1-1.3-6.4-2.7-3.2-2-6.8-2.9-10.6-2.9h-4.2v20.3h0z"/></defs></svg>