<svg width="69" height="50" viewBox="0 0 69 50" fill="none" xmlns="http://www.w3.org/2000/svg">
<g id="Home-Icons-11 1" clip-path="url(#clip0_862_752)">
<g id="Group">
<g id="Group_2">
<path id="Vector" d="M52.5342 36.3572H48.7997C48.7997 28.3325 42.2565 21.7893 34.2318 21.7893C26.2071 21.7893 19.6639 28.3325 19.6639 36.3572H15.8984C15.8984 26.2646 24.1083 18.0547 34.2009 18.0547C44.3244 18.0547 52.5342 26.2646 52.5342 36.3572Z" fill="#3F51B5"/>
<path id="Vector_2" d="M34.2314 21.7909C28.2437 21.7909 23.3672 16.9144 23.3672 10.9267C23.3672 4.93904 28.2437 0.0625 34.2314 0.0625C40.219 0.0625 45.0956 4.93904 45.0956 10.9267C45.0956 16.9144 40.219 21.7909 34.2314 21.7909ZM34.2314 3.7662C30.2808 3.7662 27.1018 6.97608 27.1018 10.8958C27.1018 14.8156 30.3116 18.0255 34.2314 18.0255C38.1511 18.0255 41.361 14.8465 41.361 10.8958C41.361 6.94522 38.1511 3.7662 34.2314 3.7662Z" fill="#597CF6"/>
</g>
<path id="Vector_3" d="M55.8355 22.6555C51.6689 22.6555 48.3047 19.2604 48.3047 15.1246C48.3047 10.9579 51.6997 7.59375 55.8355 7.59375C60.0022 7.59375 63.3664 10.9888 63.3664 15.1246C63.3664 19.2604 59.9714 22.6555 55.8355 22.6555ZM55.8355 10.1555C53.1195 10.1555 50.8973 12.3777 50.8973 15.0938C50.8973 17.8098 53.1195 20.032 55.8355 20.032C58.5516 20.032 60.7738 17.8098 60.7738 15.0938C60.7738 12.3777 58.5516 10.1555 55.8355 10.1555Z" fill="#597CF6"/>
<path id="Vector_4" d="M12.6246 22.6555C8.45795 22.6555 5.09375 19.2604 5.09375 15.1246C5.09375 10.9579 8.48881 7.59375 12.6246 7.59375C16.7913 7.59375 20.1555 10.9888 20.1555 15.1246C20.1555 19.2604 16.7604 22.6555 12.6246 22.6555ZM12.6246 10.1555C9.90857 10.1555 7.68634 12.3777 7.68634 15.0938C7.68634 17.8098 9.90857 20.032 12.6246 20.032C15.3407 20.032 17.5629 17.8098 17.5629 15.0938C17.5629 12.3777 15.3407 10.1555 12.6246 10.1555Z" fill="#597CF6"/>
<path id="Vector_5" d="M34.2269 50.1256C40.7724 50.1256 46.0787 44.8193 46.0787 38.2737C46.0787 31.7281 40.7724 26.4219 34.2269 26.4219C27.6813 26.4219 22.375 31.7281 22.375 38.2737C22.375 44.8193 27.6813 50.1256 34.2269 50.1256Z" fill="#EC7601"/>
<path id="Vector_6" d="M55.8287 20.0625C53.5756 20.0625 51.446 20.6489 49.625 21.6983C50.2423 22.3465 50.7978 22.9946 51.3225 23.7045C52.6806 23.0255 54.2238 22.6242 55.8287 22.6242C61.4151 22.6242 65.9213 27.1613 65.9213 32.7168H68.5139C68.5139 25.7415 62.804 20.0625 55.8287 20.0625Z" fill="#3F51B5"/>
<path id="Vector_7" d="M18.8264 21.6983C16.9745 20.6489 14.8758 20.0625 12.6227 20.0625C5.61651 20.0625 -0.0625 25.7415 -0.0625 32.7477H2.53009C2.53009 27.1613 7.06713 22.6551 12.6227 22.6551C14.2276 22.6551 15.7708 23.0255 17.1289 23.7353C17.6535 22.9946 18.2091 22.3156 18.8264 21.6983Z" fill="#3F51B5"/>
<g id="Group_3">
<path id="Vector_8" d="M36.4461 37.1606C36.4769 37.1606 36.5078 37.1606 36.5387 37.1606C37.9893 37.1606 39.409 37.1606 40.8597 37.1606C40.9523 37.1606 41.0449 37.1606 41.1374 37.1915C41.4461 37.2532 41.6313 37.4692 41.6621 37.7779C41.693 38.3026 41.3535 38.7655 40.8597 38.889C40.8288 38.889 40.8288 38.889 40.7979 38.9199C40.7979 38.9816 40.7671 39.0125 40.7671 39.0742C40.7979 39.0742 40.7979 39.0742 40.8288 39.105C40.8905 39.1359 40.9523 39.1668 41.014 39.1976C41.3226 39.352 41.4461 39.6606 41.3535 39.9692C41.23 40.3705 40.9831 40.6483 40.551 40.7408C40.5202 40.7408 40.5202 40.7409 40.5202 40.7717C40.5202 40.8026 40.4893 40.8334 40.4893 40.8952C40.5202 40.8952 40.5202 40.8952 40.551 40.926C40.6127 40.9569 40.6745 40.9569 40.7053 40.9878C40.9523 41.1112 41.1374 41.3581 41.0757 41.6668C41.014 42.068 40.7979 42.3458 40.3967 42.5001C40.3658 42.531 40.3041 42.531 40.2424 42.531C40.2115 42.531 40.1807 42.5618 40.1807 42.5927C40.1807 42.6236 40.1807 42.6544 40.1498 42.6853C40.1807 42.6853 40.1807 42.6853 40.1807 42.7162C40.4584 42.7779 40.6436 42.9939 40.6436 43.3026C40.6436 43.6112 40.5202 43.8581 40.2732 44.0742C40.0881 44.2285 39.872 44.2902 39.656 44.3211C39.5325 44.3211 39.4399 44.3211 39.3165 44.3211C37.2177 44.3211 35.1498 44.3211 33.051 44.3211C32.8967 44.3211 32.7732 44.2902 32.6189 44.2285C32.5263 44.1668 32.4029 44.105 32.3103 44.0433C32.2177 43.9816 32.1251 43.9199 32.0325 43.889C31.9399 43.8273 31.8473 43.8273 31.7547 43.8273C31.6621 43.8273 31.6004 43.8273 31.5078 43.8273C31.5078 43.7964 31.5078 43.7655 31.5078 43.7655C31.5078 42.1297 31.5078 40.4939 31.5078 38.8581C31.5078 38.7964 31.5387 38.7964 31.5695 38.7655C31.8165 38.6112 32.0942 38.426 32.3411 38.2717C32.5263 38.1483 32.7115 37.9631 32.8658 37.7779C33.1745 37.3766 33.4523 36.9446 33.73 36.5433C34.1004 35.9878 34.4399 35.4013 34.7486 34.8149C34.8103 34.6606 34.9029 34.5063 34.9646 34.352C34.9955 34.2594 35.0263 34.1976 35.0263 34.105C34.9955 33.4569 34.9955 32.8087 34.9955 32.1606C34.9955 32.1297 34.9955 32.0989 35.0263 32.068C35.1498 31.9446 35.3041 31.8828 35.4893 31.852C35.7362 31.8211 35.9523 31.8828 36.1683 31.9446C36.1992 31.9446 36.23 31.9754 36.23 32.0063C36.4152 32.3458 36.5695 32.7162 36.693 33.0865C36.7856 33.3952 36.8782 33.6729 36.9399 34.0125C36.9708 34.1359 36.9708 34.2285 36.9708 34.352C36.9708 34.4137 36.9708 34.5063 36.9399 34.568C36.8782 35.0618 36.7856 35.5248 36.7239 36.0186C36.6621 36.4199 36.5695 36.7902 36.5078 37.1915C36.4461 37.1297 36.4461 37.1297 36.4461 37.1606Z" fill="white"/>
<path id="Vector_9" d="M31.0484 38.2422C31.0484 40.4027 31.0484 42.5632 31.0484 44.7545C30.9867 44.7545 26.8818 44.7854 26.82 44.7545C26.7892 44.6928 26.7892 38.3039 26.82 38.2422C26.8509 38.2422 30.9558 38.2422 31.0484 38.2422Z" fill="white"/>
</g>
</g>
</g>
<defs>
<clipPath id="clip0_862_752">
<rect width="68.5185" height="50" fill="white"/>
</clipPath>
</defs>
</svg>
