<svg width="51" height="50" viewBox="0 0 51 50" fill="none" xmlns="http://www.w3.org/2000/svg">
<g id="Home-Icons-13 1" clip-path="url(#clip0_862_771)">
<g id="Group">
<path id="Vector" d="M37.5819 49.5355H0.6875V0.21875H31.8055L37.5819 6.30571V17.8274H33.8552V7.79639L30.1906 3.94546H4.41421V45.8088H33.8552V38.3243H37.5819V49.5355Z" fill="#3F51B5"/>
<path id="Vector_2" d="M25.5928 8.82031H9.19531V12.547H25.5928V8.82031Z" fill="#BDC0FF"/>
<path id="Vector_3" d="M17.922 17.4531H9.19531V21.1798H17.922V17.4531Z" fill="#BDC0FF"/>
<path id="Vector_4" d="M41.0727 34.5992L38.4375 37.2344L47.5288 46.3257L50.1639 43.6905L41.0727 34.5992Z" fill="#597CF6"/>
<path id="Vector_5" d="M35.0626 20.9375H22.5781V24.0431H35.0626V20.9375Z" fill="#EC7601"/>
<path id="Vector_6" d="M35.0626 32.7656H22.5781V35.8712H35.0626V32.7656Z" fill="#EC7601"/>
<path id="Vector_7" d="M43.2691 26.8672H28.8281V29.9728H43.2691V26.8672Z" fill="#EC7601"/>
<path id="Vector_8" d="M31.9271 41.026C24.7842 41.026 19.0078 35.2186 19.0078 28.1068C19.0078 20.995 24.8153 15.1875 31.9271 15.1875C39.0389 15.1875 44.8463 20.995 44.8463 28.1068C44.8463 35.2186 39.0699 41.026 31.9271 41.026ZM31.9271 18.8832C26.865 18.8832 22.7345 23.0136 22.7345 28.0757C22.7345 33.1378 26.865 37.2682 31.9271 37.2682C36.9892 37.2682 41.1196 33.1378 41.1196 28.0757C41.1196 23.0136 36.9892 18.8832 31.9271 18.8832Z" fill="#597CF6"/>
</g>
</g>
<defs>
<clipPath id="clip0_862_771">
<rect width="50.3106" height="50" fill="white"/>
</clipPath>
</defs>
</svg>
