<svg width="37" height="50" viewBox="0 0 37 50" fill="none" xmlns="http://www.w3.org/2000/svg">
<g id="Home-Icons-12 1" clip-path="url(#clip0_862_765)">
<g id="Group">
<path id="Vector" d="M28.4476 29.9375C25.7952 32.2851 22.35 33.718 18.5391 33.8704L24.972 50.029L27.7464 43.5655L35.1244 46.7363L28.4476 29.9375Z" fill="#BDC0FF"/>
<path id="Vector_2" d="M7.44245 29.9375L0.765625 46.7668L8.14367 43.596L10.9181 50.0595L17.351 33.9009C13.54 33.718 10.0949 32.2546 7.44245 29.9375Z" fill="#3F51B5"/>
<path id="Vector_3" d="M17.9604 0.09375C8.11281 0.09375 0.125 8.08156 0.125 17.9291C0.125 27.7767 8.11281 35.7645 17.9604 35.7645C27.8079 35.7645 35.7957 27.7767 35.7957 17.9291C35.7957 8.08156 27.7774 0.09375 17.9604 0.09375ZM17.9604 32.5937C9.8811 32.5937 3.29573 26.0389 3.29573 17.9291C3.29573 9.81936 9.85061 3.26448 17.9604 3.26448C26.0396 3.26448 32.625 9.81936 32.625 17.9291C32.625 26.0389 26.0396 32.5937 17.9604 32.5937Z" fill="#597CF6"/>
<path id="Vector_4" d="M16.2845 25.1242C15.8272 25.1242 15.3394 24.9413 15.004 24.5755L10.065 19.6364C9.36376 18.9352 9.36376 17.7767 10.065 17.045C10.7662 16.3438 11.9247 16.3438 12.6564 17.045L16.2845 20.673L24.1503 12.8072C24.8516 12.1059 26.0101 12.1059 26.7418 12.8072C27.4735 13.5084 27.443 14.6669 26.7418 15.3986L17.5955 24.545C17.1991 24.9413 16.7418 25.1242 16.2845 25.1242Z" fill="#EC7601"/>
</g>
</g>
<defs>
<clipPath id="clip0_862_765">
<rect width="36.5854" height="50" fill="white"/>
</clipPath>
</defs>
</svg>
