<svg width="63" height="50" viewBox="0 0 63 50" fill="none" xmlns="http://www.w3.org/2000/svg">
<g id="Group">
<path id="Vector" d="M8.13113 16.1059C3.70746 16.1059 0.09375 12.4922 0.09375 8.06854C0.09375 3.64486 3.6763 0 8.13113 0C12.586 0 16.1685 3.61371 16.1685 8.03738C16.1685 12.4611 12.5548 16.1059 8.13113 16.1059ZM8.13113 3.52025C5.63892 3.52025 3.58285 5.54517 3.58285 8.06854C3.58285 10.5919 5.60777 12.6168 8.13113 12.6168C10.6545 12.6168 12.6794 10.5919 12.6794 8.06854C12.6794 5.54517 10.6233 3.52025 8.13113 3.52025Z" fill="#3F51B5"/>
<path id="Vector_2" d="M31.3733 16.1059C26.9496 16.1059 23.3359 12.4922 23.3359 8.06854C23.3359 3.64486 26.9185 0 31.3733 0C35.8282 0 39.4107 3.61371 39.4107 8.03738C39.4107 12.4611 35.797 16.1059 31.3733 16.1059ZM31.3733 3.52025C28.8811 3.52025 26.825 5.54517 26.825 8.06854C26.825 10.5919 28.85 12.6168 31.3733 12.6168C33.8967 12.6168 35.9216 10.5919 35.9216 8.06854C35.9216 5.54517 33.8655 3.52025 31.3733 3.52025Z" fill="#3F51B5"/>
<path id="Vector_3" d="M54.5764 16.1059C50.1528 16.1059 46.5391 12.4922 46.5391 8.06854C46.5391 3.64486 50.1528 0 54.5764 0C59.0001 0 62.6138 3.61371 62.6138 8.03738C62.6138 12.4611 59.0313 16.1059 54.5764 16.1059ZM54.5764 3.52025C52.0842 3.52025 50.0282 5.54517 50.0282 8.06854C50.0282 10.5919 52.0531 12.6168 54.5764 12.6168C57.0998 12.6168 59.1247 10.5607 59.1247 8.06854C59.1247 5.57632 57.0998 3.52025 54.5764 3.52025Z" fill="#3F51B5"/>
<path id="Vector_4" d="M54.5764 42.4888C50.1528 42.4888 46.5391 38.8751 46.5391 34.4514C46.5391 30.0278 50.1528 26.4141 54.5764 26.4141C59.0001 26.4141 62.6138 30.0278 62.6138 34.4514C62.6138 38.8751 59.0313 42.4888 54.5764 42.4888ZM54.5764 29.9032C52.0842 29.9032 50.0282 31.9281 50.0282 34.4514C50.0282 36.9748 52.0531 38.9997 54.5764 38.9997C57.0998 38.9997 59.1247 36.9748 59.1247 34.4514C59.1247 31.9281 57.0998 29.9032 54.5764 29.9032Z" fill="#597CF6"/>
<path id="Vector_5" d="M39.2863 42.4035H23.3984V26.5156H39.2863V42.4035ZM26.8875 38.9144H35.7972V30.0047H26.8875V38.9144Z" fill="#BDC0FF"/>
<path id="Vector_6" d="M16.0754 42.4035H0.1875V26.5156H16.0754V42.4035ZM3.64544 38.9144H12.5551V30.0047H3.64544V38.9144Z" fill="#BDC0FF"/>
<path id="Vector_7" d="M43.8927 38.4113L32.0547 37.5391L32.927 49.3771L36.9145 45.3895L41.5251 50.0001L44.4846 47.0406L39.874 42.43L43.8927 38.4113Z" fill="#EC7601"/>
</g>
</svg>
