<svg width="60" height="50" viewBox="0 0 60 50" fill="none" xmlns="http://www.w3.org/2000/svg">
<g id="Group">
<g id="Group_2">
<path id="Vector" d="M46.907 9.27233H45.2808V5.82017C45.2808 3.50922 43.7687 1.62622 41.8857 1.62622H40.5448C38.6903 1.62622 37.1497 3.50922 37.1497 5.82017V6.41931H35.5234V5.79164C35.5234 2.59625 37.7773 0 40.5162 0H41.8572C44.6246 0 46.85 2.59625 46.85 5.79164V9.27233H46.907Z" fill="#EC7601"/>
<path id="Vector_2" d="M33.2969 9.27344V22.3118H49.1312V9.27344H33.2969ZM42.1413 16.6342V18.5743H40.2868V16.6342C39.545 16.2919 39.0315 15.5501 39.0315 14.6657C39.0315 13.4674 40.0015 12.4974 41.1998 12.4974C42.398 12.4974 43.3681 13.4674 43.3681 14.6657C43.3966 15.5216 42.883 16.2919 42.1413 16.6342Z" fill="#EC7601"/>
</g>
<path id="Vector_3" d="M0.289062 10.5H30.5311V14.6084H4.42595V45.364H55.4666V14.6084H52.5565V10.5H59.6035V49.5009H0.289062V10.5Z" fill="#597CF6"/>
<path id="Vector_4" d="M24.6253 27.1016H11.8438V31.2099H24.6253V27.1016Z" fill="#3F51B5"/>
<path id="Vector_5" d="M24.6253 35.3203H11.8438V39.4287H24.6253V35.3203Z" fill="#BDC0FF"/>
<path id="Vector_6" d="M47.6175 27.1016H34.8359V31.2099H47.6175V27.1016Z" fill="#3F51B5"/>
<path id="Vector_7" d="M47.6175 35.3203H34.8359V39.4287H47.6175V35.3203Z" fill="#BDC0FF"/>
</g>
</svg>
