<svg width="57" height="51" viewBox="0 0 57 51" fill="none" xmlns="http://www.w3.org/2000/svg">
<g id="Home-Icons-10 1" clip-path="url(#clip0_862_735)">
<g id="Group">
<g id="Group_2">
<path id="Vector" d="M44.7832 44.5719H40.2989C40.2989 34.911 32.4437 27.0558 22.7828 27.0558C13.1219 27.0558 5.26675 34.911 5.26675 44.5719H0.8125C0.8125 32.4431 10.6841 22.6016 22.7828 22.6016C34.9116 22.6016 44.7832 32.4431 44.7832 44.5719Z" fill="#3F51B5"/>
<path id="Vector_2" d="M22.8196 27.0845C15.6266 27.0845 9.75781 21.2158 9.75781 14.0227C9.75781 6.82972 15.6266 0.960938 22.8196 0.960938C30.0126 0.960938 35.8814 6.82972 35.8814 14.0227C35.8814 21.2158 30.0126 27.0845 22.8196 27.0845ZM22.8196 5.44529C18.0945 5.44529 14.2422 9.29761 14.2422 14.0227C14.2422 18.7479 18.0945 22.6002 22.8196 22.6002C27.5447 22.6002 31.3971 18.7479 31.3971 14.0227C31.3971 9.29761 27.5447 5.44529 22.8196 5.44529Z" fill="#597CF6"/>
</g>
<path id="Vector_3" d="M45.2367 50.9265C51.6194 50.9265 56.7937 45.7522 56.7937 39.3695C56.7937 32.9867 51.6194 27.8125 45.2367 27.8125C38.8539 27.8125 33.6797 32.9867 33.6797 39.3695C33.6797 45.7522 38.8539 50.9265 45.2367 50.9265Z" fill="#EC7601"/>
<path id="Vector_4" d="M45.2295 32.2578L47.5469 36.9227L52.7235 37.6751L48.9915 41.3168L49.8643 46.4633L45.2295 44.0255L40.6248 46.4633L41.4976 41.3168L37.7656 37.6751L42.9422 36.9227L45.2295 32.2578Z" fill="white"/>
</g>
</g>
<defs>
<clipPath id="clip0_862_735">
<rect width="57" height="51" fill="white"/>
</clipPath>
</defs>
</svg>
