<?xml version="1.0" encoding="UTF-8"?>
<svg width="34px" height="28px" viewBox="0 0 34 28" version="1.1" xmlns="http://www.w3.org/2000/svg" xmlns:xlink="http://www.w3.org/1999/xlink">
    <!-- Generator: Sketch 59.1 (86144) - https://sketch.com -->
    <title>icon/schedule/liveonline</title>
    <desc>Created with Sketch.</desc>
    <defs>
        <polygon id="path-1" points="3.51977878e-05 0.4063 33.9259316 0.4063 33.9259316 23.6722374 3.51977878e-05 23.6722374"></polygon>
    </defs>
    <g id="icon/schedule/liveonline" stroke="none" stroke-width="1" fill="none" fill-rule="evenodd">
        <g id="Group-54">
            <g id="Group-3">
                <mask id="mask-2" fill="white">
                    <use xlink:href="#path-1"></use>
                </mask>
                <g id="Clip-2"></g>
                <path d="M33.9259316,16.433305 C33.8794506,16.75843 33.8467418,17.086105 33.7839063,17.408255 C33.4477797,19.13588 32.6124127,20.58853 31.2889949,21.765355 C30.2918051,22.65233 29.132362,23.24053 27.8519823,23.626005 C27.1848937,23.82703 26.5410456,23.34338 26.4734759,22.73818 C26.3994506,22.072205 26.748919,21.55668 27.4177291,21.35268 C29.2950456,20.781055 30.6606405,19.628455 31.3234253,17.78778 C32.0481848,15.776255 31.6642861,13.91518 30.2870709,12.27978 C29.2817038,11.085955 27.9600076,10.43358 26.4024633,10.24403 C26.0542861,10.20153 25.7065392,10.161155 25.3411468,10.117805 C25.3411468,9.91678 25.3364127,9.72468 25.3420076,9.53258 C25.3618051,8.78713 25.2821848,8.05698 25.0200835,7.35233 C24.6224127,6.283455 23.9514506,5.40838 23.0687418,4.68758 C21.7479063,3.60893 20.2166152,3.001605 18.5303873,2.76148 C16.638438,2.491605 14.7964127,2.67818 13.0275519,3.411305 C11.4682861,4.05773 10.1775772,5.030555 9.3215519,6.502755 C8.84727342,7.317905 8.61142532,8.19893 8.60453924,9.13903 C8.60281772,9.406355 8.59679241,9.67453 8.60712152,9.941855 C8.61271646,10.08423 8.57312152,10.13013 8.42119747,10.15138 C7.78423544,10.23978 7.12790633,10.27803 6.51977975,10.464605 C4.28567848,11.150555 2.85337468,12.62573 2.38167848,14.90373 C1.85360253,17.45033 3.3057038,20.050905 5.76360253,21.080255 C6.04334937,21.197555 6.3338557,21.28978 6.62307089,21.383705 C7.12231139,21.54648 7.55010886,22.209055 7.45628608,22.68633 C7.34610886,23.24223 6.77714684,23.70803 6.21636203,23.631955 C5.85742532,23.583505 5.50107089,23.45898 5.16408354,23.320005 C2.67046329,22.292355 0.991551899,20.516705 0.288311392,17.92973 C-0.379637975,15.471105 0.124336709,13.20628 1.68403291,11.18583 C2.70618481,9.86153 4.04251392,8.948205 5.63018481,8.39273 C5.90132405,8.297955 6.1530962,8.178105 6.31664051,7.93288 C6.36957722,7.85383 6.42251392,7.76458 6.44015949,7.673205 C6.58304557,6.940505 6.86193165,6.257955 7.22215949,5.607705 C8.1698557,3.89623 9.57160253,2.64758 11.3047418,1.745305 C12.4857038,1.13033 13.7454253,0.74783 15.0628177,0.551905 C15.4777038,0.489855 15.8990456,0.47328 16.3173747,0.434605 C16.3621342,0.430355 16.4056025,0.415905 16.4499316,0.40613 L17.4880076,0.40613 C17.5379316,0.415905 17.5874253,0.42993 17.6377797,0.435455 C18.1632734,0.494105 18.6935013,0.52598 19.2138304,0.61353 C21.0476785,0.92123 22.7222861,1.60718 24.202362,2.730455 C25.4117291,3.648455 26.3611468,4.77598 26.9486152,6.175505 C27.1276532,6.60348 27.249881,7.05568 27.3820076,7.50108 C27.5111215,7.93713 27.7585899,8.23208 28.219957,8.363405 C29.1977797,8.642205 30.0856532,9.105455 30.8805646,9.73233 C32.4402608,10.961855 33.4180835,12.543705 33.7873494,14.484255 C33.8476025,14.80088 33.8803114,15.12303 33.9259316,15.442205 L33.9259316,16.433305 Z" id="Fill-1" fill="#5FB5D0" mask="url(#mask-2)"></path>
            </g>
            <path d="M11.3238047,25.7141979 L22.6810135,25.7141979 L22.6810135,12.0851761 L11.3238047,12.0851761 L11.3238047,25.7141979 Z M9.02087656,18.9046653 C9.02087656,16.2947053 9.02000916,13.6838794 9.02261134,11.0734865 C9.02261134,10.9185079 9.03258636,10.7583346 9.06945056,10.6085508 C9.18828338,10.1206714 9.576008,9.82889614 10.1163938,9.80162338 C10.1571612,9.8 10.197495,9.80032468 10.2382625,9.80032468 C14.7422,9.8 19.2461376,9.8 23.7500752,9.80032468 C24.3333969,9.80032468 24.7796705,10.109416 24.9249589,10.6219707 C24.960522,10.7483778 24.9774361,10.8843087 24.9774361,11.0159106 C24.9800383,16.2773892 24.9800383,21.5388678 24.9787372,26.8003464 C24.9787372,27.401213 24.7072432,27.8012135 24.2050228,27.9427722 C24.0783834,27.97827 23.9426364,27.9973177 23.8112264,27.9977506 C19.2721594,28.000348 14.7335261,28.000348 10.1948928,27.9994822 C9.45847627,27.9990493 9.02174395,27.5488323 9.02131025,26.7882252 C9.01957547,24.8622487 9.02087656,22.9362722 9.02087656,21.0107286 L9.02087656,18.9046653 Z" id="Fill-4" fill="#5FB5D0"></path>
            <path d="M16.6524632,18.1986233 C15.8926018,18.1986233 15.1327403,18.2018063 14.3728789,18.1982254 C13.2471583,18.1918594 13.0119002,17.2624267 13.2902522,16.6831228 C13.4437196,16.3628345 13.7229511,16.1873723 14.0932077,16.1249061 C14.2079784,16.1054103 14.3271465,16.1014316 14.4445556,16.1010337 C15.9172269,16.0998401 17.3898982,16.0998401 18.8621297,16.100238 C19.1932499,16.100238 19.5080998,16.1479828 19.7635857,16.361243 C20.10438,16.6453248 20.2169521,17.1442583 20.0384198,17.5719724 C19.8779167,17.9563183 19.4839144,18.193053 18.9672263,18.1970318 C18.195492,18.202602 17.4237577,18.1986233 16.6524632,18.1986233" id="Fill-6" fill="#5FB5D0"></path>
            <path d="M16.6526292,22.3932731 C15.8447222,22.3932731 15.036375,22.4116354 14.2293485,22.3876845 C13.5614494,22.3677255 13.1621188,21.9210415 13.1845729,21.2871415 C13.2043853,20.7147154 13.6688768,20.3055545 14.3204857,20.3031594 C15.594205,20.2983693 16.8679243,20.2995668 18.1420839,20.3031594 C18.5066326,20.3039578 18.8755842,20.2919824 19.2352899,20.3362915 C19.8182157,20.4073458 20.1497437,20.848042 20.1206855,21.4500075 C20.0964703,21.9577662 19.6865731,22.3697214 19.128743,22.3840919 C18.3041056,22.4048493 17.4781472,22.3892813 16.6526292,22.3892813 L16.6526292,22.3932731 Z" id="Fill-7" fill="#5FB5D0"></path>
        </g>
    </g>
</svg>