<?xml version="1.0" encoding="utf-8"?>
<!-- Generator: Adobe Illustrator 23.0.0, SVG Export Plug-In . SVG Version: 6.00 Build 0)  -->
<svg version="1.1" id="Layer_1" xmlns="http://www.w3.org/2000/svg" xmlns:xlink="http://www.w3.org/1999/xlink" x="0px" y="0px"
	 viewBox="0 0 60 60" style="enable-background:new 0 0 60 60;" xml:space="preserve">
<style type="text/css">
	.st0{fill:#B86BD8;}
</style>
<g>
	<path id="Shape_2_" class="st0" d="M46.6,32.8H24.5c-0.3,0-0.6-0.2-0.6-0.6V30c0-0.3,0.2-0.6,0.6-0.6h22.1c0.3,0,0.6,0.2,0.6,0.6
		v2.2C47.1,32.5,46.9,32.8,46.6,32.8z M25,31.7h21v-1.1H25V31.7z"/>
	<polygon class="st0" points="25,32.2 26.1,32.2 26.1,36.7 25,36.7 	"/>
	<path class="st0" d="M45.5,46h-8.8v-1.1h8.3V32.2H46v13.3C46,45.8,45.8,46,45.5,46z"/>
	<path class="st0" d="M30.6,29.4h-1.1v-1.7h-3.3v1.7H25v-2.2c0-0.3,0.2-0.6,0.6-0.6H30c0.3,0,0.6,0.2,0.6,0.6V29.4z"/>
	<path class="st0" d="M30.6,22.3c-0.9,0-1.7-0.7-1.7-1.7c0-0.9,0.7-1.7,1.7-1.7s1.7,0.7,1.7,1.7C32.2,21.5,31.5,22.3,30.6,22.3z
		 M30.6,20c-0.3,0-0.6,0.2-0.6,0.6c0,0.3,0.2,0.6,0.6,0.6s0.6-0.2,0.6-0.6C31.1,20.3,30.9,20,30.6,20z"/>
	<path class="st0" d="M28.3,27.2h-1.1v-0.7c0-2.2,0.8-4.2,2.4-5.7l0.8,0.8c-1.3,1.3-2,3.1-2,4.9V27.2z"/>
	<path class="st0" d="M38.8,25c-0.2,0-0.3-0.1-0.4-0.2l-1.7-2.2c-0.1-0.1-0.1-0.2-0.1-0.3v-1.7h1.1v1.5l1.1,1.5l1.1-1.5v-1.5h1.1
		v1.7c0,0.1,0,0.2-0.1,0.3l-1.7,2.2C39.2,24.9,39,25,38.8,25z"/>
	<path class="st0" d="M46,30h-1.1v-4c0-0.9-0.3-1.7-0.9-2.3c-0.6-0.6-1.4-0.9-2.3-0.9h-1.2v-1.1h1.2c1.2,0,2.2,0.5,3.1,1.3
		c0.8,0.8,1.3,1.9,1.3,3.1V30z"/>
	<path class="st0" d="M32.8,30h-1.1v-4c0-1.2,0.5-2.2,1.3-3.1c0.8-0.8,1.9-1.3,3.1-1.3h1.2v1.1H36c-0.9,0-1.7,0.3-2.3,0.9
		c-0.6,0.6-0.9,1.4-0.9,2.3V30z"/>
	<path class="st0" d="M36.6,26.1c-0.1,0-0.1,0-0.2,0c-0.1-0.1-0.3-0.2-0.3-0.3L35,22.4l1-0.4l0.9,2.7l1.6-0.8l0.5,1l-2.2,1.1
		C36.8,26.1,36.7,26.1,36.6,26.1L36.6,26.1z"/>
	<polygon class="st0" points="38.3,24.5 39.4,24.5 39.4,30 38.3,30 	"/>
	<path class="st0" d="M41.1,26.1c-0.1,0-0.2,0-0.2-0.1L38.6,25l0.5-1l1.6,0.8l0.9-2.7l1,0.4l-1.1,3.3c-0.1,0.2-0.2,0.3-0.3,0.3
		C41.2,26.1,41.1,26.1,41.1,26.1L41.1,26.1z"/>
	<path class="st0" d="M38.8,21.7c-2.4,0-4.4-2-4.4-4.4c0-0.3,0.2-0.6,0.6-0.6c1.3,0,2.5-0.5,3.4-1.4l0.1-0.1c0.2-0.2,0.6-0.2,0.8,0
		l0.1,0.1c0.9,0.9,2.1,1.4,3.4,1.4c0.3,0,0.6,0.2,0.6,0.6C43.3,19.7,41.3,21.7,38.8,21.7z M35.6,17.8c0.3,1.6,1.6,2.8,3.3,2.8
		c1.7,0,3-1.2,3.3-2.8c-1.2-0.1-2.4-0.6-3.3-1.4C37.9,17.2,36.8,17.7,35.6,17.8z"/>
	<polygon class="st0" points="33.9,27.2 35,27.2 35,30 33.9,30 	"/>
	<polygon class="st0" points="42.7,27.2 43.8,27.2 43.8,30 42.7,30 	"/>
	<path class="st0" d="M43.3,17.3h-1.1c0-1.8-1.5-3.3-3.3-3.3s-3.3,1.5-3.3,3.3h-1.1c0-2.4,2-4.4,4.4-4.4S43.3,14.8,43.3,17.3z"/>
	<path class="st0" d="M25,41.6c-1.5,0-2.8-1.2-2.8-2.8s1.2-2.8,2.8-2.8s2.8,1.2,2.8,2.8S26.5,41.6,25,41.6z M25,37.2
		c-0.9,0-1.7,0.7-1.7,1.7c0,0.9,0.7,1.7,1.7,1.7c0.9,0,1.7-0.7,1.7-1.7C26.7,37.9,25.9,37.2,25,37.2z"/>
	<path class="st0" d="M28.9,47.1h-7.7c-0.3,0-0.6-0.2-0.6-0.6v-1.7c0-2.4,2-4.4,4.4-4.4s4.4,2,4.4,4.4v1.7
		C29.4,46.9,29.2,47.1,28.9,47.1z M21.7,46h6.6v-1.1c0-1.8-1.5-3.3-3.3-3.3c-1.8,0-3.3,1.5-3.3,3.3V46z"/>
	<path class="st0" d="M32.8,41.6c-1.5,0-2.8-1.2-2.8-2.8s1.2-2.8,2.8-2.8s2.8,1.2,2.8,2.8S34.3,41.6,32.8,41.6z M32.8,37.2
		c-0.9,0-1.7,0.7-1.7,1.7c0,0.9,0.7,1.7,1.7,1.7s1.7-0.7,1.7-1.7C34.4,37.9,33.7,37.2,32.8,37.2z"/>
	<path class="st0" d="M36.6,47.1h-7.7c-0.3,0-0.6-0.2-0.6-0.6v-1.7c0-2.4,2-4.4,4.4-4.4s4.4,2,4.4,4.4v1.7
		C37.2,46.9,36.9,47.1,36.6,47.1z M29.4,46h6.6v-1.1c0-1.8-1.5-3.3-3.3-3.3s-3.3,1.5-3.3,3.3V46z"/>
	<path class="st0" d="M17.3,41.6c-1.5,0-2.8-1.2-2.8-2.8s1.2-2.8,2.8-2.8s2.8,1.2,2.8,2.8S18.8,41.6,17.3,41.6z M17.3,37.2
		c-0.9,0-1.7,0.7-1.7,1.7c0,0.9,0.7,1.7,1.7,1.7c0.9,0,1.7-0.7,1.7-1.7C18.9,37.9,18.2,37.2,17.3,37.2z"/>
	<path class="st0" d="M21.2,47.1h-7.7c-0.3,0-0.6-0.2-0.6-0.6v-1.7c0-2.4,2-4.4,4.4-4.4c2.4,0,4.4,2,4.4,4.4v1.7
		C21.7,46.9,21.5,47.1,21.2,47.1z M14,46h6.6v-1.1c0-1.8-1.5-3.3-3.3-3.3c-1.8,0-3.3,1.5-3.3,3.3V46z"/>
	<path class="st0" d="M23.4,23.9h-8.8c-0.9,0-1.7-0.7-1.7-1.7v-6.6c0-0.9,0.7-1.7,1.7-1.7h8.8c0.9,0,1.7,0.7,1.7,1.7v0.9l2,2
		c0.2,0.2,0.2,0.6,0,0.8l-2,2v0.9C25,23.2,24.3,23.9,23.4,23.9L23.4,23.9z M14.5,15.1c-0.3,0-0.6,0.2-0.6,0.6v6.6
		c0,0.3,0.2,0.6,0.6,0.6h8.8c0.3,0,0.6-0.2,0.6-0.6v-1.1c0-0.1,0.1-0.3,0.2-0.4l1.8-1.8l-1.8-1.8c-0.1-0.1-0.2-0.2-0.2-0.4v-1.1
		c0-0.3-0.2-0.6-0.6-0.6H14.5z"/>
	<polygon class="st0" points="15.1,16.2 22.8,16.2 22.8,17.3 15.1,17.3 	"/>
	<polygon class="st0" points="15.1,20.6 22.8,20.6 22.8,21.7 15.1,21.7 	"/>
	<polygon class="st0" points="16.2,18.4 21.7,18.4 21.7,19.5 16.2,19.5 	"/>
</g>
</svg>
