<svg width="16" height="17" viewBox="0 0 16 17" fill="none" xmlns="http://www.w3.org/2000/svg">
<path d="M7.09286 0.263121C7.43182 -0.0877072 7.9881 -0.0877069 8.32707 0.263121L9.45257 1.42803C9.65044 1.63283 9.93427 1.72653 10.2128 1.67903L11.7972 1.4088C12.2744 1.32742 12.7245 1.65967 12.7957 2.14594L13.0324 3.76057C13.074 4.04444 13.2495 4.28976 13.5023 4.4177L14.9404 5.14538C15.3735 5.36453 15.5454 5.9021 15.3218 6.33808L14.5793 7.78571C14.4487 8.04021 14.4487 8.34345 14.5793 8.59796L15.3218 10.0456C15.5454 10.4816 15.3735 11.0191 14.9404 11.2383L13.5023 11.966C13.2495 12.0939 13.074 12.3392 13.0324 12.6231L12.7957 14.2377C12.7245 14.724 12.2744 15.0562 11.7972 14.9749L10.2128 14.7046C9.93427 14.6571 9.65044 14.7508 9.45257 14.9556L8.32707 16.1205C7.9881 16.4714 7.43182 16.4714 7.09286 16.1205L5.96735 14.9556C5.76948 14.7508 5.48565 14.6571 5.2071 14.7046L3.62268 14.9749C3.14551 15.0562 2.69546 14.724 2.62418 14.2377L2.38749 12.6231C2.34588 12.3392 2.17046 12.0939 1.91763 11.966L0.479494 11.2383C0.046379 11.0191 -0.125523 10.4816 0.0981023 10.0456L0.840637 8.59796C0.97118 8.34345 0.97118 8.04021 0.840637 7.78571L0.0981022 6.33808C-0.125523 5.9021 0.0463792 5.36453 0.479495 5.14537L1.91763 4.4177C2.17046 4.28976 2.34588 4.04444 2.38749 3.76057L2.62418 2.14594C2.69546 1.65967 3.14551 1.32742 3.62268 1.4088L5.2071 1.67903C5.48565 1.72653 5.76948 1.63282 5.96735 1.42803L7.09286 0.263121Z" fill="url(#paint0_linear_3321_490)"/>
<path d="M5.4948 7.5751C4.5537 7.5751 3.85547 6.87686 3.85547 5.95601C3.85547 5.03515 4.5537 4.33691 5.4948 4.33691C6.42578 4.33691 7.12401 5.03515 7.12401 5.95601C7.12401 6.87686 6.42578 7.5751 5.4948 7.5751ZM4.6043 11.4407L9.66396 4.45835H10.6051L5.5454 11.4407H4.6043ZM5.4948 6.86674C6.00077 6.86674 6.39542 6.47209 6.39542 5.95601C6.39542 5.43992 6.00077 5.04527 5.4948 5.04527C4.97871 5.04527 4.59418 5.43992 4.59418 5.95601C4.59418 6.47209 4.97871 6.86674 5.4948 6.86674ZM9.70444 11.5621C8.77346 11.5621 8.06511 10.8639 8.06511 9.94302C8.06511 9.02216 8.77346 8.32393 9.70444 8.32393C10.6354 8.32393 11.3438 9.02216 11.3438 9.94302C11.3438 10.8639 10.6354 11.5621 9.70444 11.5621ZM9.70444 10.8538C10.2205 10.8538 10.6051 10.4591 10.6051 9.94302C10.6051 9.42693 10.2205 9.03228 9.70444 9.03228C9.18835 9.03228 8.80382 9.42693 8.80382 9.94302C8.80382 10.4591 9.18835 10.8538 9.70444 10.8538Z" fill="white"/>
<defs>
<linearGradient id="paint0_linear_3321_490" x1="4.25082" y1="1.38183" x2="12.4399" y2="14.8867" gradientUnits="userSpaceOnUse">
<stop stop-color="#EC7601"/>
<stop offset="1" stop-color="#FD600E"/>
</linearGradient>
</defs>
</svg>
