<svg width="45" height="45" viewBox="0 0 45 45" fill="none" xmlns="http://www.w3.org/2000/svg">
<circle cx="22.5" cy="22.5" r="22.5" fill="#4F58A7"/>
<path d="M34.911 32.9368C34.8665 32.4101 34.6884 31.9272 34.4213 31.4882C33.6201 30.0835 32.3737 29.2494 30.7711 29.0738C30.6821 29.0299 30.5931 29.03 30.5486 29.03C30.5931 29.03 30.6376 29.0299 30.6821 28.9861C30.7266 28.9861 30.8157 28.9861 30.8602 28.9861C32.3291 28.7227 33.3975 27.318 33.3085 25.8254C33.1749 24.3329 31.884 23.0599 30.415 23.016C28.4119 22.9282 26.8984 24.6402 27.2545 26.5717C27.4771 27.8008 28.6345 28.8544 29.8363 28.9422C29.8363 28.9422 29.8809 28.9422 29.8809 28.9861C29.9254 29.0299 29.8363 29.03 29.8363 29.03C29.7918 29.03 29.7473 29.0299 29.7028 29.0738C28.679 29.2055 27.7887 29.5567 27.0319 30.2591C26.8984 30.3908 26.8094 30.3908 26.6758 30.2152C26.4978 29.9518 26.2307 29.7323 25.9636 29.5128C24.9843 28.6788 23.8714 28.1959 22.5805 28.0642C22.4915 28.0203 22.4024 28.0203 22.3579 28.0203C22.4024 28.0203 22.447 28.0203 22.4915 27.9764C24.3166 27.8447 25.9191 26.1766 26.0081 24.289C26.1862 21.743 23.9604 19.7237 21.3786 20.031C19.509 20.2944 18.0846 21.743 17.9065 23.6306C17.7284 25.3865 18.8413 27.1424 20.5774 27.7569C20.889 27.8447 21.2006 27.9325 21.5567 27.9764C21.5122 28.0203 21.4676 28.0203 21.4676 28.0203C19.7761 28.1959 18.3516 28.8983 17.2833 30.2152C17.1498 30.3469 17.1052 30.3469 16.9717 30.2152C16.215 29.5567 15.3247 29.1616 14.3008 29.03C14.2563 28.9861 14.1673 29.0299 14.1228 28.9861H14.0783L14.1228 28.9422C15.8143 28.8105 17.0607 27.0107 16.6601 25.3426C16.2595 23.7184 14.6124 22.6648 13.0099 23.0599C11.3184 23.455 10.3391 25.0792 10.7397 26.7473C11.0513 27.8886 12.1642 28.8544 13.277 28.9422C13.3215 28.9861 13.366 28.9861 13.4106 28.9861C13.366 28.9861 13.277 29.03 13.188 29.03C11.4519 29.1177 9.67135 30.5664 9.18169 32.2345C8.95912 32.9368 9.00363 33.6392 9.00363 34.3415C9.00363 34.7805 9.18169 35 9.62683 35C17.862 35 26.0971 35 34.3323 35C34.6439 35 34.8665 34.9122 35 34.6049C35 34.0782 35 33.5514 35 33.0246C34.911 33.0246 34.911 32.9807 34.911 32.9368ZM28.1893 26.001C28.1893 24.9036 29.1241 23.9817 30.237 24.0256C31.3498 24.0256 32.2401 24.9475 32.2401 26.0449C32.2401 27.1424 31.3053 28.0642 30.1925 28.0642C29.1241 28.0203 28.1893 27.0985 28.1893 26.001ZM18.9303 23.9817C18.9303 22.3575 20.3103 20.9967 22.0018 20.9967C23.6934 20.9967 25.0288 22.3575 25.0288 24.0256C25.0288 25.6937 23.6488 27.0107 21.9573 27.0107C20.2658 27.0107 18.8858 25.606 18.9303 23.9817ZM11.6745 26.001C11.6745 24.9036 12.6093 23.9817 13.7222 23.9817C14.835 23.9817 15.7698 24.9036 15.7253 26.001C15.7253 27.0985 14.7905 28.0203 13.6776 27.9764C12.5648 27.9764 11.6745 27.0985 11.6745 26.001ZM16.482 31.4004C16.0814 32.1906 15.9034 32.9807 15.8588 33.8587C15.8588 34.0343 15.7698 33.9904 15.6363 33.9904C14.7015 33.9904 13.8112 33.9904 12.8764 33.9904C11.9861 33.9904 11.0958 33.9904 10.2055 33.9904C9.98295 33.9904 9.93843 33.9026 9.93843 33.727C9.84941 31.8394 11.2739 30.3908 12.8764 30.0835C14.2118 29.8201 15.4137 30.1713 16.393 31.137C16.5266 31.2248 16.5266 31.3126 16.482 31.4004ZM26.8094 34.0343C25.2068 34.0343 23.5598 34.0343 21.9573 34.0343C20.3548 34.0343 18.7523 34.0343 17.1498 34.0343C16.9272 34.0343 16.8827 33.9904 16.8827 33.7709C17.0607 30.7858 19.8651 28.591 22.8476 29.0738C25.2068 29.4689 26.9429 31.4443 27.0319 33.7709C27.0319 33.9904 26.9874 34.0343 26.8094 34.0343ZM33.7091 34.0343C32.7743 34.0343 31.884 34.0343 30.9492 34.0343C30.0144 34.0343 29.1241 34.0343 28.1893 34.0343C28.0113 34.0343 27.9667 33.9904 27.9667 33.8148C27.9222 32.9807 27.7442 32.1906 27.3881 31.4443C27.3435 31.3126 27.3435 31.2248 27.4326 31.137C28.5009 30.1713 29.7473 29.7762 31.1718 30.1713C32.5517 30.5664 33.3975 31.4443 33.7981 32.8051C33.8871 33.1563 33.8871 33.5514 33.8871 33.9026C33.9317 34.0782 33.7981 34.0343 33.7091 34.0343Z" fill="white"/>
<path d="M31.0431 10.9266V21.0734H27.1196C26.0191 19.3591 24.1531 18.3398 22.0478 18.3398C19.9426 18.3398 18.0287 19.3591 16.9761 21.0734H13.0526V10.9266H31.0431ZM32 10H12V22H17.4545C18.2679 20.3784 19.9904 19.2664 22 19.2664C24.0096 19.2664 25.6842 20.3784 26.5455 22H32V10Z" fill="white"/>
<path fill-rule="evenodd" clip-rule="evenodd" d="M25.5 12C25.7761 12 26 12.2544 26 12.5682V17.4318C26 17.7456 25.7761 18 25.5 18C25.2239 18 25 17.7456 25 17.4318V12.5682C25 12.2544 25.2239 12 25.5 12Z" fill="white"/>
<path fill-rule="evenodd" clip-rule="evenodd" d="M22.5 14C22.7761 14 23 14.2433 23 14.5435V17.4565C23 17.7567 22.7761 18 22.5 18C22.2239 18 22 17.7567 22 17.4565V14.5435C22 14.2433 22.2239 14 22.5 14Z" fill="white"/>
<path fill-rule="evenodd" clip-rule="evenodd" d="M19.5 15C19.7761 15 20 15.2895 20 15.6466V17.3534C20 17.7105 19.7761 18 19.5 18C19.2239 18 19 17.7105 19 17.3534V15.6466C19 15.2895 19.2239 15 19.5 15Z" fill="white"/>
</svg>
