<svg width="202" height="42" viewBox="0 0 202 42" fill="none" xmlns="http://www.w3.org/2000/svg">
<ellipse cx="20.5" cy="21" rx="20.5" ry="21" fill="white"/>
<path d="M99.87 21.0712C103.153 21.0712 105.814 18.3969 105.814 15.0981C105.814 11.7992 103.153 9.125 99.87 9.125C96.5871 9.125 93.9258 11.7992 93.9258 15.0981C93.9258 18.3969 96.5871 21.0712 99.87 21.0712Z" fill="#6AA942"/>
<path d="M17.6764 21.3295C18.7611 21.3295 19.8388 21.3295 20.9861 21.3295C21.2295 21.3295 21.3477 21.3924 21.2851 21.6299C21.2851 22.0561 21.2851 22.4753 21.2851 22.8387C21.2851 23.0203 21.2225 23.0832 21.0417 23.1391C20.1378 23.2579 19.4773 24.0474 19.4773 24.9487C19.4773 25.85 20.1378 26.5767 21.0417 26.7024C21.2225 26.7024 21.2851 26.7653 21.2851 26.947C21.2851 27.3732 21.2851 27.8553 21.2851 28.2745C21.2851 28.4562 21.2225 28.519 21.0417 28.519C18.8167 28.519 16.5917 28.519 14.3667 28.519C14.1233 28.519 14.0677 28.4562 14.1233 28.2186C14.1233 27.7924 14.1233 27.3732 14.1233 26.947C14.1233 26.7653 14.1859 26.6465 14.3667 26.6465C15.2706 26.5278 15.9311 25.8011 15.9311 24.8928C15.9311 23.9845 15.2706 23.202 14.3667 23.0832C14.1233 23.0832 14.1233 22.9644 14.1233 22.7828C14.1233 22.4195 14.1233 22.0002 14.1233 21.6369C14.1233 21.3365 14.1859 21.2107 14.4849 21.2736C15.507 21.3924 16.5917 21.3295 17.6764 21.3295Z" fill="#04BDDD"/>
<path d="M25.4876 16.6157C25.731 15.2882 26.4472 14.3799 27.6501 13.779C28.0116 13.5974 28.3732 13.5345 28.7904 13.4786C29.0337 13.4786 29.0894 13.5415 29.0894 13.7231C29.0894 15.959 29.0894 18.1948 29.0894 20.4306C29.0894 20.6751 29.0268 20.731 28.7904 20.6751C27.1703 20.5563 25.8422 19.3476 25.5432 17.7127C25.5432 17.6498 25.5432 17.6498 25.5432 17.5939C25.425 17.6568 25.4807 17.7756 25.425 17.8384C25.0635 19.4105 23.7424 20.5563 22.1779 20.6751C21.9345 20.6751 21.8789 20.6122 21.8789 20.3747C21.8789 18.1389 21.8789 15.9031 21.8789 13.7301C21.8789 13.4856 21.9415 13.4297 22.1779 13.4297C23.8606 13.6113 25.0635 14.7013 25.425 16.3921C25.425 16.4969 25.425 16.5528 25.4876 16.6157Z" fill="#FD600E"/>
<path d="M23.0215 21.3203C23.6195 21.3203 24.1618 21.3203 24.7667 21.3203C24.9475 21.3203 25.0101 21.3832 25.1283 21.502C26.3938 22.7736 27.6523 24.0382 28.9178 25.3098C28.9804 25.3727 29.0986 25.4286 29.0986 25.6103C29.0986 26.2112 29.0986 26.8819 29.0986 27.4199C27.0474 25.4286 25.0031 23.3745 23.0215 21.3203Z" fill="#4F16A6"/>
<path d="M21.874 22.4766C23.9182 24.5307 25.8999 26.522 27.9441 28.5761C27.4643 28.5761 26.9846 28.5761 26.5048 28.5761C26.0807 28.5761 25.8443 28.4574 25.5453 28.2128C24.4049 27.0041 23.2577 25.8582 22.0617 24.7124C21.8809 24.5307 21.8184 24.4119 21.8184 24.1674C21.874 23.6224 21.874 23.0774 21.874 22.4766Z" fill="#4F16A6"/>
<path d="M29.0871 23.3741C28.4266 22.7103 27.766 22.0466 27.1055 21.3828C27.766 21.3828 28.3709 21.3828 28.9689 21.3828C29.0871 21.3828 29.0871 21.5016 29.0871 21.5645C29.0871 22.1723 29.0871 22.7103 29.0871 23.3741Z" fill="#5018A7"/>
<path d="M23.7424 28.5834C23.2001 28.5834 22.6577 28.5834 22.0598 28.5834C21.879 28.5834 21.8164 28.5205 21.8164 28.4018C21.8164 27.8009 21.8164 27.2559 21.8164 26.7109C22.477 27.3118 23.1375 27.9756 23.7424 28.5834Z" fill="#5118A7"/>
<path d="M18.7509 13.5312C17.3116 13.5312 15.8028 13.5312 14.3634 13.5312C14.1201 13.5312 14.0645 13.5941 14.0645 13.8317C14.0645 14.9216 14.0645 16.0675 14.0645 17.1575C14.0645 18.2474 14.0645 19.3304 14.0645 20.4832C14.0645 20.7837 14.127 20.8466 14.426 20.7837C14.6694 20.7837 14.9058 20.7837 15.0866 20.7837C15.3299 20.7837 15.4481 20.7208 15.4481 20.4832C15.4481 19.9383 15.4481 19.4562 15.4481 18.9112C15.4481 18.6107 15.5107 18.5479 15.8097 18.5479C16.8318 18.5479 17.7914 18.5479 18.8135 18.5479C20.2528 18.5479 21.3375 17.402 21.3375 16.0745C21.2749 14.6212 20.1346 13.5312 18.7509 13.5312ZM18.7509 17.1575C17.7288 17.1575 16.7067 17.1575 15.6845 17.1575C15.5038 17.1575 15.4412 17.0946 15.4412 16.9129C15.4412 16.312 15.4412 15.7042 15.4412 15.1033C15.4412 14.8588 15.5038 14.8588 15.6845 14.8588C16.2269 14.8588 16.7067 14.8588 17.249 14.8588C17.7288 14.8588 18.2711 14.8588 18.7509 14.8588C19.4115 14.8588 19.9538 15.3409 19.8912 16.0046C19.8982 16.6125 19.4115 17.0946 18.7509 17.1575Z" fill="black"/>
<path d="M21.5748 41.0893C32.596 41.0893 41.5305 32.1115 41.5305 21.0368C41.5305 9.96217 32.596 0.984375 21.5748 0.984375C10.5536 0.984375 1.61914 9.96217 1.61914 21.0368C1.61914 32.1115 10.5536 41.0893 21.5748 41.0893Z" stroke="black" stroke-width="0.5" stroke-miterlimit="10"/>
<path d="M21.5768 34.7432C29.115 34.7432 35.226 28.6026 35.226 21.0278C35.226 13.4531 29.115 7.3125 21.5768 7.3125C14.0386 7.3125 7.92773 13.4531 7.92773 21.0278C7.92773 28.6026 14.0386 34.7432 21.5768 34.7432Z" stroke="#B8B8B8" stroke-width="0.2" stroke-miterlimit="10"/>
<path d="M4.44336 17.106L4.62414 16.5051C4.74235 16.1418 4.92313 15.9043 5.28469 16.023C5.64626 16.1418 5.76447 16.4492 5.64626 16.8056V17.0501L6.18861 17.1689L6.07041 17.5322L4.44336 17.106ZM5.4029 16.8056C5.46548 16.6239 5.4029 16.5051 5.22212 16.4423C5.04133 16.3794 4.97875 16.5051 4.92313 16.6868L4.86055 16.8685L5.34032 16.9872L5.4029 16.8056Z" fill="black"/>
<path d="M4.91992 15.5386L5.10071 14.9936C5.21891 14.6303 5.46227 14.4487 5.82384 14.5674C6.1854 14.6862 6.24798 15.0495 6.12282 15.35L6.06024 15.5316L6.6026 15.7133L6.48439 16.0766L4.91992 15.5386ZM5.81688 15.3011C5.87946 15.1194 5.81688 15.0006 5.69868 14.9378C5.5179 14.8749 5.45532 14.9378 5.39969 15.1823L5.33711 15.364L5.76126 15.5456L5.81688 15.3011ZM5.81688 15.0565L6.90158 14.8749L6.78338 15.3011L6.00462 15.4198L5.81688 15.0565Z" fill="black"/>
<path d="M6.17944 14.4648C5.69967 14.2203 5.51888 13.864 5.69966 13.5006C5.88045 13.1373 6.24201 13.0185 6.78436 13.2561C7.32671 13.5006 7.44491 13.857 7.26413 14.2203C7.08335 14.5836 6.72178 14.7024 6.17944 14.4648ZM6.60358 13.5565C6.30459 13.4378 6.06123 13.4378 6.00561 13.5565C5.94303 13.7382 6.06818 13.9199 6.36717 14.0386C6.66616 14.2203 6.90952 14.1574 6.96515 14.0386C7.02077 13.9199 6.90257 13.7382 6.60358 13.5565Z" fill="black"/>
<path d="M7.38751 13.3162L7.32493 13.0158C7.50572 13.0158 7.5683 12.9529 7.62392 12.8341C7.67955 12.7153 7.6865 12.5896 7.50572 12.4708L6.84516 12.0446L6.4836 12.5896L6.24023 12.4708L6.78259 11.5625L7.74212 12.1075C8.04111 12.2891 8.16627 12.5337 7.92291 12.9529C7.81166 13.1346 7.6865 13.2533 7.38751 13.3162Z" fill="black"/>
<path d="M7.08594 11.0802L7.74649 10.1719L7.98985 10.3535L7.56571 10.9544L7.80907 11.1361L8.17064 10.654L8.414 10.8356L8.05243 11.3177L8.35142 11.5623L8.77556 10.9614L9.01892 11.1431L8.35837 12.0514L7.08594 11.0802Z" fill="black"/>
<path d="M8.64914 10.4138C8.22499 10.0505 8.225 9.56842 8.53094 9.26798C8.64914 9.08632 8.82992 9.02344 9.0107 9.02344L9.07328 9.32387C8.95508 9.32387 8.8925 9.38676 8.7743 9.44265C8.59351 9.62431 8.65609 9.86886 8.8925 10.1064C9.13586 10.351 9.43485 10.351 9.55305 10.1693C9.61563 10.1064 9.67126 9.98763 9.61563 9.86886H9.91462C9.9772 10.0505 9.85204 10.2951 9.73384 10.4138C9.55305 10.7143 9.06633 10.7702 8.64914 10.4138Z" fill="black"/>
<path d="M9.67134 8.54073L9.30977 8.90405L9.06641 8.65951L10.0885 7.69531L10.3319 7.93986L9.97032 8.30318L10.8742 9.26737L10.5753 9.51191L9.67134 8.54073Z" fill="black"/>
<path d="M11.6582 6.48445L12.0198 6.23991L12.4995 6.66611L12.6803 6.84777L12.6177 6.60323L12.437 6.00235L12.7985 5.75781L13.7024 7.14821L13.4591 7.32987L13.0349 6.96655C12.9167 6.78489 12.7359 6.42157 12.6734 6.30279L12.7916 6.729L12.9098 7.1552L12.729 7.27397L12.43 6.97354L12.0684 6.6731C12.1866 6.79188 12.43 7.1552 12.5482 7.27397L12.8472 7.70018L12.6177 7.86786L11.6582 6.48445Z" fill="black"/>
<path d="M13.4004 5.4551L13.8245 5.27344L15.0274 6.54506L14.6659 6.66384L14.0679 6.00008C13.9497 5.8813 13.8245 5.69964 13.7063 5.57388C13.7689 5.75554 13.8245 5.9372 13.8245 6.11886L14.0053 6.96427L13.6438 7.14593L13.4004 5.4551ZM13.6994 6.41929L14.4225 6.05597L14.5407 6.30052L13.8176 6.66384L13.6994 6.41929Z" fill="black"/>
<path d="M14.541 4.9196L14.9026 4.80082L15.5631 5.46458L15.8065 5.76502C15.7439 5.58336 15.6257 5.4017 15.5075 5.22004L15.3267 4.55628L15.6883 4.4375L16.2863 6.00956L15.9247 6.12834L15.2641 5.46458L15.0208 5.16414C15.0834 5.3458 15.2016 5.52746 15.3198 5.70912L15.5631 6.2541L15.2016 6.37288L14.541 4.9196Z" fill="black"/>
<path d="M16.463 4.18128L16.8871 4.0625L17.8467 5.50879L17.4851 5.62757L17.0609 4.90792C17.0053 4.78914 16.8802 4.60748 16.762 4.42582C16.762 4.60748 16.762 4.78914 16.762 4.9708V5.81622L16.4004 5.935L16.463 4.18128ZM16.5812 5.20836L17.3599 4.96381L17.4225 5.26425L16.6438 5.50879L16.5812 5.20836Z" fill="black"/>
<path d="M17.7878 4.73157C17.6696 4.18659 17.9685 3.82327 18.3857 3.70449C18.6291 3.64161 18.8099 3.70449 18.9281 3.82327L18.7473 4.06781C18.6847 4.00493 18.5665 4.00493 18.4483 4.00493C18.2049 4.06781 18.0867 4.24947 18.1493 4.60581C18.2119 4.96214 18.3927 5.0879 18.6291 5.0879C18.6917 5.0879 18.7473 5.02502 18.7473 5.02502L18.6847 4.72458L18.4483 4.79445L18.3857 4.48703L18.9281 4.36825L19.0463 5.15079C18.9837 5.26956 18.8029 5.39533 18.5665 5.45122C18.2675 5.45821 17.906 5.27655 17.7878 4.73157Z" fill="black"/>
<path d="M19.3496 3.59534L20.4343 3.47656V3.777L19.7112 3.83988L19.7738 4.2032L20.3717 4.14032V4.44076L19.7738 4.50364L19.8363 4.86696L20.5525 4.80408L20.6707 5.1674L19.5304 5.28618L19.3496 3.59534Z" fill="black"/>
<path d="M20.916 3.46094H21.3402L21.514 4.0688L21.5766 4.31334L21.6391 4.0688L21.8199 3.46792H22.2441V5.15876H21.9451V4.61378C21.9451 4.43212 22.0077 4.0129 22.0077 3.83124L21.8895 4.25745L21.7713 4.68365H21.5905L21.4723 4.25745L21.3541 3.83124C21.3541 4.0129 21.4166 4.43212 21.4166 4.61378V5.15876H21.1177L20.916 3.46094Z" fill="black"/>
<path d="M22.6534 3.46094L23.7381 3.57972V3.88714L23.015 3.82426L22.9524 4.18758L23.5504 4.25046V4.5509L22.9524 4.48801L22.8899 4.85133L23.613 4.91422L23.5574 5.21465L22.4727 5.15177L22.6534 3.46094Z" fill="black"/>
<path d="M24.2122 3.64062L24.5738 3.70351L24.7545 4.61181L24.8727 4.97513C24.8727 4.79347 24.8727 4.54893 24.9353 4.37425L25.0535 3.77338L25.4151 3.83626L25.1161 5.46421L24.7545 5.40133L24.5112 4.55591L24.4486 4.19259C24.4486 4.37425 24.4486 4.61879 24.386 4.79347L24.2678 5.39434L23.9062 5.33146L24.2122 3.64062Z" fill="black"/>
<path d="M26.1399 4.36453L25.6602 4.24575L25.7227 3.94531L27.0438 4.30863L26.9813 4.60907L26.5015 4.49029L26.1399 5.81781L25.7784 5.69903L26.1399 4.36453Z" fill="black"/>
<path d="M28.3682 6.30249L28.7298 6.48415L29.2095 5.57585L28.848 5.39419L28.9662 5.09375L29.9883 5.63873L29.8701 5.93917L29.5085 5.75751L29.0288 6.66581L29.3903 6.84747L29.2721 7.14791L28.25 6.60293L28.3682 6.30249Z" fill="black"/>
<path d="M30.4078 5.82812L30.7068 6.00979L30.5886 6.91808L30.526 7.28141C30.5886 7.09975 30.7068 6.91809 30.825 6.73643L31.124 6.25433L31.423 6.43599L30.5191 7.82639L30.2201 7.64472L30.3383 6.73643L30.4009 6.37311C30.3383 6.55477 30.2201 6.73642 30.1019 6.91808L29.8029 7.40018L29.5039 7.21154L30.4078 5.82812Z" fill="black"/>
<path d="M30.8301 7.85618L31.1291 7.7933C31.1916 7.97496 31.2473 8.09374 31.3724 8.2195C31.4906 8.33828 31.6158 8.33828 31.6714 8.2195C31.734 8.10073 31.6714 8.03784 31.6088 7.91907L31.4906 7.73741C31.3724 7.55575 31.3724 7.37409 31.4906 7.13653C31.6714 6.89199 31.9704 6.89199 32.2694 7.13653C32.4502 7.25531 32.5684 7.43697 32.5684 7.68151L32.2694 7.74439C32.2068 7.62562 32.1512 7.49985 32.026 7.38107C31.9078 7.31819 31.8452 7.31819 31.7827 7.38107C31.7201 7.44396 31.7827 7.56273 31.9009 7.68151L32.0191 7.86317C32.1373 8.04483 32.1373 8.22649 32.0191 8.46405C31.8383 8.70859 31.5393 8.70859 31.1777 8.46405C31.0109 8.28239 30.8927 8.10073 30.8301 7.85618Z" fill="black"/>
<path d="M33.1734 8.28755L32.8119 7.92423L33.0552 7.67969L34.0774 8.64388L33.834 8.88842L33.4724 8.52511L32.5685 9.4893L32.2695 9.24476L33.1734 8.28755Z" fill="black"/>
<path d="M33.2364 9.79073L33.4798 10.0912L34.2585 9.42741L34.0152 9.12697L34.2585 8.94531L35.0373 9.79073L34.7939 9.97239L34.5575 9.67195L33.7788 10.3357L34.0221 10.6361L33.7788 10.8178L33 9.97239L33.2364 9.79073Z" fill="black"/>
<path d="M35.28 10.6469L34.981 10.2207L35.2244 10.0391L36.0657 11.1849L35.8224 11.3666L35.5234 10.9404L34.4387 11.7229L34.1953 11.4225L35.28 10.6469Z" fill="black"/>
<path d="M35.3962 12.0372L36.3002 11.4922L36.4809 11.7926L35.577 12.3376C35.3962 12.4564 35.3337 12.5821 35.4588 12.7009C35.5214 12.8197 35.7022 12.8197 35.8204 12.7638L36.7243 12.2188L36.9051 12.5193L36.0012 13.0642C35.6396 13.3088 35.3406 13.2459 35.0973 12.8826C34.9165 12.5193 35.0347 12.2188 35.3962 12.0372Z" fill="black"/>
<path d="M37.0244 13.429L36.781 12.9469L37.08 12.8281L37.678 14.0997L37.379 14.2185L37.1356 13.7364L35.9327 14.3373L35.752 13.974L37.0244 13.429Z" fill="black"/>
<path d="M37.8075 14.5234L38.1691 15.5505L37.8701 15.6693L37.6267 15.0055L37.3277 15.1243L37.5711 15.7252L37.2721 15.844L37.0288 15.2431L36.6672 15.3619L36.9106 16.0256L36.6116 16.1444L36.25 15.0544L37.8075 14.5234Z" fill="black"/>
<path d="M6.35736 26.9609L6.53814 27.3871L5.21704 28.4771L5.03625 28.1767L5.75938 27.6317C5.87759 27.5129 6.05837 27.3871 6.18353 27.3312C6.00275 27.3312 5.82196 27.3941 5.64118 27.3941L4.79985 27.5129L4.68164 27.1496L6.35736 26.9609ZM5.39782 27.1985L5.69681 27.9251L5.39782 28.0439L5.09883 27.3173L5.39782 27.1985Z" fill="black"/>
<path d="M5.88039 28.529L6.78431 28.0469L6.96509 28.4102L6.00555 28.8923C5.82477 29.0111 5.76219 29.074 5.82477 29.2556C5.88735 29.3744 6.00555 29.4373 6.18633 29.3185L7.14587 28.8364L7.32666 29.1368L6.42274 29.6189C6.06118 29.8006 5.76219 29.7377 5.51883 29.3744C5.40062 29.0111 5.51883 28.7106 5.88039 28.529Z" fill="black"/>
<path d="M7.50267 29.9125L7.2593 29.4863L7.50267 29.3047L8.2258 30.4505L7.98244 30.6392L7.73908 30.213L6.59875 30.9396L6.41797 30.6392L7.50267 29.9125Z" fill="black"/>
<path d="M8.3465 30.6406L8.58986 30.9411L8.11009 31.3673L8.40908 31.7306L8.88885 31.3044L9.13221 31.6048L7.8111 32.6319L7.56774 32.3315L8.11009 31.9053L7.8111 31.5419L7.26875 31.9681L7.02539 31.6677L8.3465 30.6406Z" fill="black"/>
<path d="M8.64418 32.3936C9.06833 32.0303 9.42294 31.9674 9.72888 32.2749C10.0279 32.5753 9.97224 33.0015 9.5481 33.3648C9.12395 33.791 8.70676 33.791 8.4634 33.4836C8.22004 33.1762 8.22004 32.757 8.64418 32.3936ZM9.30474 33.0574C9.5481 32.8128 9.60372 32.6312 9.48552 32.4565C9.36731 32.3377 9.18653 32.3936 8.88754 32.6382C8.64418 32.8827 8.58856 33.1203 8.70676 33.2391C8.82496 33.3578 9.06137 33.2949 9.30474 33.0574Z" fill="black"/>
<path d="M10.3895 32.9375L10.8136 33.3008C11.057 33.5454 11.2378 33.8458 10.9318 34.1462C10.6885 34.4467 10.3338 34.3908 10.0905 34.1462L9.90969 34.0275L9.48555 34.5096L9.24219 34.2091L10.3895 32.9375ZM10.5077 34.0275L10.2643 35.1174L9.96532 34.817L10.1461 34.0344H10.5077V34.0275ZM10.2643 33.9087C10.3825 34.0275 10.5633 34.0275 10.6885 33.9087C10.8136 33.7899 10.751 33.6641 10.6259 33.5454L10.4451 33.4266L10.1461 33.7899L10.2643 33.9087Z" fill="black"/>
<path d="M10.7472 35.0509L11.0462 35.2954L11.6442 34.45L11.3452 34.2055L11.5259 33.9609L12.4855 34.6247L12.3047 34.8692L12.0057 34.6247L11.4077 35.4701L11.7067 35.7147L11.5259 35.9592L10.5664 35.2954L10.7472 35.0509Z" fill="black"/>
<path d="M12.0147 36.0681L13.2802 35.5231L12.6822 35.1598L12.863 34.8594L13.8851 35.4603L13.7669 35.6419L12.5014 36.1869L13.162 36.6131L12.9812 36.9135L11.8965 36.2498L12.0147 36.0681Z" fill="black"/>
<path d="M14.1194 35.5938L15.1415 36.0758L15.0233 36.3763L14.3627 36.0758L14.2445 36.3763L14.7869 36.6208L14.6687 36.9213L14.0707 36.6208L13.8899 36.9841L14.5505 37.2846L14.4323 37.585L13.4102 37.1029L14.1194 35.5938Z" fill="black"/>
<path d="M15.4408 36.1875L15.8649 36.3692C16.3447 36.5508 16.5255 36.8513 16.3447 37.3962C16.1639 37.9412 15.7467 38.06 15.3226 37.9412L14.8984 37.7596L15.4408 36.1875ZM15.3782 37.6408C15.6216 37.7037 15.858 37.6408 15.9762 37.2775C16.0944 36.9141 15.9762 36.7325 15.7328 36.6137H15.6702L15.3782 37.6408Z" fill="black"/>
<path d="M18.6907 37.4571L18.2109 37.3942L18.2735 37.0938L19.6572 37.3383L19.5946 37.6387L19.1149 37.5758L18.8715 38.8475L18.5099 38.7846L18.6907 37.4571Z" fill="black"/>
<path d="M19.8274 37.3516L20.4254 37.4144C20.787 37.4144 21.086 37.5961 21.0234 37.9594C21.0234 38.3227 20.7244 38.5044 20.3628 38.4415H20.1195L20.0569 39.0424H19.6953L19.8274 37.3516ZM20.3698 38.1341C20.5506 38.1341 20.6688 38.0712 20.6688 37.8896C20.6688 37.7079 20.5506 37.645 20.3698 37.645H20.189L20.1264 38.1271L20.3698 38.1341ZM20.5506 38.1341L21.0303 39.0983H20.6062L20.3072 38.3717L20.5506 38.1341Z" fill="black"/>
<path d="M21.7542 37.4141H22.234L22.7763 39.1049H22.3522L22.1088 38.2595C22.0463 38.0778 21.9906 37.8962 21.9906 37.7145C21.9281 37.8962 21.9281 38.0778 21.8724 38.2595L21.6916 39.1049H21.3301L21.7542 37.4141ZM21.5734 38.3852H22.3522V38.6857H21.5734V38.3852Z" fill="black"/>
<path d="M23.0773 38.6729L23.4388 38.61L23.3206 37.5829L22.9591 37.6458L22.8965 37.3453L24.0368 37.2266L24.0994 37.527L23.6752 37.5899L23.7934 38.617L24.155 38.5541L24.2176 38.8545L23.0773 39.0362V38.6729Z" fill="black"/>
<path d="M24.3984 37.1676L24.76 37.1047L25.3023 37.8314L25.5457 38.1318C25.4831 37.9502 25.4275 37.7685 25.3649 37.5309L25.2467 36.9301L25.6083 36.8672L25.9699 38.4951L25.6083 38.558L25.0659 37.8314L24.8226 37.5309C24.8852 37.7126 24.9408 37.8943 25.0034 38.1318L25.1216 38.7327L24.76 38.7956L24.3984 37.1676Z" fill="black"/>
<path d="M26.2551 38.1358L26.6166 38.017L26.3177 37.0528L25.9561 37.1716L25.8379 36.8711L26.9226 36.5078L27.0408 36.8083L26.6792 36.8711L26.9782 37.8353L27.3398 37.7165L27.458 38.017L26.3733 38.3803L26.2551 38.1358Z" fill="black"/>
<path d="M27.2754 36.3793L27.637 36.2606L28.2975 36.8614L28.5965 37.1619C28.5339 36.9802 28.4157 36.7985 28.2975 36.6169L28.0541 36.0719L28.4157 35.9531L29.0763 37.5252L28.7147 37.644L28.0541 37.0431L27.7552 36.7426C27.8177 36.9243 27.9359 37.106 28.0541 37.2876L28.2975 37.8326L27.9985 37.9514L27.2754 36.3793Z" fill="black"/>
<path d="M29.0258 36.5578C28.7824 36.0757 28.9076 35.6495 29.3248 35.412C29.5056 35.2932 29.6863 35.3491 29.8671 35.3491L29.8045 35.6495C29.6863 35.6495 29.6238 35.5866 29.5056 35.6495C29.3248 35.7683 29.2622 36.0128 29.443 36.3133C29.6238 36.6137 29.8045 36.7395 30.0409 36.6137C30.1035 36.6137 30.1592 36.5508 30.1592 36.4949L30.0409 36.2504L29.7976 36.3692L29.6794 36.0687L30.1592 35.7683L30.5207 36.432C30.4581 36.5508 30.3399 36.7325 30.1592 36.8583C29.742 37.1028 29.2622 37.0399 29.0258 36.5578Z" fill="black"/>
<path d="M31.3086 34.1307L31.7884 33.7674C32.0874 33.5229 32.3863 33.467 32.6297 33.7674C32.8731 34.0678 32.7479 34.3683 32.4489 34.6128L32.2681 34.7316L32.6297 35.1578L32.3307 35.4023L31.3086 34.1307ZM32.2125 34.4381C32.3933 34.3194 32.3933 34.1936 32.2751 34.0119C32.1569 33.8932 32.0317 33.8932 31.9135 34.0119L31.7327 34.1307L32.0317 34.5569L32.2125 34.4381Z" fill="black"/>
<path d="M32.6953 32.9333L32.9943 32.6328L34.5588 33.4782L34.2598 33.7787L33.5366 33.2966C33.4184 33.1778 33.2377 33.1149 33.0569 32.9961C33.1751 33.1778 33.2377 33.2966 33.3559 33.4782L33.78 34.2608L33.481 34.5053L32.6953 32.9333ZM33.3002 33.7787L33.8982 33.2337L34.079 33.4782L33.481 34.0232L33.3002 33.7787Z" fill="black"/>
<path d="M33.5312 32.1535L33.8928 31.7273C34.1362 31.4827 34.4352 31.3011 34.7341 31.5456C35.0331 31.7902 34.9775 32.1465 34.7341 32.391L34.6159 32.5727L35.0957 32.936L34.8524 33.2365L33.5312 32.1535ZM34.4908 32.2164C34.609 32.0347 34.609 31.9159 34.4908 31.7902C34.3726 31.6714 34.2474 31.7273 34.1292 31.853L34.011 31.9718L34.3726 32.2723L34.4908 32.2164ZM34.6159 32.0347L35.7006 32.2164L35.4017 32.5168L34.6229 32.3351V32.0347H34.6159Z" fill="black"/>
<path d="M34.9759 30.8154L34.677 31.2416L34.4336 31.0599L35.2124 29.9141L35.4557 30.0957L35.1567 30.5219L36.2414 31.3045L35.9981 31.6049L34.9759 30.8154Z" fill="black"/>
<path d="M35.3965 29.7302L35.5773 29.3669L36.4812 29.4857L36.8427 29.5485C36.662 29.4857 36.4812 29.3669 36.3004 29.304L35.8206 29.0036L36.0014 28.7031L37.4407 29.5485L37.2599 29.9119L36.356 29.7931L35.9945 29.7302C36.1752 29.7931 36.356 29.9119 36.5368 29.9747L37.0792 30.2752L36.8984 30.5756L35.3965 29.7302Z" fill="black"/>
<path d="M36.1172 28.3474L36.597 27.3203L36.8959 27.4391L36.597 28.1028L36.8959 28.2216L37.1393 27.6766L37.4383 27.7954L37.1949 28.3404L37.5565 28.5221L37.8555 27.8583L38.1545 27.9771L37.6747 29.0042L36.1172 28.3474Z" fill="black"/>
<path d="M36.709 27.0152L36.8898 26.4702C37.008 26.1069 37.1888 25.9252 37.6129 26.044C37.9745 26.1628 38.037 26.5261 37.9119 26.8265L37.8493 27.0082L38.3917 27.1899L38.2735 27.5532L36.709 27.0152ZM37.6129 26.7148C37.6755 26.5331 37.6129 26.4143 37.4947 26.3514C37.3139 26.2886 37.2513 26.3514 37.1957 26.596L37.1331 26.7776L37.5573 26.9593L37.6129 26.7148ZM37.6755 26.4702L38.7602 26.2886L38.642 26.7148L37.8632 26.8335L37.6755 26.4702Z" fill="black"/>
<path d="M12.2458 20.0411V20.2787H10.9316C10.9316 20.2228 10.9386 20.1599 10.9595 20.111C10.9942 20.0202 11.0498 19.9293 11.1194 19.8455C11.1889 19.7617 11.3002 19.6568 11.4392 19.5451C11.6548 19.3634 11.8008 19.2237 11.8773 19.1189C11.9538 19.0141 11.9885 18.9162 11.9885 18.8254C11.9885 18.7276 11.9538 18.6437 11.8842 18.5809C11.8147 18.518 11.7243 18.483 11.6131 18.483C11.4948 18.483 11.4045 18.518 11.328 18.5878C11.2515 18.6577 11.2237 18.7555 11.2237 18.8813L10.9734 18.8534C10.9873 18.6647 11.0568 18.518 11.168 18.4202C11.2793 18.3223 11.4323 18.2734 11.62 18.2734C11.8077 18.2734 11.9607 18.3293 12.072 18.4341C12.1832 18.5389 12.2388 18.6717 12.2388 18.8324C12.2388 18.9092 12.2249 18.9931 12.1902 19.0699C12.1554 19.1468 12.1067 19.2306 12.0302 19.3145C11.9538 19.3983 11.8286 19.5171 11.6548 19.6638C11.5088 19.7896 11.4114 19.8734 11.3697 19.9154C11.328 19.9573 11.2932 20.0062 11.2654 20.0481H12.2458V20.0411Z" fill="black"/>
<path d="M10.957 22.7771C10.957 22.5395 10.9779 22.3509 11.0266 22.2041C11.0752 22.0574 11.1448 21.9456 11.2421 21.8688C11.3395 21.7919 11.4577 21.75 11.6037 21.75C11.708 21.75 11.8053 21.771 11.8818 21.8129C11.9583 21.8548 12.0278 21.9177 12.0834 22.0015C12.1391 22.0854 12.1738 22.1832 12.2086 22.302C12.2434 22.4207 12.2503 22.5745 12.2503 22.7771C12.2503 23.0146 12.2295 23.2033 12.1808 23.343C12.1321 23.4828 12.0626 23.6015 11.9652 23.6784C11.8679 23.7552 11.7497 23.7972 11.6037 23.7972C11.409 23.7972 11.263 23.7273 11.1517 23.5876C11.0196 23.4269 10.957 23.1544 10.957 22.7771ZM11.2073 22.7771C11.2073 23.1055 11.2491 23.3221 11.3255 23.4338C11.402 23.5456 11.4994 23.5945 11.6106 23.5945C11.7219 23.5945 11.8192 23.5387 11.8957 23.4338C11.9722 23.329 12.0139 23.1055 12.0139 22.7771C12.0139 22.4487 11.9722 22.2321 11.8957 22.1203C11.8192 22.0085 11.7219 21.9596 11.6106 21.9596C11.4994 21.9596 11.409 22.0085 11.3395 22.1063C11.2491 22.2251 11.2073 22.4487 11.2073 22.7771Z" fill="black"/>
<path d="M32.4216 20.0411V20.2787H31.1074C31.1074 20.2228 31.1144 20.1599 31.1352 20.111C31.17 20.0202 31.2256 19.9293 31.2952 19.8455C31.3647 19.7617 31.4759 19.6568 31.615 19.5451C31.8306 19.3634 31.9766 19.2237 32.0531 19.1189C32.1295 19.0141 32.1643 18.9162 32.1643 18.8254C32.1643 18.7276 32.1295 18.6437 32.06 18.5809C31.9905 18.518 31.9001 18.483 31.7888 18.483C31.6706 18.483 31.5802 18.518 31.5038 18.5878C31.4273 18.6577 31.3995 18.7555 31.3995 18.8813L31.1491 18.8534C31.163 18.6647 31.2326 18.518 31.3438 18.4202C31.4551 18.3223 31.6081 18.2734 31.7958 18.2734C31.9835 18.2734 32.1365 18.3293 32.2477 18.4341C32.359 18.5389 32.4146 18.6717 32.4146 18.8324C32.4146 18.9092 32.4007 18.9931 32.3659 19.0699C32.3312 19.1468 32.2825 19.2306 32.206 19.3145C32.1295 19.3983 32.0044 19.5171 31.8306 19.6638C31.6845 19.7896 31.5872 19.8734 31.5455 19.9154C31.5038 19.9573 31.469 20.0062 31.4412 20.0481H32.4216V20.0411Z" fill="black"/>
<path d="M31.1328 23.2382L31.3762 23.2033C31.404 23.343 31.4527 23.4408 31.5222 23.5037C31.5917 23.5666 31.6752 23.5945 31.7656 23.5945C31.8838 23.5945 31.9811 23.5526 32.0576 23.4758C32.1341 23.3989 32.1758 23.2941 32.1758 23.1753C32.1758 23.0635 32.141 22.9727 32.0645 22.8959C31.9881 22.819 31.8977 22.7841 31.7864 22.7841C31.7377 22.7841 31.6821 22.7911 31.6126 22.812L31.6404 22.5954C31.6543 22.5954 31.6682 22.5954 31.6821 22.5954C31.7864 22.5954 31.8768 22.5675 31.9602 22.5116C32.0437 22.4557 32.0854 22.3718 32.0854 22.26C32.0854 22.1692 32.0576 22.0924 31.995 22.0365C31.9324 21.9806 31.8559 21.9456 31.7586 21.9456C31.6613 21.9456 31.5848 21.9736 31.5222 22.0365C31.4596 22.0993 31.4179 22.1832 31.397 22.309L31.1537 22.267C31.1815 22.0993 31.251 21.9736 31.3553 21.8828C31.4596 21.7919 31.5917 21.75 31.7516 21.75C31.8629 21.75 31.9602 21.771 32.0506 21.8199C32.141 21.8688 32.2106 21.9317 32.2592 22.0085C32.3079 22.0854 32.3288 22.1762 32.3288 22.267C32.3288 22.3509 32.3079 22.4347 32.2592 22.5046C32.2106 22.5745 32.148 22.6304 32.0576 22.6723C32.1758 22.7002 32.2662 22.7561 32.3288 22.84C32.3913 22.9238 32.4261 23.0356 32.4261 23.1614C32.4261 23.336 32.3635 23.4828 32.2384 23.6085C32.1132 23.7343 31.9533 23.7902 31.7586 23.7902C31.5848 23.7902 31.4388 23.7413 31.3205 23.6365C31.2023 23.5317 31.1467 23.4059 31.1328 23.2382Z" fill="black"/>
<path d="M98.2602 19.3636L95.2129 15.8443L96.4085 14.8023L98.3025 16.982L103.096 11.8359L104.26 12.9311L98.2602 19.3636Z" fill="white"/>
<path d="M53.705 18.4222L50.6895 10.7031H52.065L54.4457 16.9549L56.8264 10.7031H58.2019L55.0911 18.4222H53.705Z" fill="#6AA942"/>
<path d="M63.6784 16.0287H59.2873C59.4672 16.9431 60.1973 17.4959 61.1178 17.4959C61.7632 17.4959 62.3029 17.2195 62.7684 16.8474L63.4139 17.581C62.8637 18.2296 62.0383 18.5911 61.0331 18.5911C59.2026 18.5911 58.0176 17.4003 58.0176 15.6459C58.0176 13.8916 59.2026 12.7008 60.9485 12.7008C62.9483 12.5413 63.763 13.8278 63.6784 16.0287ZM62.578 15.0186C62.578 14.1042 61.9325 13.4557 60.9273 13.4557C60.0174 13.4557 59.3719 14.0086 59.1921 15.0186H62.578Z" fill="#6AA942"/>
<path d="M66.2373 13.7377C66.6077 12.9084 67.3377 12.5469 68.2477 12.5469V13.7377C67.0626 13.642 66.322 14.3863 66.2373 15.3963V18.4265H64.957V12.5469H66.2373V13.7377Z" fill="#6AA942"/>
<path d="M70.6301 10.8899C70.6301 11.3471 70.355 11.6235 69.9 11.6235C69.445 11.6235 69.1699 11.3471 69.1699 10.8899C69.1699 10.4327 69.445 10.1562 69.9 10.1562C70.355 10.1562 70.6301 10.4327 70.6301 10.8899ZM69.2546 18.4282V12.5485H70.5349V18.4282H69.2546Z" fill="#6AA942"/>
<path d="M72.65 12.1764C72.65 10.7942 73.6552 10.1562 74.6604 10.1562C75.0307 10.1562 75.4857 10.2519 75.7608 10.4327V11.5384C75.3905 11.3577 75.0307 11.262 74.7556 11.262C74.3006 11.262 73.9303 11.4428 73.9303 12.0913V12.7399H75.4857V13.6543H73.9303V18.3431H72.65V13.6543H71.9199V12.7399H72.65V12.1764ZM76.0359 10.8899C76.0359 10.4327 76.311 10.1562 76.766 10.1562C77.221 10.1562 77.4961 10.4327 77.4961 10.8899C77.4961 11.3471 77.221 11.6235 76.766 11.6235C76.4062 11.6235 76.0359 11.3471 76.0359 10.8899ZM77.4114 12.5485V18.4282H76.1311V12.5485H77.4114Z" fill="#6AA942"/>
<path d="M84.4401 16.0287H80.049C80.2289 16.9431 80.959 17.4959 81.8795 17.4959C82.525 17.4959 83.0646 17.2195 83.5301 16.8474L84.1756 17.581C83.6254 18.2296 82.8001 18.5911 81.7949 18.5911C79.9644 18.5911 78.7793 17.4003 78.7793 15.6459C78.7793 13.8916 79.9644 12.7008 81.7102 12.7008C83.71 12.5413 84.5353 13.8278 84.4401 16.0287ZM83.3503 15.0186C83.3503 14.1042 82.7048 13.4557 81.6996 13.4557C80.7897 13.4557 80.1442 14.0086 79.9644 15.0186H83.3503Z" fill="#6AA942"/>
<path d="M91.3158 18.4271H90.0355V17.417C89.5805 18.0656 88.9351 18.5228 88.0251 18.5228C86.3745 18.5228 85.1895 17.332 85.1895 15.4926C85.1895 13.7489 86.2899 12.5475 87.9299 12.5475C88.8399 12.5475 89.5805 12.9196 90.0355 13.6532V10.3359H91.3158V18.4271ZM90.0355 15.482C90.0355 14.3762 89.3054 13.5469 88.205 13.5469C87.1046 13.5469 86.3745 14.3762 86.3745 15.482C86.3745 16.5877 87.1046 17.417 88.205 17.417C89.3054 17.417 90.0355 16.6834 90.0355 15.482Z" fill="#6AA942"/>
<path d="M52.7951 30.3738L52.065 32.1175H50.6895L54.0754 24.3984H55.4509L58.8368 32.1175H57.366L56.6359 30.3738H52.7951ZM54.7102 25.7806L53.25 29.183H56.181L54.7102 25.7806Z" fill="black"/>
<path d="M64.6868 32.1325H63.4065V31.0267C63.0362 31.856 62.3061 32.2175 61.3009 32.2175C59.9254 32.2175 59.1953 31.3882 59.1953 29.921V26.2422H60.4756V29.5488C60.4756 30.4632 61.0258 30.931 61.8511 30.931C62.8563 30.931 63.5018 30.1017 63.5018 29.0916V26.2422H64.6868V32.1325Z" fill="black"/>
<path d="M69.9107 31.7569C69.4557 32.0333 69.0008 32.2141 68.4506 32.2141C67.5406 32.2141 66.7999 31.6612 66.7999 30.4704V27.4402H65.9746V26.5258H66.7999V24.8672H68.0802V26.5258H69.8155V27.4402H68.0802V30.2896C68.0802 30.9382 68.3553 31.119 68.7257 31.119C69.0008 31.119 69.2759 31.0233 69.6356 30.8425L69.9107 31.7569Z" fill="black"/>
<path d="M76.6668 28.5443V32.2231H75.3865V28.9165C75.3865 28.0021 74.8363 27.5343 74.011 27.5343C73.0058 27.5343 72.3604 28.3636 72.3604 29.3736V32.2231H71.0801V24.0469H72.3604V27.5449C72.8154 26.7156 73.5454 26.3541 74.5506 26.3541C75.8521 26.2478 76.6668 27.0771 76.6668 28.5443Z" fill="black"/>
<path d="M83.8964 29.1873C83.8964 30.931 82.6161 32.1325 80.8808 32.1325C79.0503 32.1325 77.8652 30.9416 77.8652 29.1873C77.8652 27.4436 79.1455 26.2422 80.8808 26.2422C82.7113 26.2422 83.8964 27.433 83.8964 29.1873ZM79.1455 29.1873C79.1455 30.2931 79.8756 31.1224 80.976 31.1224C81.9812 31.1224 82.7113 30.3888 82.7113 29.1873C82.7113 28.0816 81.9812 27.2523 80.976 27.2523C79.8756 27.3479 79.1455 28.0816 79.1455 29.1873Z" fill="black"/>
<path d="M86.5459 27.433C86.9163 26.6037 87.6463 26.2422 88.5563 26.2422V27.433C87.3712 27.3373 86.6306 28.0816 86.5459 29.0916V32.1218H85.2656V26.2422H86.5459V27.433Z" fill="black"/>
<path d="M90.9348 24.5852C90.9348 25.0424 90.6597 25.3188 90.2047 25.3188C89.7497 25.3188 89.4746 25.0424 89.4746 24.5852C89.4746 24.128 89.7497 23.8516 90.2047 23.8516C90.6597 23.8516 90.9348 24.128 90.9348 24.5852ZM89.5593 32.1235V26.2438H90.8396V32.1235H89.5593Z" fill="black"/>
<path d="M93.7781 31.1048H97.2592V32.1149H92.2227V31.2856L95.5133 27.3304H92.3073V26.3203H97.0687V27.1496L93.7781 31.1048Z" fill="black"/>
<path d="M103.659 29.7483H99.2678C99.4476 30.6627 100.178 31.2155 101.098 31.2155C101.744 31.2155 102.283 30.9391 102.749 30.567L103.394 31.3006C102.844 31.9492 102.019 32.3107 101.014 32.3107C99.1831 32.3107 97.998 31.1198 97.998 29.3655C97.998 27.6218 99.1831 26.4204 100.929 26.4204C102.929 26.2503 103.839 27.6325 103.659 29.7483ZM102.558 28.8233C102.558 27.9089 101.913 27.2603 100.908 27.2603C99.9978 27.2603 99.3524 27.8132 99.1725 28.8233H102.558Z" fill="black"/>
<path d="M110.519 32.1274H109.239V31.1173C108.784 31.7659 108.138 32.2231 107.228 32.2231C105.578 32.2231 104.393 31.0323 104.393 29.1929C104.393 27.4492 105.493 26.2478 107.133 26.2478C108.043 26.2478 108.784 26.6199 109.239 27.3535V24.0469H110.519V32.1274ZM109.239 29.278C109.239 28.1722 108.509 27.3429 107.408 27.3429C106.308 27.3429 105.578 28.1722 105.578 29.278C105.578 30.3837 106.308 31.213 107.408 31.213C108.509 31.1173 109.239 30.3837 109.239 29.278Z" fill="black"/>
<path d="M118.209 25.5893V32.1175H116.928V25.5893H114.463V24.3984H120.589V25.5893H118.209Z" fill="black"/>
<path d="M122.503 27.433C122.873 26.6037 123.603 26.2422 124.513 26.2422V27.433C123.328 27.3373 122.588 28.0816 122.503 29.0916V32.1218H121.223V26.2422H122.503V27.433Z" fill="black"/>
<path d="M128.813 31.4021C128.358 31.955 127.713 32.1357 126.887 32.1357C125.607 32.1357 124.877 31.3064 124.877 30.2963C124.877 29.1906 125.702 28.5526 127.067 28.5526H128.802V28.3719C128.802 27.6383 128.347 27.1811 127.427 27.1811C126.877 27.1811 126.327 27.3618 125.692 27.7339L125.141 26.8196C125.967 26.3624 126.517 26.0859 127.607 26.0859C129.067 26.0859 129.988 26.8196 129.988 28.1061V31.9656H128.707V31.4021H128.813ZM128.813 30.1156V29.5627H127.258C126.432 29.5627 126.073 29.7434 126.073 30.392C126.073 30.9449 126.528 31.2213 127.173 31.2213C128.083 31.2213 128.728 30.7641 128.813 30.1156Z" fill="black"/>
<path d="M133.111 24.5852C133.111 25.0424 132.835 25.3188 132.38 25.3188C131.925 25.3188 131.65 25.0424 131.65 24.5852C131.65 24.128 131.925 23.8516 132.38 23.8516C132.835 23.8516 133.111 24.128 133.111 24.5852ZM131.735 32.1235V26.2438H133.015V32.1235H131.735Z" fill="black"/>
<path d="M140.43 28.5438V32.2226H139.15V28.916C139.15 28.0016 138.6 27.5338 137.775 27.5338C136.769 27.5338 136.219 28.1824 136.124 29.0967V32.2226H134.844V26.343H136.124V27.4487C136.579 26.6194 137.309 26.2579 138.314 26.2579C139.616 26.2473 140.43 27.0766 140.43 28.5438Z" fill="black"/>
<path d="M143.536 24.5852C143.536 25.0424 143.261 25.3188 142.806 25.3188C142.351 25.3188 142.076 25.0424 142.076 24.5852C142.076 24.128 142.351 23.8516 142.806 23.8516C143.261 23.8516 143.536 24.128 143.536 24.5852ZM142.171 32.1235V26.2438H143.452V32.1235H142.171Z" fill="black"/>
<path d="M150.853 28.5438V32.2226H149.573V28.916C149.573 28.0016 149.023 27.5338 148.198 27.5338C147.192 27.5338 146.642 28.1824 146.547 29.0967V32.2226H145.277V26.343H146.558V27.4487C147.013 26.6194 147.743 26.2579 148.748 26.2579C150.028 26.2473 150.853 27.0766 150.853 28.5438Z" fill="black"/>
<path d="M157.806 31.5748C157.806 33.2335 156.621 34.3286 154.791 34.3286C153.881 34.3286 153.055 34.0521 152.325 33.595L152.876 32.6806C153.426 33.0527 153.976 33.3292 154.706 33.3292C155.807 33.3292 156.537 32.6806 156.537 31.6705V30.9369C156.166 31.5855 155.436 31.947 154.611 31.947C153.055 31.947 151.955 30.8412 151.955 29.0975C151.955 27.4389 152.96 26.3438 154.516 26.3438C155.426 26.3438 156.071 26.7159 156.526 27.3538V26.4394H157.806V31.5748ZM156.526 29.0975C156.526 27.9918 155.796 27.2581 154.875 27.2581C153.87 27.2581 153.225 27.9918 153.14 29.0975C153.14 30.2033 153.87 30.9369 154.875 30.9369C155.891 30.8412 156.526 30.1076 156.526 29.0975Z" fill="black"/>
<path d="M165.49 24.3984C167.416 24.3984 168.506 25.3128 168.506 27.0671C168.506 28.8215 167.405 29.8209 165.49 29.8209H163.755V32.1175H162.475V24.3984H165.49ZM163.755 28.6301H165.49C166.675 28.6301 167.321 28.0772 167.321 27.0671C167.321 26.0571 166.675 25.5999 165.49 25.5999H163.755V28.6301Z" fill="black"/>
<path d="M173.268 31.4021C172.813 31.955 172.168 32.1357 171.342 32.1357C170.062 32.1357 169.332 31.3064 169.332 30.2963C169.332 29.1906 170.157 28.5526 171.522 28.5526H173.258V28.3719C173.258 27.6383 172.803 27.1811 171.882 27.1811C171.332 27.1811 170.782 27.3618 170.147 27.7339L169.597 26.8196C170.422 26.3624 170.972 26.0859 172.062 26.0859C173.522 26.0859 174.443 26.8196 174.443 28.1061V31.9656H173.162V31.4021H173.268ZM173.268 30.1156V29.5627H171.713C170.887 29.5627 170.528 29.7434 170.528 30.392C170.528 30.9449 170.983 31.2213 171.628 31.2213C172.538 31.2213 173.183 30.7641 173.268 30.1156Z" fill="black"/>
<path d="M177.481 27.433C177.852 26.6037 178.582 26.2422 179.492 26.2422V27.433C178.307 27.3373 177.566 28.0816 177.481 29.0916V32.1218H176.201V26.2422H177.481V27.433Z" fill="black"/>
<path d="M183.881 31.7569C183.426 32.0333 182.971 32.2141 182.421 32.2141C181.511 32.2141 180.771 31.6612 180.771 30.4704V27.4402H179.945V26.5258H180.771V24.8672H182.051V26.5258H183.786V27.4402H182.051V30.2896C182.051 30.9382 182.326 31.119 182.696 31.119C182.971 31.119 183.247 31.0233 183.606 30.8425L183.881 31.7569Z" fill="black"/>
<path d="M190.557 28.5438V32.2226H189.277V28.916C189.277 28.0016 188.727 27.5338 187.902 27.5338C186.896 27.5338 186.346 28.1824 186.251 29.0967V32.2226H184.971V26.343H186.251V27.4487C186.706 26.6194 187.436 26.2579 188.441 26.2579C189.827 26.2473 190.557 27.0766 190.557 28.5438Z" fill="black"/>
<path d="M197.417 29.7483H193.026C193.205 30.6627 193.936 31.2155 194.856 31.2155C195.502 31.2155 196.041 30.9391 196.507 30.567L197.152 31.3006C196.602 31.9492 195.777 32.3107 194.771 32.3107C192.941 32.3107 191.756 31.1198 191.756 29.3655C191.756 27.6218 192.941 26.4204 194.687 26.4204C196.771 26.2503 197.597 27.6325 197.417 29.7483ZM196.316 28.8233C196.316 27.9089 195.671 27.2603 194.666 27.2603C193.756 27.2603 193.11 27.8132 192.93 28.8233H196.316Z" fill="black"/>
<path d="M199.991 27.433C200.362 26.6037 201.092 26.2422 202.002 26.2422V27.433C200.817 27.3373 200.076 28.0816 199.991 29.0916V32.1218H198.711V26.2422H199.991V27.433Z" fill="black"/>
<path d="M114.363 10.7031C116.288 10.7031 117.378 11.6175 117.378 13.3718C117.378 15.1262 116.278 16.1256 114.363 16.1256H112.627V18.4222H111.252V10.7031H114.363ZM112.543 14.9348H114.278C115.463 14.9348 116.109 14.3819 116.109 13.3718C116.109 12.3618 115.463 11.9046 114.278 11.9046H112.543V14.9348Z" fill="black"/>
<path d="M122.132 16.1256C122.036 16.1256 121.856 16.1256 121.761 16.1256H119.931V18.4222H118.65V10.7031H121.761C123.687 10.7031 124.872 11.6175 124.872 13.3718C124.872 14.5626 124.322 15.4876 123.317 15.8491L125.052 18.4222H123.592L122.132 16.1256ZM121.772 14.9348C122.957 14.9348 123.602 14.3819 123.602 13.3718C123.602 12.3618 122.957 11.9046 121.772 11.9046H119.941V14.9348H121.772Z" fill="black"/>
<path d="M127.911 11.8939V14.0098H131.657V15.1155H127.911V17.2313H132.207V18.4222H126.631V10.7031H132.122V11.8939H127.911Z" fill="black"/>
<path d="M140.711 18.4222V12.6276L138.245 17.5928H137.42L134.955 12.6276V18.4222H133.77V10.7031H135.325L137.886 15.8491L140.446 10.7031H142.002V18.4222H140.711Z" fill="black"/>
<path d="M143.922 18.4222V10.7031H145.202V18.4222H143.922Z" fill="black"/>
<path d="M148.575 11.8939V14.0098H152.321V15.1155H148.575V17.2313H152.871V18.4222H147.295V10.7031H152.786V11.8939H148.575Z" fill="black"/>
<path d="M157.915 16.1256C157.819 16.1256 157.64 16.1256 157.544 16.1256H155.714V18.4222H154.434V10.7031H157.544C159.47 10.7031 160.655 11.6175 160.655 13.3718C160.655 14.5626 160.105 15.4876 159.1 15.8491L160.835 18.4222H159.375L157.915 16.1256ZM157.544 14.9348C158.729 14.9348 159.375 14.3819 159.375 13.3718C159.375 12.3618 158.729 11.9046 157.544 11.9046H155.714V14.9348H157.544Z" fill="black"/>
<path d="M29.5946 28.5898V28.1496H29.4277V28.0938H29.8241V28.1496H29.6572V28.5898H29.5946Z" fill="black"/>
<path d="M29.8828 28.5812V28.0781H29.9802L30.0984 28.4345C30.1123 28.4694 30.1192 28.4904 30.1192 28.5113C30.1262 28.4904 30.1331 28.4694 30.147 28.4345L30.2652 28.0851H30.3556V28.5882H30.293V28.169L30.147 28.5882H30.0845L29.9384 28.162V28.5882H29.8828V28.5812Z" fill="black"/>
</svg>
