<svg width="54" height="57" viewBox="0 0 54 57" fill="none" xmlns="http://www.w3.org/2000/svg">
<path d="M36.7285 7.35176C37.015 7.44724 37.2059 7.25629 37.3969 7.16081C38.3517 6.58794 39.3064 5.9196 40.2612 5.34674C40.4522 5.44221 40.5476 5.53769 40.6431 5.63317C42.2662 7.25629 43.9848 8.8794 45.608 10.598C46.2763 11.2663 46.2763 11.6482 45.7989 12.4121C45.1306 13.4623 44.4622 14.5126 43.7939 15.4673C43.5074 15.8493 43.5074 16.2312 43.6984 16.7086C44.0803 17.5679 44.4622 18.4271 44.7487 19.2864C44.9396 19.7638 45.226 19.9548 45.7034 20.0503C46.8492 20.2412 47.9949 20.5277 49.1406 20.7186C50.1909 20.9096 50.4773 21.196 50.4773 22.3417C50.4773 24.8241 50.4773 27.3065 50.4773 29.789C50.4773 31.0302 49.7135 31.603 48.4723 31.3166C48.2813 30.7437 48.5678 30.2663 48.5678 29.789C49.0451 26.6382 46.5627 23.5829 43.3165 23.4875C43.0301 23.4875 42.7436 23.4875 42.3617 23.5829C41.6934 23.6784 41.025 23.8694 40.3567 24.2513C40.1657 24.3468 40.0703 24.4422 39.7838 24.3468C39.5929 24.1558 39.5929 23.8694 39.4974 23.6784C38.4471 19 35.7738 15.6583 31.2863 13.9397C27.8491 12.603 24.3165 12.794 20.9748 14.3216C17.0602 16.2312 14.6733 19.2864 13.7185 23.4875C13.623 23.7739 13.623 24.0603 13.4321 24.2513C13.1456 24.3468 12.9547 24.1558 12.6682 23.9648C11.618 23.4875 10.5677 23.1055 9.422 23.392C7.7034 23.6784 6.36672 24.5377 5.50742 26.1608C4.7436 27.4975 4.7436 28.9297 5.03004 30.3618C5.12551 30.7437 5.31647 31.1256 5.12551 31.5076C4.07526 31.3166 3.02501 31.0302 1.97476 30.8392C1.40189 30.7437 1.21094 30.3618 1.21094 29.8844C1.21094 27.1156 1.21094 24.4422 1.21094 21.6734C1.21094 21.1005 1.49737 20.8141 2.07023 20.7186C3.40692 20.4322 4.7436 20.1457 6.08029 19.8593C6.4622 19.7638 6.74863 19.5729 6.93958 19.191C7.32149 18.1407 7.79888 17.1859 8.18079 16.1357C8.27627 15.8493 8.27627 15.6583 8.08531 15.3719C7.32149 14.2261 6.55768 13.0804 5.88933 11.9347C5.50742 11.2663 5.50742 10.8844 6.08029 10.407C7.89436 8.59297 9.80391 6.68342 11.618 4.86935C12.1908 4.29648 12.4773 4.29649 13.1456 4.6784C14.2913 5.44221 15.4371 6.11056 16.4873 6.87438C16.7738 7.06533 17.0602 7.16081 17.4421 6.96985C18.4924 6.49247 19.5426 6.11056 20.5929 5.63317C20.8793 5.53769 21.0702 5.34674 21.0702 4.96483C21.3567 3.62814 21.6431 2.38694 21.9295 1.05025C22.1205 0.190955 22.4069 0 23.1708 0C25.1758 0 27.1808 0 29.1858 0C29.6632 0.0954775 29.8542 0.477387 29.9496 0.859297C30.1406 2.48241 30.427 3.72362 30.618 4.96483C30.7135 5.44221 30.9999 5.72865 31.4773 5.9196C32.7185 6.39699 33.9597 6.96985 35.2009 7.44724C35.7738 7.73367 36.2512 7.73367 36.7285 7.35176Z" fill="#EB7833"/>
<path d="M26.707 56.8999C24.32 56.8999 21.9331 56.8999 19.5462 56.8999C19.3552 56.6135 19.3552 56.2316 19.3552 55.9452C19.3552 53.2718 19.3552 50.5029 19.3552 47.8296C19.3552 47.5431 19.3552 47.3522 19.2597 47.0658C19.1642 46.7793 18.9733 46.5884 18.6869 46.5884C18.4004 46.5884 18.2095 46.7793 18.0185 46.9703C17.8276 47.2567 17.923 47.6386 17.923 47.9251C17.923 50.5984 17.923 53.2718 17.923 56.0406C17.923 56.3271 18.0185 56.709 17.7321 56.8999C15.918 56.8999 14.1039 56.8999 12.3853 56.8999C11.908 56.8999 11.8125 56.8045 11.8125 56.3271C11.8125 54.0356 11.8125 51.6487 11.8125 49.3572C11.8125 49.2617 11.717 49.2617 11.717 49.1663C11.6215 47.4477 11.4306 45.6336 11.908 43.915C12.5763 40.9552 14.4858 39.0456 17.2547 37.8999C17.7321 37.709 18.2095 37.6135 18.6869 37.4225C19.0688 37.3271 19.3552 37.3271 19.7371 37.3271C21.3602 37.3271 22.9833 37.3271 24.511 37.3271C24.8929 37.3271 25.2748 37.1361 25.5612 37.3271C25.7522 37.518 25.5612 37.6135 25.4658 37.709C24.6065 38.5683 24.6065 39.6185 25.4658 40.3823C25.5612 40.4778 25.6567 40.5733 25.7522 40.6688C25.7522 41.6235 25.5612 42.4828 25.4658 43.4376C24.9884 46.5884 24.6065 49.7391 24.1291 52.7944C24.0336 53.3673 24.1291 53.8447 24.6065 54.322C25.2748 54.8949 25.8477 55.4678 26.4205 56.1361C26.516 56.3271 26.707 56.518 26.707 56.8999Z" fill="#E9E7E7"/>
<path d="M39.3079 56.9023C38.0667 56.9023 36.9209 56.9023 35.6797 56.9023C35.4888 56.6159 35.4888 56.3294 35.4888 56.043C35.4888 53.3696 35.4888 50.6963 35.4888 47.9274C35.4888 47.641 35.4888 47.2591 35.3933 46.9726C35.2978 46.6862 35.1069 46.4953 34.725 46.5907C34.4385 46.5907 34.2476 46.7817 34.1521 47.0681C34.0566 47.3546 34.0566 47.5455 34.0566 47.8319C34.0566 50.5053 34.0566 53.2742 34.0566 55.9475C34.0566 56.234 34.1521 56.6159 33.8657 56.9023C31.4787 56.9023 28.9963 56.9023 26.6094 56.9023C26.6094 56.6159 26.8003 56.4249 26.9913 56.234C27.6596 55.5656 28.2325 54.9927 28.9008 54.3244C29.3782 53.9425 29.4737 53.4651 29.3782 52.8922C28.8054 49.2641 28.328 45.5405 27.7551 41.9123C27.6596 41.5304 27.5642 41.1485 27.6596 40.6711C28.137 40.1937 28.6144 39.7164 28.5189 38.9525C28.5189 38.4752 28.4234 37.9978 27.9461 37.7113C27.8506 37.6159 27.5642 37.5204 27.7551 37.3294C27.9461 37.2339 28.137 37.2339 28.328 37.3294C29.1873 37.4249 30.0466 37.3294 30.9059 37.4249C31.2878 37.4249 31.6697 37.4249 32.0516 37.4249C32.6245 37.6159 33.1973 37.7113 33.7702 37.9023C36.8255 39.048 39.3079 42.1033 39.3079 45.636C39.2124 49.0731 39.3079 52.5103 39.3079 55.9475C39.4988 56.3294 39.4988 56.6159 39.3079 56.9023Z" fill="#E9E7E7"/>
<path d="M44.0825 36.2763C45.3237 36.2763 46.5649 36.2763 47.9016 36.3718C50.7659 36.4672 53.5348 38.8542 53.4393 42.0049C53.3438 44.2964 53.4393 46.4924 53.4393 48.7838C53.4393 49.2612 53.3438 49.4522 52.8665 49.4522C49.1428 49.4522 45.4192 49.4522 41.6956 49.4522C41.6956 49.3567 41.6956 49.3567 41.6956 49.2612C42.173 49.0703 42.7458 49.1657 43.3187 49.1657C43.6051 49.1657 43.8916 49.0703 43.7961 48.6883C43.7961 47.4471 43.8916 46.1105 43.7006 44.8693C43.3187 41.0502 39.8815 38.1858 36.3489 37.8039C35.9669 37.8039 35.4896 37.8039 35.2031 37.5175C35.2986 37.2311 35.4896 37.1356 35.776 37.0401C36.7308 36.5627 37.6855 36.1808 38.7358 36.2763C39.977 36.2763 41.2182 36.2763 42.3639 36.2763C42.9368 36.1808 43.5097 35.9898 44.0825 36.2763Z" fill="#7DA7FE"/>
<path d="M11.8097 49.1663V49.2618C8.08603 49.2618 4.36241 49.2618 0.638791 49.2618C0.161404 49.2618 0.0659269 49.0709 0.0659269 48.689C0.0659269 46.493 0.161404 44.2015 0.0659269 42.0055C-0.0295506 39.3322 1.88 36.9452 4.55337 36.3724C5.60362 36.0859 6.65387 36.2769 7.70412 36.1814C8.27699 36.1814 8.75437 36.1814 9.32724 36.1814C9.42272 36.0859 9.51819 36.0859 9.61367 36.0859C10.0911 36.0859 10.5684 36.0859 11.0458 36.0859C12.287 36.0859 13.6237 36.0859 14.8649 36.0859C15.9152 36.0859 16.87 36.3724 17.7293 36.9452C17.9202 37.0407 18.1112 37.1362 18.2066 37.4226C17.9202 37.8045 17.4428 37.7091 17.0609 37.8045C14.5785 38.091 12.669 39.2367 11.1413 41.2417C10.1865 42.5784 9.70915 44.0106 9.61367 45.7292C9.61367 46.6839 9.61367 47.6387 9.61367 48.5935C9.61367 49.1663 9.70915 49.1663 10.282 49.2618C10.8549 49.0709 11.3323 48.8799 11.8097 49.1663Z" fill="#7DA7FE"/>
<path d="M9.61247 36.2783C9.51699 36.2783 9.42151 36.2783 9.32604 36.2783C7.03458 35.61 5.79337 33.9869 5.12503 31.7909C4.8386 30.4542 4.55216 29.1175 4.93407 27.8763C5.50694 25.5849 6.84362 24.0572 9.23056 23.5799C9.32604 23.5799 9.42151 23.4844 9.51699 23.4844C10.7582 23.5799 11.6175 24.1527 12.3813 25.012C13.8135 26.5397 14.1954 28.3537 13.8135 30.3588C13.6225 31.7909 13.1451 33.1276 12.2858 34.2733C11.6175 35.3236 10.7582 35.8964 9.61247 36.2783Z" fill="#FEDCAA"/>
<path d="M27.9454 40.6729C28.2318 42.6779 28.5182 44.7785 28.8047 46.7835C29.0911 48.9795 29.473 51.2709 29.7594 53.4669C29.7594 53.6579 29.7594 53.7533 29.5685 53.9443C28.6137 54.8991 27.6589 55.8538 26.7042 56.8086C25.8449 55.9493 24.9856 54.9945 24.1263 54.1352C23.8398 53.8488 23.8398 53.6579 23.8398 53.3714C24.4127 49.2659 24.9856 45.0649 25.6539 40.9594C25.6539 40.8639 25.6539 40.8639 25.6539 40.7684C26.3223 40.3865 27.1816 40.3865 27.9454 40.6729Z" fill="#AC1E1E"/>
<path d="M48.3773 31.3129C48.7592 31.2174 49.2366 31.2174 49.6185 31.0264C50.0004 30.931 50.1914 30.5491 50.1914 30.0717C50.1914 27.3028 50.1914 24.6295 50.1914 21.8606C50.1914 21.2878 49.9049 21.0013 49.4276 20.9058C47.9954 20.6194 46.5632 20.2375 45.2265 19.9511C44.9401 19.8556 44.7492 19.7601 44.6537 19.4737C44.2718 18.4234 43.7944 17.3732 43.4125 16.3229C43.2215 15.941 43.317 15.7501 43.508 15.3681C44.1763 14.3179 44.9401 13.1722 45.6085 12.1219C46.0858 11.3581 46.0858 11.0717 45.4175 10.4033C43.7944 8.7802 42.1713 7.15709 40.5482 5.53397C40.4527 5.43849 40.2617 5.24754 40.2617 5.05658C40.4527 4.86563 40.7391 4.77015 40.9301 4.5792C41.4074 4.29276 41.7894 4.38824 42.1713 4.67467C44.0808 6.58422 46.0858 8.49377 47.9954 10.4988C48.3773 10.8807 48.3773 11.3581 48.0909 11.8355C47.3271 12.9812 46.5632 14.1269 45.7994 15.2727C45.6085 15.5591 45.6085 15.8455 45.7039 16.132C46.1813 17.1822 46.5632 18.2325 47.0406 19.2827C47.1361 19.5692 47.3271 19.6646 47.6135 19.7601C48.9502 20.0465 50.3823 20.333 51.719 20.6194C52.3874 20.8104 52.5783 21.0013 52.5783 21.6697C52.5783 24.343 52.5783 27.0164 52.5783 29.5943C52.5783 30.3581 52.2919 30.6445 51.5281 30.74C50.4778 30.931 49.3321 31.2174 48.2818 31.4084C48.0909 31.5993 48.1863 31.4084 48.3773 31.3129Z" fill="#FFA976"/>
<path d="M41.6927 49.1751V49.2706C41.6927 51.5621 41.6927 53.8535 41.6927 56.145C41.6927 56.7179 41.5018 56.9088 40.9289 56.8133C40.356 56.8133 39.8787 56.8133 39.3058 56.8133C39.3058 52.8988 39.3058 48.9842 39.3058 45.0696C39.3058 43.2555 38.542 41.7279 37.3962 40.3912C36.0596 38.8636 34.341 38.0043 32.3359 37.5269C32.6224 37.2405 33.0043 37.4314 33.2907 37.3359C33.4817 37.3359 33.7681 37.3359 33.9591 37.3359C34.341 37.3359 34.7229 37.4314 35.0093 37.5269C37.0143 38.0998 38.8284 39.0545 40.0696 40.7731C41.0244 42.1098 41.5972 43.542 41.6927 45.2606C41.7882 46.4063 41.6927 47.552 41.6927 48.6978C41.7882 48.8887 41.7882 49.0797 41.6927 49.1751Z" fill="#DCD6D6"/>
<path d="M48.3762 31.3211C48.2807 31.5121 48.1852 31.703 48.1852 31.894C47.6124 33.6126 46.7531 35.1402 45.0345 35.9041C44.748 36.095 44.3661 36.1905 43.9842 36.286C43.4114 36.3814 42.8385 36.286 42.2656 36.286C42.2656 36.1905 42.2656 36.1905 42.2656 36.095C42.3611 35.9995 42.4566 35.9041 42.5521 35.9041C44.2707 35.2357 45.3209 33.899 45.8938 32.2759C46.4666 30.6528 46.7531 29.0297 46.1802 27.3111C45.6073 25.688 44.5571 24.5422 42.934 23.9694C42.743 23.8739 42.3611 23.9694 42.2656 23.5875C43.9842 23.2056 45.4164 23.7784 46.7531 24.8287C48.2807 26.1654 48.949 27.9794 48.5671 29.9845C48.5671 30.3664 48.4717 30.8437 48.3762 31.3211Z" fill="#F8CD94"/>
<path d="M33.9648 56.9001C33.9648 53.7493 33.9648 50.5031 33.9648 47.3523C33.9648 46.7795 34.2513 46.3975 34.7287 46.3975C35.3015 46.3021 35.4925 46.684 35.6834 47.1614C35.6834 47.2568 35.6834 47.4478 35.6834 47.6387C35.6834 50.7895 35.6834 53.8448 35.6834 56.9955C35.1106 56.9001 34.5377 56.9001 33.9648 56.9001Z" fill="#DCD6D6"/>
<path d="M17.8281 56.9092C17.8281 53.7585 17.8281 50.6077 17.8281 47.457C17.8281 46.9796 17.9236 46.5977 18.401 46.3112C18.7829 46.1203 19.0693 46.3112 19.3558 46.5977C19.5467 46.7886 19.5467 47.0751 19.5467 47.266C19.5467 50.4168 19.5467 53.663 19.5467 56.8138C18.9739 56.9092 18.401 56.9092 17.8281 56.9092Z" fill="#DCD6D6"/>
<path d="M36.728 7.34658C36.4416 7.91945 36.0597 8.01492 35.5823 7.82397C34.1501 7.2511 32.718 6.58276 31.2858 6.10537C30.8084 5.91442 30.6175 5.53251 30.522 5.05512C30.2356 3.71844 29.9491 2.47723 29.6627 1.23602C29.5672 0.854115 29.3763 0.567682 29.0898 0.28125C29.6627 0.28125 30.331 0.28125 30.9039 0.28125C31.4768 0.28125 31.8587 0.567682 31.9542 1.14055C32.2406 2.47723 32.527 3.90939 32.8135 5.24608C32.9089 5.62799 33.0999 5.72346 33.3863 5.91442C34.5321 6.39181 35.6778 6.86919 36.728 7.34658Z" fill="#FFA976"/>
<path d="M42.3597 23.4844C43.4099 23.7708 44.4602 24.2482 45.224 25.1075C46.4652 26.4442 46.9426 27.9718 46.7516 29.6904C46.6561 30.9316 46.3697 32.1728 45.7014 33.3186C44.9375 34.6552 43.8873 35.61 42.3597 36.1829C41.2139 36.2784 40.4501 35.61 39.6863 34.9417C39.1134 34.2733 38.5406 33.5095 38.2541 32.6502C37.7767 31.6954 37.6813 30.6452 37.4903 29.6904C37.3948 28.6402 37.4903 27.5899 37.9677 26.6351C38.3496 25.9668 38.7315 25.2984 39.3999 24.7256C39.5908 24.6301 39.6863 24.4391 39.8772 24.4391C40.6411 23.9618 41.4049 23.5799 42.3597 23.4844Z" fill="#FEDCAA"/>
<path d="M39.883 24.4444C39.2147 25.1127 38.5463 25.7811 38.1644 26.5449C37.878 26.0675 37.9735 25.4946 37.878 25.0173C37.3051 19.8615 33.2951 15.8514 28.1393 15.0876C22.7926 14.4193 17.4458 17.6655 15.9182 23.1077C15.6318 23.967 15.5363 24.9218 15.4408 25.7811C15.4408 25.972 15.4408 26.163 15.3453 26.3539C15.2498 26.5449 15.0589 26.4494 15.0589 26.3539C14.677 25.6856 14.1041 25.2082 13.6267 24.6353C13.5313 24.5399 13.5312 24.4444 13.5312 24.3489C14.0086 21.1982 15.4408 18.4293 17.8277 16.3288C19.9282 14.5147 22.3152 13.369 25.084 13.0826C28.1393 12.7007 31.0036 13.2735 33.677 14.8966C36.8277 16.8062 38.7373 19.575 39.6921 23.2032C39.7875 23.5851 39.7875 24.0625 39.883 24.4444Z" fill="#FFA976"/>
<path d="M13.6277 24.45C14.296 25.0228 14.8689 25.7866 15.3463 26.5505C15.8237 26.9324 15.8237 27.5052 15.9191 27.9826C16.0146 28.5555 16.1101 29.1283 16.0146 29.6057C15.8237 30.656 15.6327 31.6108 15.2508 32.661C14.7734 33.7113 14.2005 34.666 13.3412 35.4299C12.6729 35.9073 12.0046 36.2892 11.1453 36.2892C10.6679 36.2892 10.095 36.3846 9.61762 36.2892C9.61762 36.1937 9.52214 36.0982 9.7131 36.0982C11.4317 35.6208 12.3865 34.2841 13.1503 32.7565C13.7231 31.5153 13.9141 30.2741 13.9141 28.8419C13.9141 26.455 12.1955 24.1635 9.80857 23.5907C9.7131 23.5907 9.7131 23.4952 9.61762 23.4952C10.8588 23.2087 11.9091 23.4952 12.9593 24.068C13.1503 24.1635 13.3412 24.3545 13.6277 24.45Z" fill="#F8CD94"/>
<path d="M15.9166 29.6862C15.9166 29.2089 15.8211 28.7315 15.8211 28.2541C15.8211 27.6812 15.5347 27.1083 15.3438 26.5355C15.4392 21.5707 17.7307 17.847 22.3136 15.842C28.997 12.9777 36.6352 17.0832 37.8764 24.244C37.9719 25.0078 38.0674 25.7717 38.0674 26.631C37.59 27.4903 37.4945 28.445 37.4945 29.3998C37.4945 29.4953 37.4945 29.5908 37.399 29.6862C37.4945 30.3546 37.2081 30.832 36.9216 31.4048C35.394 34.3646 33.0071 36.3697 29.8563 37.4199C29.5699 37.5154 29.3789 37.6109 29.0925 37.5154C28.9015 37.5154 28.6151 37.6109 28.4242 37.5154C28.2332 37.5154 28.0422 37.5154 27.8513 37.5154C27.7558 37.6109 27.6603 37.6109 27.6603 37.5154C27.6603 37.3244 27.8513 37.3244 28.0422 37.229C29.6654 36.6561 30.9066 35.5104 31.8613 34.0782C32.1478 33.6963 32.4342 33.2189 32.5297 32.837C32.8161 32.0732 33.1026 31.5003 33.8664 31.1184C34.9166 30.5455 35.585 28.2541 35.2985 27.0129C35.2031 26.7264 35.1076 26.44 34.8211 26.3445C34.6302 26.1536 34.4392 26.2491 34.1528 26.2491C34.0573 26.2491 33.9619 26.2491 33.9619 26.1536C33.8664 25.5807 34.0573 25.1033 34.1528 24.6259C34.2483 23.4802 34.5347 22.3345 34.3438 21.1887C34.1528 20.3294 33.6754 19.5656 32.8161 19.1837C32.2433 18.8973 31.8613 18.5154 31.4794 18.1335C30.2382 17.1787 28.9015 16.5104 27.3739 16.3194C26.992 16.2239 26.6101 16.2239 26.2282 16.3194C26.1327 16.3194 26.1327 16.3194 26.0372 16.3194C23.3639 16.7013 21.4543 18.1335 20.1176 20.5204C19.2583 22.048 19.0674 23.7666 19.5448 25.4852C19.6402 25.7717 19.7357 25.9626 19.5448 26.2491C19.4493 26.44 19.2583 26.3445 19.0674 26.3445C18.4945 26.44 18.2081 26.631 18.2081 27.2038C18.0171 28.636 18.399 29.8772 19.4493 31.0229C19.5448 31.1184 19.6402 31.2139 19.7357 31.2139C20.4995 31.5003 20.6905 32.1687 20.9769 32.7415C21.6453 34.3646 22.6955 35.6058 24.1277 36.6561C24.5096 36.9425 24.987 37.1335 25.3689 37.229C25.5598 37.3244 25.8463 37.229 25.8463 37.5154C25.7508 37.6109 25.6553 37.6109 25.6553 37.5154C25.2734 37.4199 24.8915 37.6109 24.5096 37.6109C24.3186 37.5154 24.1277 37.5154 24.0322 37.5154C20.2131 36.4651 17.5397 34.1737 16.1076 30.5455C15.9166 30.1636 15.8211 29.9727 15.9166 29.6862Z" fill="#FEFEFE"/>
<path d="M11.8114 49.1734C11.1431 49.1734 10.5702 49.1734 9.90187 49.1734C9.71092 49.1734 9.51996 49.1734 9.51996 48.887C9.61544 46.9774 9.23353 44.9724 9.90187 43.1583C10.9521 40.1985 13.1481 38.3845 16.2034 37.7161C16.8717 37.5252 17.5401 37.5252 18.1129 37.4297C18.3039 37.4297 18.3994 37.4297 18.3994 37.6206C17.4446 38.0026 16.3943 38.289 15.4396 38.9573C13.0526 40.5804 11.7159 42.8719 11.7159 45.7362C11.8114 46.882 11.8114 48.0277 11.8114 49.1734Z" fill="#508FEE"/>
<path d="M18.4941 37.6115C18.3986 37.5161 18.3032 37.5161 18.2077 37.4206C17.3484 36.6568 16.2981 36.2749 15.1524 36.2749C13.8157 36.1794 12.479 36.2749 11.0469 36.2749C13.0519 35.7975 14.1976 34.4608 15.0569 32.7422C15.3434 32.7422 15.3434 33.0286 15.5343 33.1241C16.4891 34.6517 17.6348 35.8929 19.067 36.9432C19.4489 37.2296 19.8308 37.3251 20.4037 37.3251C21.6449 37.3251 22.8861 37.3251 24.1273 37.3251C24.3182 37.3251 24.5092 37.3251 24.6047 37.5161C22.5042 37.5161 20.4991 37.4206 18.4941 37.6115Z" fill="#EB7833"/>
<path d="M25.5621 37.4235C25.6575 37.4235 25.6575 37.4235 25.753 37.4235C25.8485 37.328 25.944 37.328 26.0394 37.328C26.6123 37.328 27.0897 37.137 27.6626 37.4235C27.758 37.4235 27.758 37.4235 27.8535 37.4235C29.1902 38.1873 29.1902 39.9059 27.8535 40.6697C27.0897 40.6697 26.2304 40.6697 25.4666 40.6697C24.2254 39.9059 24.3208 38.1873 25.5621 37.4235Z" fill="#D12E2E"/>
<path d="M28.5195 37.4253C28.7105 37.4253 28.9969 37.3299 29.1879 37.3299C30.2381 37.3299 31.1929 37.2344 32.2432 37.2344C32.4341 37.2344 32.7205 37.2344 32.9115 37.2344C33.1025 37.2344 33.2934 37.2344 33.3889 37.5208C33.007 37.5208 32.6251 37.5208 32.3386 37.5208C31.2884 37.5208 30.2381 37.5208 29.1879 37.5208C28.9014 37.6163 28.7105 37.6163 28.5195 37.4253Z" fill="#CDCCD2"/>
<path d="M41.6951 49.1718C41.6951 48.1216 41.5997 47.1668 41.6951 46.1165C41.8861 41.82 39.0218 38.7648 35.2982 37.81C35.2027 37.81 35.1072 37.81 35.0117 37.619C35.0117 37.4281 35.1072 37.3326 35.2982 37.4281C38.3534 37.5236 40.9313 38.6693 42.7454 41.3427C43.6047 42.5839 43.9866 44.016 44.0821 45.6391C44.0821 46.6894 44.0821 47.6442 44.0821 48.6944C44.0821 49.0763 43.9866 49.2673 43.6047 49.2673C42.8409 49.1718 42.268 49.1718 41.6951 49.1718Z" fill="#508FEE"/>
<path d="M35.2019 37.4318C35.1064 37.5273 35.011 37.5273 34.9155 37.6228C34.5336 37.5273 34.2471 37.5273 33.8652 37.4318C33.7698 37.1454 33.9607 37.0499 34.1517 36.9545C35.6793 35.9042 36.9205 34.5675 37.8753 32.9444C37.9708 32.7535 37.9708 32.5625 38.2572 32.5625C38.8301 33.6128 39.3075 34.5675 40.2622 35.2359C40.8351 35.6178 41.408 35.9042 42.1718 35.9997V36.0952C40.8351 36.0952 39.5939 36.0952 38.2572 36.0952C37.3024 36.2861 36.1567 36.7635 35.2019 37.4318Z" fill="#EB7833"/>
<path d="M38.3533 32.6568C37.5895 33.9935 36.5393 35.2347 35.3935 36.285C34.9161 36.7624 34.3433 36.9533 33.9614 37.4307C33.7704 37.4307 33.5795 37.5262 33.3885 37.5262C32.2428 37.3352 31.0016 37.5262 29.8558 37.4307C29.6649 37.4307 29.3785 37.5262 29.1875 37.3352C32.0518 36.7624 34.3433 35.1393 36.0619 32.7523C36.7302 31.7975 37.3031 30.7473 37.5895 29.6016C37.8759 29.888 37.7805 30.3654 37.8759 30.6518C38.0669 31.4156 38.1624 32.084 38.3533 32.6568Z" fill="#FFA976"/>
<path d="M24.0317 37.3352C23.8408 37.5262 23.6498 37.4307 23.4589 37.4307C22.5996 37.4307 21.6448 37.3352 20.7855 37.4307C19.6398 37.5262 18.876 36.9533 18.1121 36.285C16.9664 35.2347 15.9162 33.9935 15.1523 32.6568C15.4388 31.6066 15.6297 30.6518 15.9162 29.6016C17.1574 33.5161 19.8307 35.9031 23.6498 37.1443C23.7453 37.2398 23.9363 37.3352 24.0317 37.3352Z" fill="#FFA976"/>
<path d="M26.0345 37.4237C25.939 37.4237 25.8435 37.4237 25.7481 37.4237C22.9792 36.6599 21.4516 34.5594 20.4968 32.077C20.4013 31.7906 20.2104 31.5996 19.9239 31.4087C18.8737 30.8358 18.4918 29.881 18.2053 28.8308C18.1099 28.4489 18.0144 27.9715 18.1099 27.4941C18.1099 26.3484 18.4918 25.9665 19.6375 26.1574C20.1149 25.2981 20.9742 24.8207 21.8335 24.4388C23.0747 23.8659 24.4114 23.675 25.7481 23.5795C26.8938 23.484 27.944 23.2931 29.0898 23.1021C29.7581 22.9112 30.4265 22.6247 30.9993 22.2428C31.4767 21.9564 31.6677 21.9564 31.7631 22.5293C31.9541 23.2931 32.2405 23.9614 32.7179 24.6298C32.7179 24.7252 32.8134 24.8207 32.8134 24.9162C32.8134 28.5443 32.0496 31.8861 29.9491 34.8459C28.8988 36.1825 27.6576 37.1373 26.0345 37.4237Z" fill="#FEDCAA"/>
<path d="M32.5342 24.632C31.9613 23.9637 31.7704 23.1999 31.4839 22.3406C31.3885 22.1496 31.3885 21.8632 31.102 22.1496C29.8608 23.1999 28.2377 23.2953 26.7101 23.4863C25.1824 23.6773 23.6548 23.7727 22.1271 24.3456C21.1724 24.7275 20.3131 25.2049 19.6447 25.9687C19.5493 26.0642 19.5493 26.0642 19.3583 26.0642C18.7854 23.8682 18.8809 21.7677 20.0266 19.8582C21.3633 17.7577 23.2729 16.421 25.8508 16.0391C26.9965 16.0391 27.9513 16.5165 28.906 17.1848C29.9563 17.9486 31.102 18.7124 31.6749 19.9536C32.2478 21.2903 32.4387 22.627 32.5342 24.0592C32.7251 24.3456 32.7251 24.5366 32.5342 24.632Z" fill="#7C6359"/>
<path d="M26.0352 37.4251C26.3216 37.1386 26.7035 37.1386 27.0854 36.9477C28.5176 36.2793 29.5678 35.1336 30.3316 33.7014C31.4774 31.5055 32.2412 29.214 32.4321 26.7316C32.4321 26.0632 32.5276 25.3949 32.5276 24.7266C33.1005 25.013 33.3869 25.5859 33.9598 26.0632C34.0553 26.0632 34.0553 26.0632 34.1507 26.0632C34.3417 25.9678 34.5326 25.9678 34.7236 26.0632C35.5829 26.4452 35.4874 27.3045 35.3919 27.9728C35.2965 28.8321 35.01 29.6914 34.5326 30.4552C34.2462 30.8371 33.9598 31.219 33.4824 31.3145C33.1005 31.41 33.005 31.6964 32.9095 31.9828C32.4321 33.415 31.6683 34.5607 30.6181 35.7065C29.7588 36.5658 28.804 37.0432 27.6583 37.4251C27.1809 37.4251 26.608 37.5205 26.0352 37.4251Z" fill="#FBD49F"/>
<path d="M33.9659 26.1688C33.4885 26.0733 33.2975 25.5959 33.0111 25.3095C32.8201 25.214 32.7247 25.0231 32.6292 24.8321C32.6292 24.7366 32.6292 24.7366 32.6292 24.6411C32.6292 23.1135 32.4382 21.6813 31.8654 20.2492C31.388 18.9125 30.1468 18.1487 29.001 17.2894C28.1417 16.621 27.0915 16.3346 26.1367 16.0482H26.2322C26.6141 15.9527 26.996 15.9527 27.4734 16.0482C29.2875 16.2391 30.8151 17.0984 32.1518 18.2442C32.4382 18.5306 32.6292 18.7215 33.0111 18.817C34.2523 19.3899 34.6342 20.4401 34.7297 21.6813C34.7297 23.018 34.5387 24.3547 34.2523 25.6914C33.9659 25.9778 33.9659 26.0733 33.9659 26.1688Z" fill="#604C42"/>
<path d="M27.3779 16.1337C26.996 16.1337 26.6141 16.1337 26.1367 16.1337C26.5186 15.9427 26.996 16.0382 27.3779 16.1337Z" fill="#7C6359"/>
<path d="M34.819 26.1667C34.628 26.1667 34.437 26.1667 34.2461 26.1667C34.3416 25.9757 34.5325 25.9757 34.819 26.1667Z" fill="#FEDCAA"/>
</svg>
