<?xml version="1.0" encoding="utf-8"?>
<!-- Generator: Adobe Illustrator 23.0.5, SVG Export Plug-In . SVG Version: 6.00 Build 0)  -->
<svg version="1.1" id="Layer_1" xmlns="http://www.w3.org/2000/svg" xmlns:xlink="http://www.w3.org/1999/xlink" x="0px" y="0px"
	 viewBox="0 0 50 50" style="enable-background:new 0 0 50 50;" xml:space="preserve">
<style type="text/css">
	.st0{fill:#3F51B5;}
</style>
<g id="Outline">
	<path class="st0" d="M5,5C4.9,5,4.8,5.1,4.8,5.2c-0.1,0.2-0.1,0.4,0,0.6C4.8,5.9,4.9,6,5,6C5.3,6.3,5.7,6.3,6,6
		C6.3,5.7,6.3,5.3,6,5C5.7,4.7,5.3,4.7,5,5z"/>
	<path class="st0" d="M7.5,4.8C7.4,4.8,7.3,4.9,7.2,5C6.9,5.3,6.9,5.7,7.2,6C7.5,6.3,8,6.3,8.3,6c0.1-0.1,0.2-0.3,0.2-0.5
		c0-0.2-0.1-0.4-0.2-0.5C8.1,4.8,7.7,4.7,7.5,4.8z"/>
	<path class="st0" d="M9.7,4.8C9.6,4.8,9.5,4.9,9.5,5C9.2,5.3,9.2,5.7,9.5,6c0.1,0.1,0.2,0.1,0.2,0.2c0.1,0,0.2,0.1,0.3,0.1
		c0.4,0,0.7-0.3,0.7-0.7c0,0,0,0,0,0c0-0.2-0.1-0.4-0.2-0.5C10.3,4.8,10,4.7,9.7,4.8z"/>
	<rect x="12.2" y="15.3" class="st0" width="10.5" height="1.5"/>
	<rect x="12.2" y="19.8" class="st0" width="10.5" height="1.5"/>
	<rect x="12.2" y="24.3" class="st0" width="14.2" height="1.5"/>
	<rect x="12.2" y="28.8" class="st0" width="9.7" height="1.5"/>
	<rect x="12.2" y="33.3" class="st0" width="6" height="1.5"/>
	<rect x="12.2" y="37.8" class="st0" width="4.5" height="1.5"/>
	<path class="st0" d="M44.6,11.5c-0.8,0-1.5,0.3-2,0.8L40,14.9V4.8c0-1.2-1-2.3-2.2-2.3h-33c-1.2,0-2.2,1-2.2,2.3v40.5
		c0,1.2,1,2.3,2.2,2.3h33c1.2,0,2.2-1,2.2-2.3V23.1l6.7-6.7c1.1-1.1,1.1-2.9,0-4.1C46.1,11.8,45.4,11.5,44.6,11.5z M4,4.8
		C4,4.3,4.3,4,4.7,4h33c0.4,0,0.7,0.3,0.7,0.8V7H4V4.8z M38.5,45.3c0,0.4-0.3,0.8-0.7,0.8h-33C4.3,46,4,45.7,4,45.3V8.5h34.5v7.9
		L34,20.9v-2.3l-7.9-7.9H8.5v33H34V29.1l4.5-4.5V45.3z M20.6,34.3l-2,6.1l6.1-2l2.2-2.2l5.7-5.7v11.7H10v-30h15v7.5h7.5v2.7
		l-9.7,9.7L20.6,34.3z M22.7,34.3l1.9,1.9l-0.8,0.8l-2.9,1l1-2.9L22.7,34.3z M26.5,13.3l4.9,4.9h-4.9V13.3z M25.7,35.2l-1.9-1.9
		l17.7-17.7l1.9,1.9L25.7,35.2z M45.6,15.3l-1.1,1.1l-1.9-1.9l1.1-1.1c0.5-0.5,1.4-0.6,1.9,0S46.2,14.8,45.6,15.3
		C45.6,15.3,45.6,15.3,45.6,15.3z"/>
</g>
</svg>
