<svg id="Layer_1" data-name="Layer 1" xmlns="http://www.w3.org/2000/svg" viewBox="0 0 148.67 49.87"><defs><style>.cls-1{fill:#6fa041;}.cls-1,.cls-2,.cls-3,.cls-4,.cls-5{fill-rule:evenodd;}.cls-2{fill:#b9d135;}.cls-3{fill:#9abc91;}.cls-4{fill:#767a7e;}.cls-5{fill:#939297;}</style></defs><title>etisalat</title><path class="cls-1" d="M114.25,9c3.91-.33,8.83,1.35,11.76,2.87a32.62,32.62,0,0,1,6.73,4.34c3.24,2.69,7,7.51,3.57,12-1.87,2.47-5.3,4.24-8.91,5.8a82,82,0,0,1-8.18,2.89,22.88,22.88,0,0,1-2.94.71c-2.75.4-3.64-.76-4.51-2.68a44.47,44.47,0,0,1-1.91-5.46c-1-3.45-2.38-8.49-2.31-12.43.07-4.76,2.11-7.68,6.7-8.07ZM101.16,4.91l-.06.21c-1,3.71-.29,7.39.64,10.9.87,3.28,1.91,6.41,3,9.49,1.61,4.55,3.48,9.38,4.65,14.15.21.84.37,1.72.59,2.56.28,1.09.38,1.54,1.62,1.09,1.51-.56,2.94-1.25,4.51-1.8,3.12-1.09,6.38-2,9.57-2.91,5.52-1.54,13.66-3.75,18.28-6.71a12.58,12.58,0,0,0,3.14-2.73l.18-.21.12-.26a11.37,11.37,0,0,0,.17-2.25c-.32-3.79-3.75-7.64-6.5-10-.43-.37-.86-.71-1.31-1.1-4-3.45-11.54-7.68-16.45-9.64-5.3-2.11-13.68-5-19.38-2.72a7.55,7.55,0,0,0-2.76,2Z" transform="translate(0)"/><path class="cls-2" d="M109.85,24.4c-.31-3.84.22-6.35,2.67-7.92,4.57-2.94,12.76.95,16.17,4.49l.65.71a7.25,7.25,0,0,1,1.94,5.89,5.53,5.53,0,0,1-.76,1.9,12.29,12.29,0,0,1-4.33,3.65,26,26,0,0,1-7.53,3.16c-3.71.81-5.26.14-6.83-3.21a26.53,26.53,0,0,1-2-8.67ZM114.25,9c-4.59.39-6.63,3.31-6.7,8.07-.07,3.94,1.26,9,2.31,12.43a44.47,44.47,0,0,0,1.91,5.46c.87,1.92,1.76,3.08,4.51,2.68a22.88,22.88,0,0,0,2.94-.71A82,82,0,0,0,127.4,34c3.61-1.56,7-3.33,8.91-5.8,3.43-4.52-.33-9.34-3.57-12A32.62,32.62,0,0,0,126,11.84c-2.93-1.52-7.85-3.2-11.76-2.87Z" transform="translate(0)"/><path class="cls-2" d="M147.27,29l-.18.21A12.58,12.58,0,0,1,144,31.89c-4.62,3-12.76,5.17-18.28,6.71-3.19.88-6.45,1.82-9.57,2.91-1.57.55-3,1.24-4.51,1.8-1.24.45-1.34,0-1.62-1.09-.22-.84-.38-1.72-.59-2.56-1.17-4.77-3-9.6-4.65-14.15-1.08-3.08-2.12-6.21-3-9.49-.93-3.51-1.64-7.19-.64-10.9A6,6,0,0,0,100,7.29a11.79,11.79,0,0,0-.45,2.88c-.23,5,2.17,11.67,3.69,16.22,1.73,5.16,3.59,9.56,5,15,.22.89.41,1.8.63,2.71.28,1.18.3,1.83,1.68,1.33,1.57-.57,3.1-1.28,4.74-1.87s3.39-1.13,5.06-1.62c3.42-1,6.92-1.93,10.33-3,6.28-1.9,14.89-4.69,16.63-10Z" transform="translate(0)"/><path class="cls-3" d="M101.16,4.91a7.55,7.55,0,0,1,2.76-2c5.7-2.27,14.08.61,19.38,2.72,4.91,2,12.47,6.19,16.45,9.64.45.39.88.73,1.31,1.1,2.75,2.41,6.18,6.26,6.5,10.05a11.37,11.37,0,0,1-.17,2.25s0,0,0,0a6.14,6.14,0,0,0,1.24-3.89c-.07-3.92-3.43-7.42-5.72-9.72a57.42,57.42,0,0,0-5.72-4.54c-7-4.84-21.69-12-30.34-10.23a8.76,8.76,0,0,0-3.58,1.54,6,6,0,0,0-1.26,1.35,9.16,9.16,0,0,0-.89,1.74Z" transform="translate(0)"/><path class="cls-4" d="M63.88,41.08c0,2.56.27,4.78-1.61,5.86a6.41,6.41,0,0,1-6-.23,2.81,2.81,0,0,1-.77-2.81,3,3,0,0,1,1.89-1.82,14.67,14.67,0,0,1,3.18-.52c1.14-.13,2.16-.29,3.28-.48Zm.2,7.13c.21,1.78,1.11,1.57,2.78,1.57,0-3.44,0-6.9,0-10.33,0-2.84-.15-6-3.59-6.83a61.23,61.23,0,0,0-7.57-.17c-.87,0-1.6.1-1.89.72A1.48,1.48,0,0,0,54.28,35a5.48,5.48,0,0,0,2.36.22c1.66,0,3.56-.08,5.19,0,2.89.19,2,2.64,1.82,2.85a3,3,0,0,1-1.81.79c-3.54.72-8,.17-9.14,3.84a5.07,5.07,0,0,0,3.18,6.63c2,.72,5.68.78,7.57-.57a5.32,5.32,0,0,0,.63-.59Z" transform="translate(0)"/><path class="cls-4" d="M3,40.24A5,5,0,0,1,6,35.53c4.48-1.89,7.86,1.73,6.93,3.16-.45.71-2.07.7-3,.8s-6.2.75-6.83.75Zm13.13,9.5c0-2.28,0-2.78-2.32-2.78H8.78C5.85,47,3.37,45.89,3,42.65c2.68-.33,5.45-.56,8.16-.84A8.33,8.33,0,0,0,14.9,41c1-.67,1.34-1.75.93-3.27C13.87,30.4,2,30.61.24,38.82c-.77,3.57.3,7.76,3.43,9.7a8.17,8.17,0,0,0,3.41,1.16c1.18.13,7.48.08,9.09.06Z" transform="translate(0)"/><path class="cls-4" d="M86.49,41.11c0,2.61.32,4.7-1.62,5.85-1.44.86-4.83.79-6-.27a2.77,2.77,0,0,1-.75-2.79c.62-2.07,3.33-2.16,5.08-2.34l3.26-.45Zm.21,7.12c.24,1.74,1.08,1.54,2.78,1.55,0-3.44,0-6.89,0-10.33,0-2.8-.13-6-3.53-6.81-1.31-.32-5.73-.19-7.55-.19-.91,0-1.6,0-1.94.67a1.46,1.46,0,0,0,.4,1.87,5.11,5.11,0,0,0,2.34.24c1.68,0,3.54-.08,5.19,0a2.3,2.3,0,0,1,1.82.72,2.48,2.48,0,0,1,.09,2.11c-.47.78-2.89,1-4.06,1.14-3.22.38-6,.68-6.9,3.42A5.94,5.94,0,0,0,75.58,47a5.14,5.14,0,0,0,2.83,2.36,10.58,10.58,0,0,0,4.65.46,5.29,5.29,0,0,0,3.64-1.57Z" transform="translate(0)"/><path class="cls-4" d="M35.9,49.77c2.25,0,4.51,0,6.77,0,2.51,0,6.24.23,7.58-2.5a6.14,6.14,0,0,0,.59-2.82c0-4-2.6-4.24-5.37-4.73-1-.18-4.88-.75-5.57-1.16a2,2,0,0,1-.37-2.51c.46-.91,1.36-.82,2.52-.82s5.89.13,6.58-.15A1.39,1.39,0,0,0,49,32.86c-.62-.6-2-.41-2.94-.41a52.46,52.46,0,0,0-6.6.16,3.85,3.85,0,0,0-2.11,1.28c-1.35,1.74-1.88,5.63.88,7.08,2,1,6.34,1.13,8.37,1.77,1,.31,1.31.85,1.26,2.09a1.86,1.86,0,0,1-1.47,1.94c-2.06.6-8.59-.08-9.72.36-1,.38-.78,1.48-.78,2.64Z" transform="translate(0)"/><path class="cls-4" d="M93.49,32.45c-1.23,0-2.41,0-2.41,1.37s1.17,1.43,2.43,1.42v5.57c0,1.79-.09,3.84,0,5.6s.86,2.77,2.5,3.13a27.38,27.38,0,0,0,5.35.2c.11-2-.16-2.58-2.19-2.58-2.27,0-2.67-.28-2.67-2.21V35.24c1.85,0,4.2.44,4.25-1.35s-2.4-1.44-4.23-1.44l0-4.57a11.3,11.3,0,0,0-1.84,0c-1.91.2-.93,2.42-1.18,4.57Z" transform="translate(0)"/><path class="cls-4" d="M19.76,32.44c-.7.05-2.4-.22-2.42,1.38s1.7,1.37,2.43,1.44v5.55c0,1.84-.06,3.81,0,5.63a2.91,2.91,0,0,0,2.47,3.09,27.88,27.88,0,0,0,5.36.23c.21-2-.23-2.6-2.21-2.6S22.77,47,22.77,45V35.26c1.54-.15,4.22.56,4.26-1.37s-2.63-1.32-4.25-1.45V27.86c-1.19,0-2.66-.24-2.94.87a34.34,34.34,0,0,0-.07,3.71Z" transform="translate(0)"/><path class="cls-4" d="M69.77,49.75l3,0v-22c-.78-.07-2.3-.13-2.7.35s-.28,2-.28,2.85V46.62c0,1-.08,2.16,0,3.13Z" transform="translate(0)"/><path class="cls-4" d="M30.19,49.76l3,0V32.47c-2.82-.21-3,.15-3,2,0,5,.06,10.26,0,15.26Z" transform="translate(0)"/><path class="cls-5" d="M30.19,31.15c.81.08,2.33.11,2.74-.38a6.55,6.55,0,0,0,.24-2.91c-3.36-.23-3,.33-3,3.29Z" transform="translate(0)"/></svg>